<mxfile host="app.diagrams.net" agent="Mozilla/5.0 (Macintosh; Intel Mac OS X 10_15_7) AppleWebKit/537.36 (KHTML, like Gecko) Chrome/133.0.0.0 Safari/537.36" version="26.0.12">
  <diagram name="第 1 页" id="8dPx4d-RhE_4gWMWgCcc">
    <mxGraphModel dx="1434" dy="1860" grid="1" gridSize="10" guides="1" tooltips="1" connect="1" arrows="1" fold="1" page="1" pageScale="1" pageWidth="827" pageHeight="1169" math="0" shadow="0">
      <root>
        <mxCell id="0" />
        <mxCell id="1" parent="0" />
        <UserObject label="&lt;div data-t=&quot;flow&quot; data-processon-v=&quot;{&amp;quot;list&amp;quot;:[{&amp;quot;parent&amp;quot;:&amp;quot;&amp;quot;,&amp;quot;link&amp;quot;:&amp;quot;&amp;quot;,&amp;quot;shapeStyle&amp;quot;:{&amp;quot;alpha&amp;quot;:1},&amp;quot;textBlock&amp;quot;:[{&amp;quot;position&amp;quot;:{&amp;quot;w&amp;quot;:&amp;quot;w-20&amp;quot;,&amp;quot;x&amp;quot;:10,&amp;quot;h&amp;quot;:&amp;quot;h&amp;quot;,&amp;quot;y&amp;quot;:0},&amp;quot;text&amp;quot;:&amp;quot;用户提问&amp;quot;}],&amp;quot;anchors&amp;quot;:[{&amp;quot;x&amp;quot;:&amp;quot;w/2&amp;quot;,&amp;quot;y&amp;quot;:&amp;quot;0&amp;quot;},{&amp;quot;x&amp;quot;:&amp;quot;w/2&amp;quot;,&amp;quot;y&amp;quot;:&amp;quot;h&amp;quot;},{&amp;quot;x&amp;quot;:&amp;quot;0&amp;quot;,&amp;quot;y&amp;quot;:&amp;quot;h/2&amp;quot;},{&amp;quot;x&amp;quot;:&amp;quot;w&amp;quot;,&amp;quot;y&amp;quot;:&amp;quot;h/2&amp;quot;}],&amp;quot;title&amp;quot;:&amp;quot;矩形&amp;quot;,&amp;quot;fontStyle&amp;quot;:{},&amp;quot;dataAttributes&amp;quot;:[{&amp;quot;name&amp;quot;:&amp;quot;序号&amp;quot;,&amp;quot;id&amp;quot;:&amp;quot;YqpraooUQZ961339&amp;quot;,&amp;quot;type&amp;quot;:&amp;quot;number&amp;quot;,&amp;quot;category&amp;quot;:&amp;quot;default&amp;quot;,&amp;quot;value&amp;quot;:&amp;quot;&amp;quot;},{&amp;quot;name&amp;quot;:&amp;quot;名称&amp;quot;,&amp;quot;id&amp;quot;:&amp;quot;EWhVuLIeIK669457&amp;quot;,&amp;quot;type&amp;quot;:&amp;quot;string&amp;quot;,&amp;quot;category&amp;quot;:&amp;quot;default&amp;quot;,&amp;quot;value&amp;quot;:&amp;quot;&amp;quot;},{&amp;quot;name&amp;quot;:&amp;quot;所有者&amp;quot;,&amp;quot;id&amp;quot;:&amp;quot;ukTLGcJFzb799015&amp;quot;,&amp;quot;type&amp;quot;:&amp;quot;string&amp;quot;,&amp;quot;category&amp;quot;:&amp;quot;default&amp;quot;,&amp;quot;value&amp;quot;:&amp;quot;&amp;quot;},{&amp;quot;name&amp;quot;:&amp;quot;连接&amp;quot;,&amp;quot;id&amp;quot;:&amp;quot;gHmaUMOaUR894307&amp;quot;,&amp;quot;type&amp;quot;:&amp;quot;link&amp;quot;,&amp;quot;category&amp;quot;:&amp;quot;default&amp;quot;,&amp;quot;value&amp;quot;:&amp;quot;&amp;quot;},{&amp;quot;name&amp;quot;:&amp;quot;便笺&amp;quot;,&amp;quot;id&amp;quot;:&amp;quot;eADPlrVpKT239658&amp;quot;,&amp;quot;type&amp;quot;:&amp;quot;string&amp;quot;,&amp;quot;category&amp;quot;:&amp;quot;default&amp;quot;,&amp;quot;value&amp;quot;:&amp;quot;&amp;quot;}],&amp;quot;props&amp;quot;:{&amp;quot;zindex&amp;quot;:1,&amp;quot;w&amp;quot;:96,&amp;quot;x&amp;quot;:222,&amp;quot;h&amp;quot;:54,&amp;quot;y&amp;quot;:481,&amp;quot;angle&amp;quot;:0},&amp;quot;path&amp;quot;:[{&amp;quot;actions&amp;quot;:[{&amp;quot;x&amp;quot;:&amp;quot;0&amp;quot;,&amp;quot;action&amp;quot;:&amp;quot;move&amp;quot;,&amp;quot;y&amp;quot;:&amp;quot;0&amp;quot;},{&amp;quot;x&amp;quot;:&amp;quot;w&amp;quot;,&amp;quot;action&amp;quot;:&amp;quot;line&amp;quot;,&amp;quot;y&amp;quot;:&amp;quot;0&amp;quot;},{&amp;quot;x&amp;quot;:&amp;quot;w&amp;quot;,&amp;quot;action&amp;quot;:&amp;quot;line&amp;quot;,&amp;quot;y&amp;quot;:&amp;quot;h&amp;quot;},{&amp;quot;x&amp;quot;:&amp;quot;0&amp;quot;,&amp;quot;action&amp;quot;:&amp;quot;line&amp;quot;,&amp;quot;y&amp;quot;:&amp;quot;h&amp;quot;},{&amp;quot;action&amp;quot;:&amp;quot;close&amp;quot;}]}],&amp;quot;lineStyle&amp;quot;:{&amp;quot;lineWidth&amp;quot;:1.5},&amp;quot;children&amp;quot;:[],&amp;quot;resizeDir&amp;quot;:[&amp;quot;tl&amp;quot;,&amp;quot;tr&amp;quot;,&amp;quot;br&amp;quot;,&amp;quot;bl&amp;quot;,&amp;quot;l&amp;quot;,&amp;quot;t&amp;quot;,&amp;quot;r&amp;quot;,&amp;quot;b&amp;quot;],&amp;quot;name&amp;quot;:&amp;quot;rectangle&amp;quot;,&amp;quot;fillStyle&amp;quot;:{},&amp;quot;theme&amp;quot;:{},&amp;quot;id&amp;quot;:&amp;quot;EIrSDMlcTN372382&amp;quot;,&amp;quot;attribute&amp;quot;:{&amp;quot;container&amp;quot;:false,&amp;quot;rotatable&amp;quot;:true,&amp;quot;visible&amp;quot;:true,&amp;quot;fixedLink&amp;quot;:false,&amp;quot;collapsable&amp;quot;:false,&amp;quot;collapsed&amp;quot;:false,&amp;quot;linkable&amp;quot;:true,&amp;quot;markerOffset&amp;quot;:5},&amp;quot;category&amp;quot;:&amp;quot;basic&amp;quot;,&amp;quot;locked&amp;quot;:false,&amp;quot;group&amp;quot;:&amp;quot;&amp;quot;},{&amp;quot;textBlock&amp;quot;:[],&amp;quot;props&amp;quot;:{&amp;quot;zindex&amp;quot;:2},&amp;quot;dataAttributes&amp;quot;:[],&amp;quot;points&amp;quot;:[{&amp;quot;x&amp;quot;:341,&amp;quot;y&amp;quot;:508},{&amp;quot;x&amp;quot;:341,&amp;quot;y&amp;quot;:508}],&amp;quot;linkerType&amp;quot;:&amp;quot;broken&amp;quot;,&amp;quot;lineStyle&amp;quot;:{&amp;quot;lineWidth&amp;quot;:1.5},&amp;quot;name&amp;quot;:&amp;quot;linker&amp;quot;,&amp;quot;from&amp;quot;:{&amp;quot;x&amp;quot;:318,&amp;quot;y&amp;quot;:508,&amp;quot;angle&amp;quot;:3.1415926535897936,&amp;quot;id&amp;quot;:&amp;quot;EIrSDMlcTN372382&amp;quot;},&amp;quot;to&amp;quot;:{&amp;quot;x&amp;quot;:364,&amp;quot;y&amp;quot;:508,&amp;quot;angle&amp;quot;:0,&amp;quot;id&amp;quot;:&amp;quot;CzVwXZwMYd181285&amp;quot;},&amp;quot;id&amp;quot;:&amp;quot;pMlZludYIG100572&amp;quot;,&amp;quot;text&amp;quot;:&amp;quot;&amp;quot;,&amp;quot;locked&amp;quot;:false,&amp;quot;group&amp;quot;:&amp;quot;&amp;quot;},{&amp;quot;parent&amp;quot;:&amp;quot;&amp;quot;,&amp;quot;link&amp;quot;:&amp;quot;&amp;quot;,&amp;quot;shapeStyle&amp;quot;:{&amp;quot;alpha&amp;quot;:1},&amp;quot;textBlock&amp;quot;:[{&amp;quot;position&amp;quot;:{&amp;quot;w&amp;quot;:&amp;quot;w-20&amp;quot;,&amp;quot;x&amp;quot;:&amp;quot;10&amp;quot;,&amp;quot;h&amp;quot;:&amp;quot;h*0.75&amp;quot;,&amp;quot;y&amp;quot;:&amp;quot;h*0.13&amp;quot;},&amp;quot;text&amp;quot;:&amp;quot;判断用户提问是否属于金融方面&amp;quot;}],&amp;quot;anchors&amp;quot;:[{&amp;quot;x&amp;quot;:&amp;quot;0&amp;quot;,&amp;quot;y&amp;quot;:&amp;quot;h/2&amp;quot;},{&amp;quot;x&amp;quot;:&amp;quot;w/2&amp;quot;,&amp;quot;y&amp;quot;:&amp;quot;0&amp;quot;},{&amp;quot;x&amp;quot;:&amp;quot;w&amp;quot;,&amp;quot;y&amp;quot;:&amp;quot;h/2&amp;quot;},{&amp;quot;x&amp;quot;:&amp;quot;w/2&amp;quot;,&amp;quot;y&amp;quot;:&amp;quot;h&amp;quot;}],&amp;quot;title&amp;quot;:&amp;quot;菱形&amp;quot;,&amp;quot;fontStyle&amp;quot;:{},&amp;quot;dataAttributes&amp;quot;:[{&amp;quot;name&amp;quot;:&amp;quot;序号&amp;quot;,&amp;quot;id&amp;quot;:&amp;quot;GyLxvgPXPm180467&amp;quot;,&amp;quot;type&amp;quot;:&amp;quot;number&amp;quot;,&amp;quot;category&amp;quot;:&amp;quot;default&amp;quot;,&amp;quot;value&amp;quot;:&amp;quot;&amp;quot;},{&amp;quot;name&amp;quot;:&amp;quot;名称&amp;quot;,&amp;quot;id&amp;quot;:&amp;quot;AhsvVuNufe735655&amp;quot;,&amp;quot;type&amp;quot;:&amp;quot;string&amp;quot;,&amp;quot;category&amp;quot;:&amp;quot;default&amp;quot;,&amp;quot;value&amp;quot;:&amp;quot;&amp;quot;},{&amp;quot;name&amp;quot;:&amp;quot;所有者&amp;quot;,&amp;quot;id&amp;quot;:&amp;quot;LEgwyiqOfk171851&amp;quot;,&amp;quot;type&amp;quot;:&amp;quot;string&amp;quot;,&amp;quot;category&amp;quot;:&amp;quot;default&amp;quot;,&amp;quot;value&amp;quot;:&amp;quot;&amp;quot;},{&amp;quot;name&amp;quot;:&amp;quot;连接&amp;quot;,&amp;quot;id&amp;quot;:&amp;quot;YyilRXnDTs345873&amp;quot;,&amp;quot;type&amp;quot;:&amp;quot;link&amp;quot;,&amp;quot;category&amp;quot;:&amp;quot;default&amp;quot;,&amp;quot;value&amp;quot;:&amp;quot;&amp;quot;},{&amp;quot;name&amp;quot;:&amp;quot;便笺&amp;quot;,&amp;quot;id&amp;quot;:&amp;quot;htKRcxQxbx086223&amp;quot;,&amp;quot;type&amp;quot;:&amp;quot;string&amp;quot;,&amp;quot;category&amp;quot;:&amp;quot;default&amp;quot;,&amp;quot;value&amp;quot;:&amp;quot;&amp;quot;}],&amp;quot;props&amp;quot;:{&amp;quot;zindex&amp;quot;:3,&amp;quot;w&amp;quot;:168,&amp;quot;x&amp;quot;:364,&amp;quot;h&amp;quot;:122.5,&amp;quot;y&amp;quot;:446.75,&amp;quot;angle&amp;quot;:0},&amp;quot;path&amp;quot;:[{&amp;quot;actions&amp;quot;:[{&amp;quot;x&amp;quot;:&amp;quot;0&amp;quot;,&amp;quot;action&amp;quot;:&amp;quot;move&amp;quot;,&amp;quot;y&amp;quot;:&amp;quot;h/2&amp;quot;},{&amp;quot;x&amp;quot;:&amp;quot;w/2&amp;quot;,&amp;quot;action&amp;quot;:&amp;quot;line&amp;quot;,&amp;quot;y&amp;quot;:&amp;quot;0&amp;quot;},{&amp;quot;x&amp;quot;:&amp;quot;w&amp;quot;,&amp;quot;action&amp;quot;:&amp;quot;line&amp;quot;,&amp;quot;y&amp;quot;:&amp;quot;h/2&amp;quot;},{&amp;quot;x&amp;quot;:&amp;quot;w/2&amp;quot;,&amp;quot;action&amp;quot;:&amp;quot;line&amp;quot;,&amp;quot;y&amp;quot;:&amp;quot;h&amp;quot;},{&amp;quot;action&amp;quot;:&amp;quot;close&amp;quot;}]}],&amp;quot;lineStyle&amp;quot;:{&amp;quot;lineWidth&amp;quot;:1.5},&amp;quot;children&amp;quot;:[],&amp;quot;resizeDir&amp;quot;:[&amp;quot;tl&amp;quot;,&amp;quot;tr&amp;quot;,&amp;quot;br&amp;quot;,&amp;quot;bl&amp;quot;,&amp;quot;l&amp;quot;,&amp;quot;t&amp;quot;,&amp;quot;r&amp;quot;,&amp;quot;b&amp;quot;],&amp;quot;name&amp;quot;:&amp;quot;diamond&amp;quot;,&amp;quot;fillStyle&amp;quot;:{},&amp;quot;theme&amp;quot;:{},&amp;quot;id&amp;quot;:&amp;quot;CzVwXZwMYd181285&amp;quot;,&amp;quot;attribute&amp;quot;:{&amp;quot;container&amp;quot;:false,&amp;quot;rotatable&amp;quot;:true,&amp;quot;visible&amp;quot;:true,&amp;quot;fixedLink&amp;quot;:false,&amp;quot;collapsable&amp;quot;:false,&amp;quot;collapsed&amp;quot;:false,&amp;quot;linkable&amp;quot;:true,&amp;quot;markerOffset&amp;quot;:5},&amp;quot;category&amp;quot;:&amp;quot;basic&amp;quot;,&amp;quot;locked&amp;quot;:false,&amp;quot;group&amp;quot;:&amp;quot;&amp;quot;},{&amp;quot;parent&amp;quot;:&amp;quot;&amp;quot;,&amp;quot;link&amp;quot;:&amp;quot;&amp;quot;,&amp;quot;shapeStyle&amp;quot;:{&amp;quot;alpha&amp;quot;:1},&amp;quot;textBlock&amp;quot;:[{&amp;quot;position&amp;quot;:{&amp;quot;w&amp;quot;:&amp;quot;w-20&amp;quot;,&amp;quot;x&amp;quot;:&amp;quot;10&amp;quot;,&amp;quot;h&amp;quot;:&amp;quot;h-20&amp;quot;,&amp;quot;y&amp;quot;:&amp;quot;10&amp;quot;},&amp;quot;text&amp;quot;:&amp;quot;大模型（deepseek）&amp;quot;}],&amp;quot;anchors&amp;quot;:[{&amp;quot;x&amp;quot;:&amp;quot;w/2&amp;quot;,&amp;quot;y&amp;quot;:&amp;quot;0&amp;quot;},{&amp;quot;x&amp;quot;:&amp;quot;w/2&amp;quot;,&amp;quot;y&amp;quot;:&amp;quot;h&amp;quot;},{&amp;quot;x&amp;quot;:&amp;quot;0&amp;quot;,&amp;quot;y&amp;quot;:&amp;quot;h/2&amp;quot;},{&amp;quot;x&amp;quot;:&amp;quot;w&amp;quot;,&amp;quot;y&amp;quot;:&amp;quot;h/2&amp;quot;}],&amp;quot;title&amp;quot;:&amp;quot;八边形&amp;quot;,&amp;quot;fontStyle&amp;quot;:{},&amp;quot;dataAttributes&amp;quot;:[{&amp;quot;name&amp;quot;:&amp;quot;序号&amp;quot;,&amp;quot;id&amp;quot;:&amp;quot;wWDFfBgxYE850070&amp;quot;,&amp;quot;type&amp;quot;:&amp;quot;number&amp;quot;,&amp;quot;category&amp;quot;:&amp;quot;default&amp;quot;,&amp;quot;value&amp;quot;:&amp;quot;&amp;quot;},{&amp;quot;name&amp;quot;:&amp;quot;名称&amp;quot;,&amp;quot;id&amp;quot;:&amp;quot;cnKhJyZqtP090843&amp;quot;,&amp;quot;type&amp;quot;:&amp;quot;string&amp;quot;,&amp;quot;category&amp;quot;:&amp;quot;default&amp;quot;,&amp;quot;value&amp;quot;:&amp;quot;&amp;quot;},{&amp;quot;name&amp;quot;:&amp;quot;所有者&amp;quot;,&amp;quot;id&amp;quot;:&amp;quot;iTwBpcjOSf611650&amp;quot;,&amp;quot;type&amp;quot;:&amp;quot;string&amp;quot;,&amp;quot;category&amp;quot;:&amp;quot;default&amp;quot;,&amp;quot;value&amp;quot;:&amp;quot;&amp;quot;},{&amp;quot;name&amp;quot;:&amp;quot;连接&amp;quot;,&amp;quot;id&amp;quot;:&amp;quot;YSATAJHzdJ072436&amp;quot;,&amp;quot;type&amp;quot;:&amp;quot;link&amp;quot;,&amp;quot;category&amp;quot;:&amp;quot;default&amp;quot;,&amp;quot;value&amp;quot;:&amp;quot;&amp;quot;},{&amp;quot;name&amp;quot;:&amp;quot;便笺&amp;quot;,&amp;quot;id&amp;quot;:&amp;quot;fnGVmowWEY199716&amp;quot;,&amp;quot;type&amp;quot;:&amp;quot;string&amp;quot;,&amp;quot;category&amp;quot;:&amp;quot;default&amp;quot;,&amp;quot;value&amp;quot;:&amp;quot;&amp;quot;}],&amp;quot;props&amp;quot;:{&amp;quot;zindex&amp;quot;:4,&amp;quot;w&amp;quot;:110,&amp;quot;x&amp;quot;:632.5,&amp;quot;h&amp;quot;:68,&amp;quot;y&amp;quot;:597,&amp;quot;angle&amp;quot;:0},&amp;quot;path&amp;quot;:[{&amp;quot;actions&amp;quot;:[{&amp;quot;x&amp;quot;:&amp;quot;Math.min(w,h)*0.29&amp;quot;,&amp;quot;action&amp;quot;:&amp;quot;move&amp;quot;,&amp;quot;y&amp;quot;:&amp;quot;0&amp;quot;},{&amp;quot;x&amp;quot;:&amp;quot;w-Math.min(w,h)*0.29&amp;quot;,&amp;quot;action&amp;quot;:&amp;quot;line&amp;quot;,&amp;quot;y&amp;quot;:&amp;quot;0&amp;quot;},{&amp;quot;x&amp;quot;:&amp;quot;w&amp;quot;,&amp;quot;action&amp;quot;:&amp;quot;line&amp;quot;,&amp;quot;y&amp;quot;:&amp;quot;h*0.29&amp;quot;},{&amp;quot;x&amp;quot;:&amp;quot;w&amp;quot;,&amp;quot;action&amp;quot;:&amp;quot;line&amp;quot;,&amp;quot;y&amp;quot;:&amp;quot;h*0.71&amp;quot;},{&amp;quot;x&amp;quot;:&amp;quot;w-Math.min(w,h)*0.29&amp;quot;,&amp;quot;action&amp;quot;:&amp;quot;line&amp;quot;,&amp;quot;y&amp;quot;:&amp;quot;h&amp;quot;},{&amp;quot;x&amp;quot;:&amp;quot;Math.min(w,h)*0.29&amp;quot;,&amp;quot;action&amp;quot;:&amp;quot;line&amp;quot;,&amp;quot;y&amp;quot;:&amp;quot;h&amp;quot;},{&amp;quot;x&amp;quot;:&amp;quot;0&amp;quot;,&amp;quot;action&amp;quot;:&amp;quot;line&amp;quot;,&amp;quot;y&amp;quot;:&amp;quot;h*0.71&amp;quot;},{&amp;quot;x&amp;quot;:&amp;quot;0&amp;quot;,&amp;quot;action&amp;quot;:&amp;quot;line&amp;quot;,&amp;quot;y&amp;quot;:&amp;quot;h*0.29&amp;quot;},{&amp;quot;action&amp;quot;:&amp;quot;close&amp;quot;}]}],&amp;quot;lineStyle&amp;quot;:{&amp;quot;lineWidth&amp;quot;:1.5},&amp;quot;children&amp;quot;:[],&amp;quot;resizeDir&amp;quot;:[&amp;quot;tl&amp;quot;,&amp;quot;tr&amp;quot;,&amp;quot;br&amp;quot;,&amp;quot;bl&amp;quot;,&amp;quot;l&amp;quot;,&amp;quot;t&amp;quot;,&amp;quot;r&amp;quot;,&amp;quot;b&amp;quot;],&amp;quot;name&amp;quot;:&amp;quot;octagon&amp;quot;,&amp;quot;fillStyle&amp;quot;:{},&amp;quot;theme&amp;quot;:{},&amp;quot;id&amp;quot;:&amp;quot;XCjjEeQEmT496668&amp;quot;,&amp;quot;attribute&amp;quot;:{&amp;quot;container&amp;quot;:false,&amp;quot;rotatable&amp;quot;:true,&amp;quot;visible&amp;quot;:true,&amp;quot;fixedLink&amp;quot;:false,&amp;quot;collapsable&amp;quot;:false,&amp;quot;collapsed&amp;quot;:false,&amp;quot;linkable&amp;quot;:true,&amp;quot;markerOffset&amp;quot;:5},&amp;quot;category&amp;quot;:&amp;quot;basic&amp;quot;,&amp;quot;locked&amp;quot;:false,&amp;quot;group&amp;quot;:&amp;quot;&amp;quot;},{&amp;quot;textBlock&amp;quot;:[],&amp;quot;props&amp;quot;:{&amp;quot;zindex&amp;quot;:5},&amp;quot;dataAttributes&amp;quot;:[],&amp;quot;points&amp;quot;:[{&amp;quot;x&amp;quot;:448,&amp;quot;y&amp;quot;:631}],&amp;quot;linkerType&amp;quot;:&amp;quot;broken&amp;quot;,&amp;quot;lineStyle&amp;quot;:{&amp;quot;lineWidth&amp;quot;:1.5},&amp;quot;name&amp;quot;:&amp;quot;linker&amp;quot;,&amp;quot;from&amp;quot;:{&amp;quot;x&amp;quot;:448,&amp;quot;y&amp;quot;:569.25,&amp;quot;angle&amp;quot;:4.71238898038469,&amp;quot;id&amp;quot;:&amp;quot;CzVwXZwMYd181285&amp;quot;},&amp;quot;to&amp;quot;:{&amp;quot;x&amp;quot;:632.5,&amp;quot;y&amp;quot;:631,&amp;quot;angle&amp;quot;:0,&amp;quot;id&amp;quot;:&amp;quot;XCjjEeQEmT496668&amp;quot;},&amp;quot;id&amp;quot;:&amp;quot;hVDNfOJtCN119423&amp;quot;,&amp;quot;text&amp;quot;:&amp;quot;&amp;quot;,&amp;quot;locked&amp;quot;:false,&amp;quot;group&amp;quot;:&amp;quot;&amp;quot;},{&amp;quot;textBlock&amp;quot;:[{&amp;quot;text&amp;quot;:&amp;quot;否&amp;quot;,&amp;quot;location&amp;quot;:0.5}],&amp;quot;props&amp;quot;:{&amp;quot;zindex&amp;quot;:6},&amp;quot;dataAttributes&amp;quot;:[],&amp;quot;points&amp;quot;:[{&amp;quot;x&amp;quot;:576,&amp;quot;y&amp;quot;:508},{&amp;quot;x&amp;quot;:576,&amp;quot;y&amp;quot;:508}],&amp;quot;linkerType&amp;quot;:&amp;quot;broken&amp;quot;,&amp;quot;lineStyle&amp;quot;:{&amp;quot;lineWidth&amp;quot;:1.5},&amp;quot;name&amp;quot;:&amp;quot;linker&amp;quot;,&amp;quot;from&amp;quot;:{&amp;quot;x&amp;quot;:532,&amp;quot;y&amp;quot;:508,&amp;quot;angle&amp;quot;:3.1415926535897936,&amp;quot;id&amp;quot;:&amp;quot;CzVwXZwMYd181285&amp;quot;},&amp;quot;textPos&amp;quot;:{&amp;quot;t&amp;quot;:20,&amp;quot;x&amp;quot;:591,&amp;quot;y&amp;quot;:289},&amp;quot;to&amp;quot;:{&amp;quot;x&amp;quot;:620,&amp;quot;y&amp;quot;:508,&amp;quot;angle&amp;quot;:0,&amp;quot;id&amp;quot;:&amp;quot;HuQzZFdPqZ196575&amp;quot;},&amp;quot;id&amp;quot;:&amp;quot;IRpHAfrGxO275720&amp;quot;,&amp;quot;text&amp;quot;:&amp;quot;否&amp;quot;,&amp;quot;locked&amp;quot;:false,&amp;quot;group&amp;quot;:&amp;quot;&amp;quot;},{&amp;quot;textBlock&amp;quot;:[{&amp;quot;text&amp;quot;:&amp;quot;是&amp;quot;,&amp;quot;location&amp;quot;:0.5912129894937918}],&amp;quot;props&amp;quot;:{&amp;quot;zindex&amp;quot;:7},&amp;quot;dataAttributes&amp;quot;:[],&amp;quot;points&amp;quot;:[{&amp;quot;x&amp;quot;:448,&amp;quot;y&amp;quot;:357,&amp;quot;fixed&amp;quot;:true}],&amp;quot;linkerType&amp;quot;:&amp;quot;broken&amp;quot;,&amp;quot;lineStyle&amp;quot;:{&amp;quot;lineWidth&amp;quot;:1.5},&amp;quot;name&amp;quot;:&amp;quot;linker&amp;quot;,&amp;quot;from&amp;quot;:{&amp;quot;x&amp;quot;:448,&amp;quot;y&amp;quot;:446.75,&amp;quot;angle&amp;quot;:1.5707963267948966,&amp;quot;id&amp;quot;:&amp;quot;CzVwXZwMYd181285&amp;quot;},&amp;quot;textPos&amp;quot;:{&amp;quot;t&amp;quot;:31,&amp;quot;x&amp;quot;:509.2,&amp;quot;y&amp;quot;:138},&amp;quot;to&amp;quot;:{&amp;quot;x&amp;quot;:616,&amp;quot;y&amp;quot;:357,&amp;quot;angle&amp;quot;:0,&amp;quot;id&amp;quot;:&amp;quot;puZtoSxKfk606950&amp;quot;},&amp;quot;id&amp;quot;:&amp;quot;LOiPZKRezY249493&amp;quot;,&amp;quot;text&amp;quot;:&amp;quot;是&amp;quot;,&amp;quot;locked&amp;quot;:false,&amp;quot;group&amp;quot;:&amp;quot;&amp;quot;},{&amp;quot;parent&amp;quot;:&amp;quot;&amp;quot;,&amp;quot;link&amp;quot;:&amp;quot;&amp;quot;,&amp;quot;shapeStyle&amp;quot;:{&amp;quot;alpha&amp;quot;:1},&amp;quot;textBlock&amp;quot;:[{&amp;quot;position&amp;quot;:{&amp;quot;w&amp;quot;:&amp;quot;w-20&amp;quot;,&amp;quot;x&amp;quot;:10,&amp;quot;h&amp;quot;:&amp;quot;h&amp;quot;,&amp;quot;y&amp;quot;:0},&amp;quot;text&amp;quot;:&amp;quot;将用户问题直接发给大模型&amp;quot;}],&amp;quot;anchors&amp;quot;:[{&amp;quot;x&amp;quot;:&amp;quot;w/2&amp;quot;,&amp;quot;y&amp;quot;:&amp;quot;0&amp;quot;},{&amp;quot;x&amp;quot;:&amp;quot;w/2&amp;quot;,&amp;quot;y&amp;quot;:&amp;quot;h&amp;quot;},{&amp;quot;x&amp;quot;:&amp;quot;0&amp;quot;,&amp;quot;y&amp;quot;:&amp;quot;h/2&amp;quot;},{&amp;quot;x&amp;quot;:&amp;quot;w&amp;quot;,&amp;quot;y&amp;quot;:&amp;quot;h/2&amp;quot;}],&amp;quot;title&amp;quot;:&amp;quot;矩形&amp;quot;,&amp;quot;fontStyle&amp;quot;:{},&amp;quot;dataAttributes&amp;quot;:[{&amp;quot;name&amp;quot;:&amp;quot;序号&amp;quot;,&amp;quot;id&amp;quot;:&amp;quot;DuAWMgVzKQ009525&amp;quot;,&amp;quot;type&amp;quot;:&amp;quot;number&amp;quot;,&amp;quot;category&amp;quot;:&amp;quot;default&amp;quot;,&amp;quot;value&amp;quot;:&amp;quot;&amp;quot;},{&amp;quot;name&amp;quot;:&amp;quot;名称&amp;quot;,&amp;quot;id&amp;quot;:&amp;quot;tusJKJreBH308820&amp;quot;,&amp;quot;type&amp;quot;:&amp;quot;string&amp;quot;,&amp;quot;category&amp;quot;:&amp;quot;default&amp;quot;,&amp;quot;value&amp;quot;:&amp;quot;&amp;quot;},{&amp;quot;name&amp;quot;:&amp;quot;所有者&amp;quot;,&amp;quot;id&amp;quot;:&amp;quot;dymGhefhxj761975&amp;quot;,&amp;quot;type&amp;quot;:&amp;quot;string&amp;quot;,&amp;quot;category&amp;quot;:&amp;quot;default&amp;quot;,&amp;quot;value&amp;quot;:&amp;quot;&amp;quot;},{&amp;quot;name&amp;quot;:&amp;quot;连接&amp;quot;,&amp;quot;id&amp;quot;:&amp;quot;isnrsARQhV554905&amp;quot;,&amp;quot;type&amp;quot;:&amp;quot;link&amp;quot;,&amp;quot;category&amp;quot;:&amp;quot;default&amp;quot;,&amp;quot;value&amp;quot;:&amp;quot;&amp;quot;},{&amp;quot;name&amp;quot;:&amp;quot;便笺&amp;quot;,&amp;quot;id&amp;quot;:&amp;quot;SOgpNLJcUn726732&amp;quot;,&amp;quot;type&amp;quot;:&amp;quot;string&amp;quot;,&amp;quot;category&amp;quot;:&amp;quot;default&amp;quot;,&amp;quot;value&amp;quot;:&amp;quot;&amp;quot;}],&amp;quot;props&amp;quot;:{&amp;quot;zindex&amp;quot;:8,&amp;quot;w&amp;quot;:135,&amp;quot;x&amp;quot;:620,&amp;quot;h&amp;quot;:85,&amp;quot;y&amp;quot;:465.5,&amp;quot;angle&amp;quot;:0},&amp;quot;path&amp;quot;:[{&amp;quot;actions&amp;quot;:[{&amp;quot;x&amp;quot;:&amp;quot;0&amp;quot;,&amp;quot;action&amp;quot;:&amp;quot;move&amp;quot;,&amp;quot;y&amp;quot;:&amp;quot;0&amp;quot;},{&amp;quot;x&amp;quot;:&amp;quot;w&amp;quot;,&amp;quot;action&amp;quot;:&amp;quot;line&amp;quot;,&amp;quot;y&amp;quot;:&amp;quot;0&amp;quot;},{&amp;quot;x&amp;quot;:&amp;quot;w&amp;quot;,&amp;quot;action&amp;quot;:&amp;quot;line&amp;quot;,&amp;quot;y&amp;quot;:&amp;quot;h&amp;quot;},{&amp;quot;x&amp;quot;:&amp;quot;0&amp;quot;,&amp;quot;action&amp;quot;:&amp;quot;line&amp;quot;,&amp;quot;y&amp;quot;:&amp;quot;h&amp;quot;},{&amp;quot;action&amp;quot;:&amp;quot;close&amp;quot;}]}],&amp;quot;lineStyle&amp;quot;:{&amp;quot;lineWidth&amp;quot;:1.5},&amp;quot;children&amp;quot;:[],&amp;quot;resizeDir&amp;quot;:[&amp;quot;tl&amp;quot;,&amp;quot;tr&amp;quot;,&amp;quot;br&amp;quot;,&amp;quot;bl&amp;quot;,&amp;quot;l&amp;quot;,&amp;quot;t&amp;quot;,&amp;quot;r&amp;quot;,&amp;quot;b&amp;quot;],&amp;quot;name&amp;quot;:&amp;quot;rectangle&amp;quot;,&amp;quot;fillStyle&amp;quot;:{},&amp;quot;theme&amp;quot;:{},&amp;quot;id&amp;quot;:&amp;quot;HuQzZFdPqZ196575&amp;quot;,&amp;quot;attribute&amp;quot;:{&amp;quot;container&amp;quot;:false,&amp;quot;rotatable&amp;quot;:true,&amp;quot;visible&amp;quot;:true,&amp;quot;fixedLink&amp;quot;:false,&amp;quot;collapsable&amp;quot;:false,&amp;quot;collapsed&amp;quot;:false,&amp;quot;linkable&amp;quot;:true,&amp;quot;markerOffset&amp;quot;:5},&amp;quot;category&amp;quot;:&amp;quot;basic&amp;quot;,&amp;quot;locked&amp;quot;:false,&amp;quot;group&amp;quot;:&amp;quot;&amp;quot;},{&amp;quot;textBlock&amp;quot;:[],&amp;quot;props&amp;quot;:{&amp;quot;zindex&amp;quot;:9},&amp;quot;dataAttributes&amp;quot;:[],&amp;quot;points&amp;quot;:[{&amp;quot;x&amp;quot;:687.5,&amp;quot;y&amp;quot;:573.75},{&amp;quot;x&amp;quot;:687.5,&amp;quot;y&amp;quot;:573.75}],&amp;quot;linkerType&amp;quot;:&amp;quot;broken&amp;quot;,&amp;quot;lineStyle&amp;quot;:{&amp;quot;lineWidth&amp;quot;:1.5},&amp;quot;name&amp;quot;:&amp;quot;linker&amp;quot;,&amp;quot;from&amp;quot;:{&amp;quot;x&amp;quot;:687.5,&amp;quot;y&amp;quot;:550.5,&amp;quot;angle&amp;quot;:4.71238898038469,&amp;quot;id&amp;quot;:&amp;quot;HuQzZFdPqZ196575&amp;quot;},&amp;quot;to&amp;quot;:{&amp;quot;x&amp;quot;:687.5,&amp;quot;y&amp;quot;:597,&amp;quot;angle&amp;quot;:1.570796326794897,&amp;quot;id&amp;quot;:&amp;quot;XCjjEeQEmT496668&amp;quot;},&amp;quot;id&amp;quot;:&amp;quot;rVHtcfyYjG441417&amp;quot;,&amp;quot;text&amp;quot;:&amp;quot;&amp;quot;,&amp;quot;locked&amp;quot;:false,&amp;quot;group&amp;quot;:&amp;quot;&amp;quot;},{&amp;quot;textBlock&amp;quot;:[],&amp;quot;props&amp;quot;:{&amp;quot;zindex&amp;quot;:10},&amp;quot;dataAttributes&amp;quot;:[],&amp;quot;points&amp;quot;:[{&amp;quot;x&amp;quot;:839,&amp;quot;y&amp;quot;:508},{&amp;quot;x&amp;quot;:839,&amp;quot;y&amp;quot;:508}],&amp;quot;linkerType&amp;quot;:&amp;quot;broken&amp;quot;,&amp;quot;lineStyle&amp;quot;:{&amp;quot;lineWidth&amp;quot;:1.5},&amp;quot;name&amp;quot;:&amp;quot;linker&amp;quot;,&amp;quot;from&amp;quot;:{&amp;quot;x&amp;quot;:755,&amp;quot;y&amp;quot;:508,&amp;quot;angle&amp;quot;:3.1415926535897936,&amp;quot;id&amp;quot;:&amp;quot;HuQzZFdPqZ196575&amp;quot;},&amp;quot;to&amp;quot;:{&amp;quot;x&amp;quot;:923,&amp;quot;y&amp;quot;:508,&amp;quot;angle&amp;quot;:0,&amp;quot;id&amp;quot;:&amp;quot;CAZxCGrHzR752180&amp;quot;},&amp;quot;id&amp;quot;:&amp;quot;miSTFCMyqz294208&amp;quot;,&amp;quot;text&amp;quot;:&amp;quot;&amp;quot;,&amp;quot;locked&amp;quot;:false,&amp;quot;group&amp;quot;:&amp;quot;&amp;quot;},{&amp;quot;parent&amp;quot;:&amp;quot;&amp;quot;,&amp;quot;link&amp;quot;:&amp;quot;&amp;quot;,&amp;quot;shapeStyle&amp;quot;:{&amp;quot;alpha&amp;quot;:1},&amp;quot;textBlock&amp;quot;:[{&amp;quot;position&amp;quot;:{&amp;quot;w&amp;quot;:&amp;quot;w-20&amp;quot;,&amp;quot;x&amp;quot;:10,&amp;quot;h&amp;quot;:&amp;quot;h&amp;quot;,&amp;quot;y&amp;quot;:0},&amp;quot;text&amp;quot;:&amp;quot;模型返回内容给用户&amp;quot;}],&amp;quot;anchors&amp;quot;:[{&amp;quot;x&amp;quot;:&amp;quot;w/2&amp;quot;,&amp;quot;y&amp;quot;:&amp;quot;0&amp;quot;},{&amp;quot;x&amp;quot;:&amp;quot;w/2&amp;quot;,&amp;quot;y&amp;quot;:&amp;quot;h&amp;quot;},{&amp;quot;x&amp;quot;:&amp;quot;0&amp;quot;,&amp;quot;y&amp;quot;:&amp;quot;h/2&amp;quot;},{&amp;quot;x&amp;quot;:&amp;quot;w&amp;quot;,&amp;quot;y&amp;quot;:&amp;quot;h/2&amp;quot;}],&amp;quot;title&amp;quot;:&amp;quot;矩形&amp;quot;,&amp;quot;fontStyle&amp;quot;:{},&amp;quot;dataAttributes&amp;quot;:[{&amp;quot;name&amp;quot;:&amp;quot;序号&amp;quot;,&amp;quot;id&amp;quot;:&amp;quot;JhoGgUZocb637938&amp;quot;,&amp;quot;type&amp;quot;:&amp;quot;number&amp;quot;,&amp;quot;category&amp;quot;:&amp;quot;default&amp;quot;,&amp;quot;value&amp;quot;:&amp;quot;&amp;quot;},{&amp;quot;name&amp;quot;:&amp;quot;名称&amp;quot;,&amp;quot;id&amp;quot;:&amp;quot;tFvcNPisNO122799&amp;quot;,&amp;quot;type&amp;quot;:&amp;quot;string&amp;quot;,&amp;quot;category&amp;quot;:&amp;quot;default&amp;quot;,&amp;quot;value&amp;quot;:&amp;quot;&amp;quot;},{&amp;quot;name&amp;quot;:&amp;quot;所有者&amp;quot;,&amp;quot;id&amp;quot;:&amp;quot;BQdqdGWxEi572660&amp;quot;,&amp;quot;type&amp;quot;:&amp;quot;string&amp;quot;,&amp;quot;category&amp;quot;:&amp;quot;default&amp;quot;,&amp;quot;value&amp;quot;:&amp;quot;&amp;quot;},{&amp;quot;name&amp;quot;:&amp;quot;连接&amp;quot;,&amp;quot;id&amp;quot;:&amp;quot;WiTSQnCjKZ483462&amp;quot;,&amp;quot;type&amp;quot;:&amp;quot;link&amp;quot;,&amp;quot;category&amp;quot;:&amp;quot;default&amp;quot;,&amp;quot;value&amp;quot;:&amp;quot;&amp;quot;},{&amp;quot;name&amp;quot;:&amp;quot;便笺&amp;quot;,&amp;quot;id&amp;quot;:&amp;quot;mJEaZlcSKT891777&amp;quot;,&amp;quot;type&amp;quot;:&amp;quot;string&amp;quot;,&amp;quot;category&amp;quot;:&amp;quot;default&amp;quot;,&amp;quot;value&amp;quot;:&amp;quot;&amp;quot;}],&amp;quot;props&amp;quot;:{&amp;quot;zindex&amp;quot;:11,&amp;quot;w&amp;quot;:96,&amp;quot;x&amp;quot;:923,&amp;quot;h&amp;quot;:54,&amp;quot;y&amp;quot;:481,&amp;quot;angle&amp;quot;:0},&amp;quot;path&amp;quot;:[{&amp;quot;actions&amp;quot;:[{&amp;quot;x&amp;quot;:&amp;quot;0&amp;quot;,&amp;quot;action&amp;quot;:&amp;quot;move&amp;quot;,&amp;quot;y&amp;quot;:&amp;quot;0&amp;quot;},{&amp;quot;x&amp;quot;:&amp;quot;w&amp;quot;,&amp;quot;action&amp;quot;:&amp;quot;line&amp;quot;,&amp;quot;y&amp;quot;:&amp;quot;0&amp;quot;},{&amp;quot;x&amp;quot;:&amp;quot;w&amp;quot;,&amp;quot;action&amp;quot;:&amp;quot;line&amp;quot;,&amp;quot;y&amp;quot;:&amp;quot;h&amp;quot;},{&amp;quot;x&amp;quot;:&amp;quot;0&amp;quot;,&amp;quot;action&amp;quot;:&amp;quot;line&amp;quot;,&amp;quot;y&amp;quot;:&amp;quot;h&amp;quot;},{&amp;quot;action&amp;quot;:&amp;quot;close&amp;quot;}]}],&amp;quot;lineStyle&amp;quot;:{&amp;quot;lineWidth&amp;quot;:1.5},&amp;quot;children&amp;quot;:[],&amp;quot;resizeDir&amp;quot;:[&amp;quot;tl&amp;quot;,&amp;quot;tr&amp;quot;,&amp;quot;br&amp;quot;,&amp;quot;bl&amp;quot;,&amp;quot;l&amp;quot;,&amp;quot;t&amp;quot;,&amp;quot;r&amp;quot;,&amp;quot;b&amp;quot;],&amp;quot;name&amp;quot;:&amp;quot;rectangle&amp;quot;,&amp;quot;fillStyle&amp;quot;:{},&amp;quot;theme&amp;quot;:{},&amp;quot;id&amp;quot;:&amp;quot;CAZxCGrHzR752180&amp;quot;,&amp;quot;attribute&amp;quot;:{&amp;quot;container&amp;quot;:false,&amp;quot;rotatable&amp;quot;:true,&amp;quot;visible&amp;quot;:true,&amp;quot;fixedLink&amp;quot;:false,&amp;quot;collapsable&amp;quot;:false,&amp;quot;collapsed&amp;quot;:false,&amp;quot;linkable&amp;quot;:true,&amp;quot;markerOffset&amp;quot;:5},&amp;quot;category&amp;quot;:&amp;quot;basic&amp;quot;,&amp;quot;locked&amp;quot;:false,&amp;quot;group&amp;quot;:&amp;quot;&amp;quot;},{&amp;quot;parent&amp;quot;:&amp;quot;&amp;quot;,&amp;quot;link&amp;quot;:&amp;quot;&amp;quot;,&amp;quot;shapeStyle&amp;quot;:{&amp;quot;alpha&amp;quot;:1},&amp;quot;textBlock&amp;quot;:[{&amp;quot;position&amp;quot;:{&amp;quot;w&amp;quot;:&amp;quot;w-20&amp;quot;,&amp;quot;x&amp;quot;:10,&amp;quot;h&amp;quot;:&amp;quot;h&amp;quot;,&amp;quot;y&amp;quot;:0},&amp;quot;text&amp;quot;:&amp;quot;调用embedding模型去检索知识库（混合检索）&amp;quot;}],&amp;quot;anchors&amp;quot;:[{&amp;quot;x&amp;quot;:&amp;quot;w/2&amp;quot;,&amp;quot;y&amp;quot;:&amp;quot;0&amp;quot;},{&amp;quot;x&amp;quot;:&amp;quot;w/2&amp;quot;,&amp;quot;y&amp;quot;:&amp;quot;h&amp;quot;},{&amp;quot;x&amp;quot;:&amp;quot;0&amp;quot;,&amp;quot;y&amp;quot;:&amp;quot;h/2&amp;quot;},{&amp;quot;x&amp;quot;:&amp;quot;w&amp;quot;,&amp;quot;y&amp;quot;:&amp;quot;h/2&amp;quot;}],&amp;quot;title&amp;quot;:&amp;quot;矩形&amp;quot;,&amp;quot;fontStyle&amp;quot;:{},&amp;quot;dataAttributes&amp;quot;:[{&amp;quot;name&amp;quot;:&amp;quot;序号&amp;quot;,&amp;quot;id&amp;quot;:&amp;quot;OAGjPTHsqo317055&amp;quot;,&amp;quot;type&amp;quot;:&amp;quot;number&amp;quot;,&amp;quot;category&amp;quot;:&amp;quot;default&amp;quot;,&amp;quot;value&amp;quot;:&amp;quot;&amp;quot;},{&amp;quot;name&amp;quot;:&amp;quot;名称&amp;quot;,&amp;quot;id&amp;quot;:&amp;quot;WHjnHrALcy925704&amp;quot;,&amp;quot;type&amp;quot;:&amp;quot;string&amp;quot;,&amp;quot;category&amp;quot;:&amp;quot;default&amp;quot;,&amp;quot;value&amp;quot;:&amp;quot;&amp;quot;},{&amp;quot;name&amp;quot;:&amp;quot;所有者&amp;quot;,&amp;quot;id&amp;quot;:&amp;quot;NJUqUxXLJP691185&amp;quot;,&amp;quot;type&amp;quot;:&amp;quot;string&amp;quot;,&amp;quot;category&amp;quot;:&amp;quot;default&amp;quot;,&amp;quot;value&amp;quot;:&amp;quot;&amp;quot;},{&amp;quot;name&amp;quot;:&amp;quot;连接&amp;quot;,&amp;quot;id&amp;quot;:&amp;quot;yfTOnsAshu765169&amp;quot;,&amp;quot;type&amp;quot;:&amp;quot;link&amp;quot;,&amp;quot;category&amp;quot;:&amp;quot;default&amp;quot;,&amp;quot;value&amp;quot;:&amp;quot;&amp;quot;},{&amp;quot;name&amp;quot;:&amp;quot;便笺&amp;quot;,&amp;quot;id&amp;quot;:&amp;quot;SsUlYgzMGN562017&amp;quot;,&amp;quot;type&amp;quot;:&amp;quot;string&amp;quot;,&amp;quot;category&amp;quot;:&amp;quot;default&amp;quot;,&amp;quot;value&amp;quot;:&amp;quot;&amp;quot;}],&amp;quot;props&amp;quot;:{&amp;quot;zindex&amp;quot;:12,&amp;quot;w&amp;quot;:135,&amp;quot;x&amp;quot;:616,&amp;quot;h&amp;quot;:80,&amp;quot;y&amp;quot;:317,&amp;quot;angle&amp;quot;:0},&amp;quot;path&amp;quot;:[{&amp;quot;actions&amp;quot;:[{&amp;quot;x&amp;quot;:&amp;quot;0&amp;quot;,&amp;quot;action&amp;quot;:&amp;quot;move&amp;quot;,&amp;quot;y&amp;quot;:&amp;quot;0&amp;quot;},{&amp;quot;x&amp;quot;:&amp;quot;w&amp;quot;,&amp;quot;action&amp;quot;:&amp;quot;line&amp;quot;,&amp;quot;y&amp;quot;:&amp;quot;0&amp;quot;},{&amp;quot;x&amp;quot;:&amp;quot;w&amp;quot;,&amp;quot;action&amp;quot;:&amp;quot;line&amp;quot;,&amp;quot;y&amp;quot;:&amp;quot;h&amp;quot;},{&amp;quot;x&amp;quot;:&amp;quot;0&amp;quot;,&amp;quot;action&amp;quot;:&amp;quot;line&amp;quot;,&amp;quot;y&amp;quot;:&amp;quot;h&amp;quot;},{&amp;quot;action&amp;quot;:&amp;quot;close&amp;quot;}]}],&amp;quot;lineStyle&amp;quot;:{&amp;quot;lineWidth&amp;quot;:1.5},&amp;quot;children&amp;quot;:[],&amp;quot;resizeDir&amp;quot;:[&amp;quot;tl&amp;quot;,&amp;quot;tr&amp;quot;,&amp;quot;br&amp;quot;,&amp;quot;bl&amp;quot;,&amp;quot;l&amp;quot;,&amp;quot;t&amp;quot;,&amp;quot;r&amp;quot;,&amp;quot;b&amp;quot;],&amp;quot;name&amp;quot;:&amp;quot;rectangle&amp;quot;,&amp;quot;fillStyle&amp;quot;:{},&amp;quot;theme&amp;quot;:{},&amp;quot;id&amp;quot;:&amp;quot;puZtoSxKfk606950&amp;quot;,&amp;quot;attribute&amp;quot;:{&amp;quot;container&amp;quot;:false,&amp;quot;rotatable&amp;quot;:true,&amp;quot;visible&amp;quot;:true,&amp;quot;fixedLink&amp;quot;:false,&amp;quot;collapsable&amp;quot;:false,&amp;quot;collapsed&amp;quot;:false,&amp;quot;linkable&amp;quot;:true,&amp;quot;markerOffset&amp;quot;:5},&amp;quot;category&amp;quot;:&amp;quot;basic&amp;quot;,&amp;quot;locked&amp;quot;:false,&amp;quot;group&amp;quot;:&amp;quot;&amp;quot;},{&amp;quot;parent&amp;quot;:&amp;quot;&amp;quot;,&amp;quot;link&amp;quot;:&amp;quot;&amp;quot;,&amp;quot;shapeStyle&amp;quot;:{&amp;quot;alpha&amp;quot;:1},&amp;quot;textBlock&amp;quot;:[{&amp;quot;position&amp;quot;:{&amp;quot;w&amp;quot;:&amp;quot;w-20&amp;quot;,&amp;quot;x&amp;quot;:&amp;quot;10&amp;quot;,&amp;quot;h&amp;quot;:&amp;quot;h-20&amp;quot;,&amp;quot;y&amp;quot;:&amp;quot;10&amp;quot;},&amp;quot;text&amp;quot;:&amp;quot;embedding模型&amp;quot;}],&amp;quot;anchors&amp;quot;:[{&amp;quot;x&amp;quot;:&amp;quot;w/2&amp;quot;,&amp;quot;y&amp;quot;:&amp;quot;0&amp;quot;},{&amp;quot;x&amp;quot;:&amp;quot;w/2&amp;quot;,&amp;quot;y&amp;quot;:&amp;quot;h&amp;quot;},{&amp;quot;x&amp;quot;:&amp;quot;0&amp;quot;,&amp;quot;y&amp;quot;:&amp;quot;h/2&amp;quot;},{&amp;quot;x&amp;quot;:&amp;quot;w&amp;quot;,&amp;quot;y&amp;quot;:&amp;quot;h/2&amp;quot;}],&amp;quot;title&amp;quot;:&amp;quot;八边形&amp;quot;,&amp;quot;fontStyle&amp;quot;:{},&amp;quot;dataAttributes&amp;quot;:[{&amp;quot;name&amp;quot;:&amp;quot;序号&amp;quot;,&amp;quot;id&amp;quot;:&amp;quot;iYaYUyOMBv274101&amp;quot;,&amp;quot;type&amp;quot;:&amp;quot;number&amp;quot;,&amp;quot;category&amp;quot;:&amp;quot;default&amp;quot;,&amp;quot;value&amp;quot;:&amp;quot;&amp;quot;},{&amp;quot;name&amp;quot;:&amp;quot;名称&amp;quot;,&amp;quot;id&amp;quot;:&amp;quot;loGsGlnJgy588960&amp;quot;,&amp;quot;type&amp;quot;:&amp;quot;string&amp;quot;,&amp;quot;category&amp;quot;:&amp;quot;default&amp;quot;,&amp;quot;value&amp;quot;:&amp;quot;&amp;quot;},{&amp;quot;name&amp;quot;:&amp;quot;所有者&amp;quot;,&amp;quot;id&amp;quot;:&amp;quot;eLsKVjbKxB286939&amp;quot;,&amp;quot;type&amp;quot;:&amp;quot;string&amp;quot;,&amp;quot;category&amp;quot;:&amp;quot;default&amp;quot;,&amp;quot;value&amp;quot;:&amp;quot;&amp;quot;},{&amp;quot;name&amp;quot;:&amp;quot;连接&amp;quot;,&amp;quot;id&amp;quot;:&amp;quot;vbcRDTriqo942459&amp;quot;,&amp;quot;type&amp;quot;:&amp;quot;link&amp;quot;,&amp;quot;category&amp;quot;:&amp;quot;default&amp;quot;,&amp;quot;value&amp;quot;:&amp;quot;&amp;quot;},{&amp;quot;name&amp;quot;:&amp;quot;便笺&amp;quot;,&amp;quot;id&amp;quot;:&amp;quot;LVFHlQDFhT649371&amp;quot;,&amp;quot;type&amp;quot;:&amp;quot;string&amp;quot;,&amp;quot;category&amp;quot;:&amp;quot;default&amp;quot;,&amp;quot;value&amp;quot;:&amp;quot;&amp;quot;}],&amp;quot;props&amp;quot;:{&amp;quot;zindex&amp;quot;:13,&amp;quot;w&amp;quot;:121.5,&amp;quot;x&amp;quot;:469.5,&amp;quot;h&amp;quot;:79,&amp;quot;y&amp;quot;:206,&amp;quot;angle&amp;quot;:0},&amp;quot;path&amp;quot;:[{&amp;quot;actions&amp;quot;:[{&amp;quot;x&amp;quot;:&amp;quot;Math.min(w,h)*0.29&amp;quot;,&amp;quot;action&amp;quot;:&amp;quot;move&amp;quot;,&amp;quot;y&amp;quot;:&amp;quot;0&amp;quot;},{&amp;quot;x&amp;quot;:&amp;quot;w-Math.min(w,h)*0.29&amp;quot;,&amp;quot;action&amp;quot;:&amp;quot;line&amp;quot;,&amp;quot;y&amp;quot;:&amp;quot;0&amp;quot;},{&amp;quot;x&amp;quot;:&amp;quot;w&amp;quot;,&amp;quot;action&amp;quot;:&amp;quot;line&amp;quot;,&amp;quot;y&amp;quot;:&amp;quot;h*0.29&amp;quot;},{&amp;quot;x&amp;quot;:&amp;quot;w&amp;quot;,&amp;quot;action&amp;quot;:&amp;quot;line&amp;quot;,&amp;quot;y&amp;quot;:&amp;quot;h*0.71&amp;quot;},{&amp;quot;x&amp;quot;:&amp;quot;w-Math.min(w,h)*0.29&amp;quot;,&amp;quot;action&amp;quot;:&amp;quot;line&amp;quot;,&amp;quot;y&amp;quot;:&amp;quot;h&amp;quot;},{&amp;quot;x&amp;quot;:&amp;quot;Math.min(w,h)*0.29&amp;quot;,&amp;quot;action&amp;quot;:&amp;quot;line&amp;quot;,&amp;quot;y&amp;quot;:&amp;quot;h&amp;quot;},{&amp;quot;x&amp;quot;:&amp;quot;0&amp;quot;,&amp;quot;action&amp;quot;:&amp;quot;line&amp;quot;,&amp;quot;y&amp;quot;:&amp;quot;h*0.71&amp;quot;},{&amp;quot;x&amp;quot;:&amp;quot;0&amp;quot;,&amp;quot;action&amp;quot;:&amp;quot;line&amp;quot;,&amp;quot;y&amp;quot;:&amp;quot;h*0.29&amp;quot;},{&amp;quot;action&amp;quot;:&amp;quot;close&amp;quot;}]}],&amp;quot;lineStyle&amp;quot;:{&amp;quot;lineWidth&amp;quot;:1.5},&amp;quot;children&amp;quot;:[],&amp;quot;resizeDir&amp;quot;:[&amp;quot;tl&amp;quot;,&amp;quot;tr&amp;quot;,&amp;quot;br&amp;quot;,&amp;quot;bl&amp;quot;,&amp;quot;l&amp;quot;,&amp;quot;t&amp;quot;,&amp;quot;r&amp;quot;,&amp;quot;b&amp;quot;],&amp;quot;name&amp;quot;:&amp;quot;octagon&amp;quot;,&amp;quot;fillStyle&amp;quot;:{},&amp;quot;theme&amp;quot;:{},&amp;quot;id&amp;quot;:&amp;quot;MXdzUICrNB032429&amp;quot;,&amp;quot;attribute&amp;quot;:{&amp;quot;container&amp;quot;:false,&amp;quot;rotatable&amp;quot;:true,&amp;quot;visible&amp;quot;:true,&amp;quot;fixedLink&amp;quot;:false,&amp;quot;collapsable&amp;quot;:false,&amp;quot;collapsed&amp;quot;:false,&amp;quot;linkable&amp;quot;:true,&amp;quot;markerOffset&amp;quot;:5},&amp;quot;category&amp;quot;:&amp;quot;basic&amp;quot;,&amp;quot;locked&amp;quot;:false,&amp;quot;group&amp;quot;:&amp;quot;&amp;quot;},{&amp;quot;textBlock&amp;quot;:[],&amp;quot;props&amp;quot;:{&amp;quot;zindex&amp;quot;:14},&amp;quot;dataAttributes&amp;quot;:[],&amp;quot;points&amp;quot;:[{&amp;quot;x&amp;quot;:683.5,&amp;quot;y&amp;quot;:245.5}],&amp;quot;linkerType&amp;quot;:&amp;quot;broken&amp;quot;,&amp;quot;lineStyle&amp;quot;:{&amp;quot;lineWidth&amp;quot;:1.5},&amp;quot;name&amp;quot;:&amp;quot;linker&amp;quot;,&amp;quot;from&amp;quot;:{&amp;quot;x&amp;quot;:683.5,&amp;quot;y&amp;quot;:317,&amp;quot;angle&amp;quot;:1.570796326794897,&amp;quot;id&amp;quot;:&amp;quot;puZtoSxKfk606950&amp;quot;},&amp;quot;to&amp;quot;:{&amp;quot;x&amp;quot;:591,&amp;quot;y&amp;quot;:245.5,&amp;quot;angle&amp;quot;:3.1415926535897936,&amp;quot;id&amp;quot;:&amp;quot;MXdzUICrNB032429&amp;quot;},&amp;quot;id&amp;quot;:&amp;quot;XFGxpeuIfg249862&amp;quot;,&amp;quot;text&amp;quot;:&amp;quot;&amp;quot;,&amp;quot;locked&amp;quot;:false,&amp;quot;group&amp;quot;:&amp;quot;&amp;quot;},{&amp;quot;parent&amp;quot;:&amp;quot;&amp;quot;,&amp;quot;link&amp;quot;:&amp;quot;&amp;quot;,&amp;quot;shapeStyle&amp;quot;:{&amp;quot;alpha&amp;quot;:1},&amp;quot;textBlock&amp;quot;:[{&amp;quot;position&amp;quot;:{&amp;quot;w&amp;quot;:&amp;quot;w&amp;quot;,&amp;quot;x&amp;quot;:&amp;quot;0&amp;quot;,&amp;quot;h&amp;quot;:&amp;quot;h*0.8&amp;quot;,&amp;quot;y&amp;quot;:&amp;quot;0&amp;quot;},&amp;quot;text&amp;quot;:&amp;quot;东北知识库&amp;quot;}],&amp;quot;anchors&amp;quot;:[{&amp;quot;x&amp;quot;:&amp;quot;w/2&amp;quot;,&amp;quot;y&amp;quot;:&amp;quot;0&amp;quot;},{&amp;quot;x&amp;quot;:&amp;quot;w/2&amp;quot;,&amp;quot;y&amp;quot;:&amp;quot;h&amp;quot;},{&amp;quot;x&amp;quot;:&amp;quot;0&amp;quot;,&amp;quot;y&amp;quot;:&amp;quot;h/2&amp;quot;},{&amp;quot;x&amp;quot;:&amp;quot;w&amp;quot;,&amp;quot;y&amp;quot;:&amp;quot;h/2&amp;quot;}],&amp;quot;title&amp;quot;:&amp;quot;数据库&amp;quot;,&amp;quot;fontStyle&amp;quot;:{},&amp;quot;dataAttributes&amp;quot;:[{&amp;quot;name&amp;quot;:&amp;quot;序号&amp;quot;,&amp;quot;id&amp;quot;:&amp;quot;HOgIJgcBOS261199&amp;quot;,&amp;quot;type&amp;quot;:&amp;quot;number&amp;quot;,&amp;quot;category&amp;quot;:&amp;quot;default&amp;quot;,&amp;quot;value&amp;quot;:&amp;quot;&amp;quot;},{&amp;quot;name&amp;quot;:&amp;quot;名称&amp;quot;,&amp;quot;id&amp;quot;:&amp;quot;msqadPDWMq573754&amp;quot;,&amp;quot;type&amp;quot;:&amp;quot;string&amp;quot;,&amp;quot;category&amp;quot;:&amp;quot;default&amp;quot;,&amp;quot;value&amp;quot;:&amp;quot;&amp;quot;},{&amp;quot;name&amp;quot;:&amp;quot;所有者&amp;quot;,&amp;quot;id&amp;quot;:&amp;quot;ggeGtGoNaj210936&amp;quot;,&amp;quot;type&amp;quot;:&amp;quot;string&amp;quot;,&amp;quot;category&amp;quot;:&amp;quot;default&amp;quot;,&amp;quot;value&amp;quot;:&amp;quot;&amp;quot;},{&amp;quot;name&amp;quot;:&amp;quot;连接&amp;quot;,&amp;quot;id&amp;quot;:&amp;quot;ZeDnXntZEL318362&amp;quot;,&amp;quot;type&amp;quot;:&amp;quot;link&amp;quot;,&amp;quot;category&amp;quot;:&amp;quot;default&amp;quot;,&amp;quot;value&amp;quot;:&amp;quot;&amp;quot;},{&amp;quot;name&amp;quot;:&amp;quot;便笺&amp;quot;,&amp;quot;id&amp;quot;:&amp;quot;FRuEqxCUWI917044&amp;quot;,&amp;quot;type&amp;quot;:&amp;quot;string&amp;quot;,&amp;quot;category&amp;quot;:&amp;quot;default&amp;quot;,&amp;quot;value&amp;quot;:&amp;quot;&amp;quot;},{&amp;quot;name&amp;quot;:&amp;quot;成本&amp;quot;,&amp;quot;id&amp;quot;:&amp;quot;CKkUcixkpS746056&amp;quot;,&amp;quot;type&amp;quot;:&amp;quot;number&amp;quot;,&amp;quot;category&amp;quot;:&amp;quot;default&amp;quot;,&amp;quot;value&amp;quot;:&amp;quot;&amp;quot;},{&amp;quot;name&amp;quot;:&amp;quot;时间&amp;quot;,&amp;quot;id&amp;quot;:&amp;quot;pcjCpOVNEo082090&amp;quot;,&amp;quot;type&amp;quot;:&amp;quot;number&amp;quot;,&amp;quot;category&amp;quot;:&amp;quot;default&amp;quot;,&amp;quot;value&amp;quot;:&amp;quot;&amp;quot;},{&amp;quot;name&amp;quot;:&amp;quot;部门&amp;quot;,&amp;quot;id&amp;quot;:&amp;quot;xPAtdJaedz810809&amp;quot;,&amp;quot;type&amp;quot;:&amp;quot;string&amp;quot;,&amp;quot;category&amp;quot;:&amp;quot;default&amp;quot;,&amp;quot;value&amp;quot;:&amp;quot;&amp;quot;},{&amp;quot;name&amp;quot;:&amp;quot;输入&amp;quot;,&amp;quot;id&amp;quot;:&amp;quot;AYGRTrSRQQ991914&amp;quot;,&amp;quot;type&amp;quot;:&amp;quot;string&amp;quot;,&amp;quot;category&amp;quot;:&amp;quot;default&amp;quot;,&amp;quot;value&amp;quot;:&amp;quot;&amp;quot;},{&amp;quot;name&amp;quot;:&amp;quot;输出&amp;quot;,&amp;quot;id&amp;quot;:&amp;quot;BnqNBSxGwy010394&amp;quot;,&amp;quot;type&amp;quot;:&amp;quot;string&amp;quot;,&amp;quot;category&amp;quot;:&amp;quot;default&amp;quot;,&amp;quot;value&amp;quot;:&amp;quot;&amp;quot;},{&amp;quot;name&amp;quot;:&amp;quot;风险&amp;quot;,&amp;quot;id&amp;quot;:&amp;quot;IdQzXMTxsZ503325&amp;quot;,&amp;quot;type&amp;quot;:&amp;quot;string&amp;quot;,&amp;quot;category&amp;quot;:&amp;quot;default&amp;quot;,&amp;quot;value&amp;quot;:&amp;quot;&amp;quot;},{&amp;quot;name&amp;quot;:&amp;quot;备注&amp;quot;,&amp;quot;id&amp;quot;:&amp;quot;attFokwNtI182918&amp;quot;,&amp;quot;type&amp;quot;:&amp;quot;string&amp;quot;,&amp;quot;category&amp;quot;:&amp;quot;default&amp;quot;,&amp;quot;value&amp;quot;:&amp;quot;&amp;quot;}],&amp;quot;props&amp;quot;:{&amp;quot;zindex&amp;quot;:15,&amp;quot;w&amp;quot;:70,&amp;quot;x&amp;quot;:787,&amp;quot;h&amp;quot;:80,&amp;quot;y&amp;quot;:205.5,&amp;quot;angle&amp;quot;:0},&amp;quot;path&amp;quot;:[{&amp;quot;actions&amp;quot;:[{&amp;quot;x&amp;quot;:&amp;quot;0&amp;quot;,&amp;quot;action&amp;quot;:&amp;quot;move&amp;quot;,&amp;quot;y&amp;quot;:&amp;quot;Math.min(w,h)/6&amp;quot;},{&amp;quot;x&amp;quot;:&amp;quot;0&amp;quot;,&amp;quot;action&amp;quot;:&amp;quot;line&amp;quot;,&amp;quot;y&amp;quot;:&amp;quot;h-Math.min(w,h)/6&amp;quot;},{&amp;quot;y1&amp;quot;:&amp;quot;h+Math.min(w,h)/22&amp;quot;,&amp;quot;x&amp;quot;:&amp;quot;w&amp;quot;,&amp;quot;action&amp;quot;:&amp;quot;curve&amp;quot;,&amp;quot;x1&amp;quot;:&amp;quot;0&amp;quot;,&amp;quot;y2&amp;quot;:&amp;quot;h+Math.min(w,h)/22&amp;quot;,&amp;quot;y&amp;quot;:&amp;quot;h-Math.min(w,h)/6&amp;quot;,&amp;quot;x2&amp;quot;:&amp;quot;w&amp;quot;},{&amp;quot;x&amp;quot;:&amp;quot;w&amp;quot;,&amp;quot;action&amp;quot;:&amp;quot;line&amp;quot;,&amp;quot;y&amp;quot;:&amp;quot;Math.min(w,h)/6&amp;quot;},{&amp;quot;y1&amp;quot;:&amp;quot;-Math.min(w,h)/22&amp;quot;,&amp;quot;x&amp;quot;:&amp;quot;0&amp;quot;,&amp;quot;action&amp;quot;:&amp;quot;curve&amp;quot;,&amp;quot;x1&amp;quot;:&amp;quot;w&amp;quot;,&amp;quot;y2&amp;quot;:&amp;quot;-Math.min(w,h)/22&amp;quot;,&amp;quot;y&amp;quot;:&amp;quot;Math.min(w,h)/6&amp;quot;,&amp;quot;x2&amp;quot;:&amp;quot;0&amp;quot;},{&amp;quot;action&amp;quot;:&amp;quot;close&amp;quot;},{&amp;quot;x&amp;quot;:&amp;quot;0&amp;quot;,&amp;quot;action&amp;quot;:&amp;quot;move&amp;quot;,&amp;quot;y&amp;quot;:&amp;quot;Math.min(w,h)/6&amp;quot;},{&amp;quot;y1&amp;quot;:&amp;quot;Math.min(w,h)/8*3&amp;quot;,&amp;quot;x&amp;quot;:&amp;quot;w&amp;quot;,&amp;quot;action&amp;quot;:&amp;quot;curve&amp;quot;,&amp;quot;x1&amp;quot;:&amp;quot;0&amp;quot;,&amp;quot;y2&amp;quot;:&amp;quot;Math.min(w,h)/8*3&amp;quot;,&amp;quot;y&amp;quot;:&amp;quot;Math.min(w,h)/6&amp;quot;,&amp;quot;x2&amp;quot;:&amp;quot;w&amp;quot;},{&amp;quot;y1&amp;quot;:&amp;quot;Math.min(w,h)/8*3&amp;quot;,&amp;quot;x&amp;quot;:&amp;quot;0&amp;quot;,&amp;quot;action&amp;quot;:&amp;quot;curve&amp;quot;,&amp;quot;x1&amp;quot;:&amp;quot;w&amp;quot;,&amp;quot;y2&amp;quot;:&amp;quot;Math.min(w,h)/8*3&amp;quot;,&amp;quot;y&amp;quot;:&amp;quot;Math.min(w,h)/6&amp;quot;,&amp;quot;x2&amp;quot;:&amp;quot;0&amp;quot;}]}],&amp;quot;lineStyle&amp;quot;:{&amp;quot;lineWidth&amp;quot;:1.5},&amp;quot;children&amp;quot;:[],&amp;quot;resizeDir&amp;quot;:[&amp;quot;tl&amp;quot;,&amp;quot;tr&amp;quot;,&amp;quot;br&amp;quot;,&amp;quot;bl&amp;quot;,&amp;quot;l&amp;quot;,&amp;quot;t&amp;quot;,&amp;quot;r&amp;quot;,&amp;quot;b&amp;quot;],&amp;quot;name&amp;quot;:&amp;quot;horizontalDirectData&amp;quot;,&amp;quot;fillStyle&amp;quot;:{},&amp;quot;theme&amp;quot;:{},&amp;quot;id&amp;quot;:&amp;quot;moEkFNcLdU238911&amp;quot;,&amp;quot;attribute&amp;quot;:{&amp;quot;container&amp;quot;:false,&amp;quot;rotatable&amp;quot;:true,&amp;quot;visible&amp;quot;:true,&amp;quot;fixedLink&amp;quot;:false,&amp;quot;collapsable&amp;quot;:false,&amp;quot;collapsed&amp;quot;:false,&amp;quot;linkable&amp;quot;:true,&amp;quot;markerOffset&amp;quot;:5},&amp;quot;category&amp;quot;:&amp;quot;flow&amp;quot;,&amp;quot;locked&amp;quot;:false,&amp;quot;group&amp;quot;:&amp;quot;&amp;quot;},{&amp;quot;textBlock&amp;quot;:[],&amp;quot;props&amp;quot;:{&amp;quot;zindex&amp;quot;:16},&amp;quot;dataAttributes&amp;quot;:[],&amp;quot;points&amp;quot;:[{&amp;quot;x&amp;quot;:683.5,&amp;quot;y&amp;quot;:245.5}],&amp;quot;linkerType&amp;quot;:&amp;quot;broken&amp;quot;,&amp;quot;lineStyle&amp;quot;:{&amp;quot;lineWidth&amp;quot;:1.5},&amp;quot;name&amp;quot;:&amp;quot;linker&amp;quot;,&amp;quot;from&amp;quot;:{&amp;quot;x&amp;quot;:683.5,&amp;quot;y&amp;quot;:317,&amp;quot;angle&amp;quot;:1.570796326794897,&amp;quot;id&amp;quot;:&amp;quot;puZtoSxKfk606950&amp;quot;},&amp;quot;to&amp;quot;:{&amp;quot;x&amp;quot;:787,&amp;quot;y&amp;quot;:245.5,&amp;quot;angle&amp;quot;:0,&amp;quot;id&amp;quot;:&amp;quot;moEkFNcLdU238911&amp;quot;},&amp;quot;id&amp;quot;:&amp;quot;mQYtjiPMos739629&amp;quot;,&amp;quot;text&amp;quot;:&amp;quot;&amp;quot;,&amp;quot;locked&amp;quot;:false,&amp;quot;group&amp;quot;:&amp;quot;&amp;quot;},{&amp;quot;parent&amp;quot;:&amp;quot;&amp;quot;,&amp;quot;link&amp;quot;:&amp;quot;&amp;quot;,&amp;quot;shapeStyle&amp;quot;:{&amp;quot;alpha&amp;quot;:1},&amp;quot;textBlock&amp;quot;:[{&amp;quot;position&amp;quot;:{&amp;quot;w&amp;quot;:&amp;quot;w-20&amp;quot;,&amp;quot;x&amp;quot;:10,&amp;quot;h&amp;quot;:&amp;quot;h&amp;quot;,&amp;quot;y&amp;quot;:0},&amp;quot;text&amp;quot;:&amp;quot;用户提问+知识库引用 发给大模型&amp;quot;}],&amp;quot;anchors&amp;quot;:[{&amp;quot;x&amp;quot;:&amp;quot;w/2&amp;quot;,&amp;quot;y&amp;quot;:&amp;quot;0&amp;quot;},{&amp;quot;x&amp;quot;:&amp;quot;w/2&amp;quot;,&amp;quot;y&amp;quot;:&amp;quot;h&amp;quot;},{&amp;quot;x&amp;quot;:&amp;quot;0&amp;quot;,&amp;quot;y&amp;quot;:&amp;quot;h/2&amp;quot;},{&amp;quot;x&amp;quot;:&amp;quot;w&amp;quot;,&amp;quot;y&amp;quot;:&amp;quot;h/2&amp;quot;}],&amp;quot;title&amp;quot;:&amp;quot;矩形&amp;quot;,&amp;quot;fontStyle&amp;quot;:{},&amp;quot;dataAttributes&amp;quot;:[{&amp;quot;name&amp;quot;:&amp;quot;序号&amp;quot;,&amp;quot;id&amp;quot;:&amp;quot;eqJzrDvcMB954842&amp;quot;,&amp;quot;type&amp;quot;:&amp;quot;number&amp;quot;,&amp;quot;category&amp;quot;:&amp;quot;default&amp;quot;,&amp;quot;value&amp;quot;:&amp;quot;&amp;quot;},{&amp;quot;name&amp;quot;:&amp;quot;名称&amp;quot;,&amp;quot;id&amp;quot;:&amp;quot;UyxXisVDzr104166&amp;quot;,&amp;quot;type&amp;quot;:&amp;quot;string&amp;quot;,&amp;quot;category&amp;quot;:&amp;quot;default&amp;quot;,&amp;quot;value&amp;quot;:&amp;quot;&amp;quot;},{&amp;quot;name&amp;quot;:&amp;quot;所有者&amp;quot;,&amp;quot;id&amp;quot;:&amp;quot;gVZKHgjkPO661582&amp;quot;,&amp;quot;type&amp;quot;:&amp;quot;string&amp;quot;,&amp;quot;category&amp;quot;:&amp;quot;default&amp;quot;,&amp;quot;value&amp;quot;:&amp;quot;&amp;quot;},{&amp;quot;name&amp;quot;:&amp;quot;连接&amp;quot;,&amp;quot;id&amp;quot;:&amp;quot;ndYjrhcObz990020&amp;quot;,&amp;quot;type&amp;quot;:&amp;quot;link&amp;quot;,&amp;quot;category&amp;quot;:&amp;quot;default&amp;quot;,&amp;quot;value&amp;quot;:&amp;quot;&amp;quot;},{&amp;quot;name&amp;quot;:&amp;quot;便笺&amp;quot;,&amp;quot;id&amp;quot;:&amp;quot;jSnpmZLULY131124&amp;quot;,&amp;quot;type&amp;quot;:&amp;quot;string&amp;quot;,&amp;quot;category&amp;quot;:&amp;quot;default&amp;quot;,&amp;quot;value&amp;quot;:&amp;quot;&amp;quot;}],&amp;quot;props&amp;quot;:{&amp;quot;zindex&amp;quot;:17,&amp;quot;w&amp;quot;:121,&amp;quot;x&amp;quot;:806,&amp;quot;h&amp;quot;:80,&amp;quot;y&amp;quot;:317,&amp;quot;angle&amp;quot;:0},&amp;quot;path&amp;quot;:[{&amp;quot;actions&amp;quot;:[{&amp;quot;x&amp;quot;:&amp;quot;0&amp;quot;,&amp;quot;action&amp;quot;:&amp;quot;move&amp;quot;,&amp;quot;y&amp;quot;:&amp;quot;0&amp;quot;},{&amp;quot;x&amp;quot;:&amp;quot;w&amp;quot;,&amp;quot;action&amp;quot;:&amp;quot;line&amp;quot;,&amp;quot;y&amp;quot;:&amp;quot;0&amp;quot;},{&amp;quot;x&amp;quot;:&amp;quot;w&amp;quot;,&amp;quot;action&amp;quot;:&amp;quot;line&amp;quot;,&amp;quot;y&amp;quot;:&amp;quot;h&amp;quot;},{&amp;quot;x&amp;quot;:&amp;quot;0&amp;quot;,&amp;quot;action&amp;quot;:&amp;quot;line&amp;quot;,&amp;quot;y&amp;quot;:&amp;quot;h&amp;quot;},{&amp;quot;action&amp;quot;:&amp;quot;close&amp;quot;}]}],&amp;quot;lineStyle&amp;quot;:{&amp;quot;lineWidth&amp;quot;:1.5},&amp;quot;children&amp;quot;:[],&amp;quot;resizeDir&amp;quot;:[&amp;quot;tl&amp;quot;,&amp;quot;tr&amp;quot;,&amp;quot;br&amp;quot;,&amp;quot;bl&amp;quot;,&amp;quot;l&amp;quot;,&amp;quot;t&amp;quot;,&amp;quot;r&amp;quot;,&amp;quot;b&amp;quot;],&amp;quot;name&amp;quot;:&amp;quot;rectangle&amp;quot;,&amp;quot;fillStyle&amp;quot;:{},&amp;quot;theme&amp;quot;:{},&amp;quot;id&amp;quot;:&amp;quot;JFhcoeYlHs530838&amp;quot;,&amp;quot;attribute&amp;quot;:{&amp;quot;container&amp;quot;:false,&amp;quot;rotatable&amp;quot;:true,&amp;quot;visible&amp;quot;:true,&amp;quot;fixedLink&amp;quot;:false,&amp;quot;collapsable&amp;quot;:false,&amp;quot;collapsed&amp;quot;:false,&amp;quot;linkable&amp;quot;:true,&amp;quot;markerOffset&amp;quot;:5},&amp;quot;category&amp;quot;:&amp;quot;basic&amp;quot;,&amp;quot;locked&amp;quot;:false,&amp;quot;group&amp;quot;:&amp;quot;&amp;quot;},{&amp;quot;textBlock&amp;quot;:[],&amp;quot;props&amp;quot;:{&amp;quot;zindex&amp;quot;:18},&amp;quot;dataAttributes&amp;quot;:[],&amp;quot;points&amp;quot;:[{&amp;quot;x&amp;quot;:778.5,&amp;quot;y&amp;quot;:357},{&amp;quot;x&amp;quot;:778.5,&amp;quot;y&amp;quot;:357}],&amp;quot;linkerType&amp;quot;:&amp;quot;broken&amp;quot;,&amp;quot;lineStyle&amp;quot;:{&amp;quot;lineWidth&amp;quot;:1.5},&amp;quot;name&amp;quot;:&amp;quot;linker&amp;quot;,&amp;quot;from&amp;quot;:{&amp;quot;x&amp;quot;:751,&amp;quot;y&amp;quot;:357,&amp;quot;angle&amp;quot;:3.1415926535897936,&amp;quot;id&amp;quot;:&amp;quot;puZtoSxKfk606950&amp;quot;},&amp;quot;to&amp;quot;:{&amp;quot;x&amp;quot;:806,&amp;quot;y&amp;quot;:357,&amp;quot;angle&amp;quot;:0,&amp;quot;id&amp;quot;:&amp;quot;JFhcoeYlHs530838&amp;quot;},&amp;quot;id&amp;quot;:&amp;quot;xZtOnFqtFr030961&amp;quot;,&amp;quot;text&amp;quot;:&amp;quot;&amp;quot;,&amp;quot;locked&amp;quot;:false,&amp;quot;group&amp;quot;:&amp;quot;&amp;quot;},{&amp;quot;textBlock&amp;quot;:[],&amp;quot;props&amp;quot;:{&amp;quot;zindex&amp;quot;:19},&amp;quot;dataAttributes&amp;quot;:[],&amp;quot;points&amp;quot;:[{&amp;quot;x&amp;quot;:971,&amp;quot;y&amp;quot;:357}],&amp;quot;linkerType&amp;quot;:&amp;quot;broken&amp;quot;,&amp;quot;lineStyle&amp;quot;:{&amp;quot;lineWidth&amp;quot;:1.5},&amp;quot;name&amp;quot;:&amp;quot;linker&amp;quot;,&amp;quot;from&amp;quot;:{&amp;quot;x&amp;quot;:927,&amp;quot;y&amp;quot;:357,&amp;quot;angle&amp;quot;:3.1415926535897936,&amp;quot;id&amp;quot;:&amp;quot;JFhcoeYlHs530838&amp;quot;},&amp;quot;to&amp;quot;:{&amp;quot;x&amp;quot;:971,&amp;quot;y&amp;quot;:481,&amp;quot;angle&amp;quot;:1.570796326794897,&amp;quot;id&amp;quot;:&amp;quot;CAZxCGrHzR752180&amp;quot;},&amp;quot;id&amp;quot;:&amp;quot;qJeenmQWkR711026&amp;quot;,&amp;quot;text&amp;quot;:&amp;quot;&amp;quot;,&amp;quot;locked&amp;quot;:false,&amp;quot;group&amp;quot;:&amp;quot;&amp;quot;},{&amp;quot;textBlock&amp;quot;:[],&amp;quot;props&amp;quot;:{&amp;quot;zindex&amp;quot;:20},&amp;quot;dataAttributes&amp;quot;:[],&amp;quot;points&amp;quot;:[{&amp;quot;x&amp;quot;:866.5,&amp;quot;y&amp;quot;:631}],&amp;quot;linkerType&amp;quot;:&amp;quot;broken&amp;quot;,&amp;quot;lineStyle&amp;quot;:{&amp;quot;lineWidth&amp;quot;:1.5},&amp;quot;name&amp;quot;:&amp;quot;linker&amp;quot;,&amp;quot;from&amp;quot;:{&amp;quot;x&amp;quot;:866.5,&amp;quot;y&amp;quot;:397,&amp;quot;angle&amp;quot;:4.71238898038469,&amp;quot;id&amp;quot;:&amp;quot;JFhcoeYlHs530838&amp;quot;},&amp;quot;to&amp;quot;:{&amp;quot;x&amp;quot;:742.5,&amp;quot;y&amp;quot;:631,&amp;quot;angle&amp;quot;:3.1415926535897936,&amp;quot;id&amp;quot;:&amp;quot;XCjjEeQEmT496668&amp;quot;},&amp;quot;id&amp;quot;:&amp;quot;pcJvTxVYub776554&amp;quot;,&amp;quot;text&amp;quot;:&amp;quot;&amp;quot;,&amp;quot;locked&amp;quot;:false,&amp;quot;group&amp;quot;:&amp;quot;&amp;quot;},{&amp;quot;parent&amp;quot;:&amp;quot;&amp;quot;,&amp;quot;link&amp;quot;:&amp;quot;&amp;quot;,&amp;quot;shapeStyle&amp;quot;:{&amp;quot;alpha&amp;quot;:1},&amp;quot;textBlock&amp;quot;:[{&amp;quot;position&amp;quot;:{&amp;quot;w&amp;quot;:&amp;quot;w-20&amp;quot;,&amp;quot;x&amp;quot;:10,&amp;quot;h&amp;quot;:&amp;quot;h&amp;quot;,&amp;quot;y&amp;quot;:0},&amp;quot;text&amp;quot;:&amp;quot;文档&amp;quot;}],&amp;quot;anchors&amp;quot;:[{&amp;quot;x&amp;quot;:&amp;quot;w/2&amp;quot;,&amp;quot;y&amp;quot;:&amp;quot;0&amp;quot;},{&amp;quot;x&amp;quot;:&amp;quot;w/2&amp;quot;,&amp;quot;y&amp;quot;:&amp;quot;h&amp;quot;},{&amp;quot;x&amp;quot;:&amp;quot;0&amp;quot;,&amp;quot;y&amp;quot;:&amp;quot;h/2&amp;quot;},{&amp;quot;x&amp;quot;:&amp;quot;w&amp;quot;,&amp;quot;y&amp;quot;:&amp;quot;h/2&amp;quot;}],&amp;quot;title&amp;quot;:&amp;quot;矩形&amp;quot;,&amp;quot;fontStyle&amp;quot;:{},&amp;quot;dataAttributes&amp;quot;:[{&amp;quot;name&amp;quot;:&amp;quot;序号&amp;quot;,&amp;quot;id&amp;quot;:&amp;quot;TXCHBOzwXt674703&amp;quot;,&amp;quot;type&amp;quot;:&amp;quot;number&amp;quot;,&amp;quot;category&amp;quot;:&amp;quot;default&amp;quot;,&amp;quot;value&amp;quot;:&amp;quot;&amp;quot;},{&amp;quot;name&amp;quot;:&amp;quot;名称&amp;quot;,&amp;quot;id&amp;quot;:&amp;quot;vlQQRUkXul857430&amp;quot;,&amp;quot;type&amp;quot;:&amp;quot;string&amp;quot;,&amp;quot;category&amp;quot;:&amp;quot;default&amp;quot;,&amp;quot;value&amp;quot;:&amp;quot;&amp;quot;},{&amp;quot;name&amp;quot;:&amp;quot;所有者&amp;quot;,&amp;quot;id&amp;quot;:&amp;quot;AJrAjBKYZS800712&amp;quot;,&amp;quot;type&amp;quot;:&amp;quot;string&amp;quot;,&amp;quot;category&amp;quot;:&amp;quot;default&amp;quot;,&amp;quot;value&amp;quot;:&amp;quot;&amp;quot;},{&amp;quot;name&amp;quot;:&amp;quot;连接&amp;quot;,&amp;quot;id&amp;quot;:&amp;quot;VUropYTVMu510585&amp;quot;,&amp;quot;type&amp;quot;:&amp;quot;link&amp;quot;,&amp;quot;category&amp;quot;:&amp;quot;default&amp;quot;,&amp;quot;value&amp;quot;:&amp;quot;&amp;quot;},{&amp;quot;name&amp;quot;:&amp;quot;便笺&amp;quot;,&amp;quot;id&amp;quot;:&amp;quot;oevvNDEXJC336025&amp;quot;,&amp;quot;type&amp;quot;:&amp;quot;string&amp;quot;,&amp;quot;category&amp;quot;:&amp;quot;default&amp;quot;,&amp;quot;value&amp;quot;:&amp;quot;&amp;quot;}],&amp;quot;props&amp;quot;:{&amp;quot;zindex&amp;quot;:21,&amp;quot;w&amp;quot;:96,&amp;quot;x&amp;quot;:635.5,&amp;quot;h&amp;quot;:54,&amp;quot;y&amp;quot;:136,&amp;quot;angle&amp;quot;:0},&amp;quot;path&amp;quot;:[{&amp;quot;actions&amp;quot;:[{&amp;quot;x&amp;quot;:&amp;quot;0&amp;quot;,&amp;quot;action&amp;quot;:&amp;quot;move&amp;quot;,&amp;quot;y&amp;quot;:&amp;quot;0&amp;quot;},{&amp;quot;x&amp;quot;:&amp;quot;w&amp;quot;,&amp;quot;action&amp;quot;:&amp;quot;line&amp;quot;,&amp;quot;y&amp;quot;:&amp;quot;0&amp;quot;},{&amp;quot;x&amp;quot;:&amp;quot;w&amp;quot;,&amp;quot;action&amp;quot;:&amp;quot;line&amp;quot;,&amp;quot;y&amp;quot;:&amp;quot;h&amp;quot;},{&amp;quot;x&amp;quot;:&amp;quot;0&amp;quot;,&amp;quot;action&amp;quot;:&amp;quot;line&amp;quot;,&amp;quot;y&amp;quot;:&amp;quot;h&amp;quot;},{&amp;quot;action&amp;quot;:&amp;quot;close&amp;quot;}]}],&amp;quot;lineStyle&amp;quot;:{&amp;quot;lineWidth&amp;quot;:1.5},&amp;quot;children&amp;quot;:[],&amp;quot;resizeDir&amp;quot;:[&amp;quot;tl&amp;quot;,&amp;quot;tr&amp;quot;,&amp;quot;br&amp;quot;,&amp;quot;bl&amp;quot;,&amp;quot;l&amp;quot;,&amp;quot;t&amp;quot;,&amp;quot;r&amp;quot;,&amp;quot;b&amp;quot;],&amp;quot;name&amp;quot;:&amp;quot;rectangle&amp;quot;,&amp;quot;fillStyle&amp;quot;:{},&amp;quot;theme&amp;quot;:{},&amp;quot;id&amp;quot;:&amp;quot;LqVDTgLiPc202010&amp;quot;,&amp;quot;attribute&amp;quot;:{&amp;quot;container&amp;quot;:false,&amp;quot;rotatable&amp;quot;:true,&amp;quot;visible&amp;quot;:true,&amp;quot;fixedLink&amp;quot;:false,&amp;quot;collapsable&amp;quot;:false,&amp;quot;collapsed&amp;quot;:false,&amp;quot;linkable&amp;quot;:true,&amp;quot;markerOffset&amp;quot;:5},&amp;quot;category&amp;quot;:&amp;quot;basic&amp;quot;,&amp;quot;locked&amp;quot;:false,&amp;quot;group&amp;quot;:&amp;quot;&amp;quot;},{&amp;quot;textBlock&amp;quot;:[],&amp;quot;props&amp;quot;:{&amp;quot;zindex&amp;quot;:22},&amp;quot;dataAttributes&amp;quot;:[],&amp;quot;points&amp;quot;:[{&amp;quot;x&amp;quot;:530.25,&amp;quot;y&amp;quot;:163}],&amp;quot;linkerType&amp;quot;:&amp;quot;broken&amp;quot;,&amp;quot;lineStyle&amp;quot;:{&amp;quot;lineWidth&amp;quot;:1.5},&amp;quot;name&amp;quot;:&amp;quot;linker&amp;quot;,&amp;quot;from&amp;quot;:{&amp;quot;x&amp;quot;:635.5,&amp;quot;y&amp;quot;:163,&amp;quot;angle&amp;quot;:0,&amp;quot;id&amp;quot;:&amp;quot;LqVDTgLiPc202010&amp;quot;},&amp;quot;to&amp;quot;:{&amp;quot;x&amp;quot;:530.25,&amp;quot;y&amp;quot;:206,&amp;quot;angle&amp;quot;:1.570796326794897,&amp;quot;id&amp;quot;:&amp;quot;MXdzUICrNB032429&amp;quot;},&amp;quot;id&amp;quot;:&amp;quot;NTHuaqCDzZ383399&amp;quot;,&amp;quot;text&amp;quot;:&amp;quot;&amp;quot;,&amp;quot;locked&amp;quot;:false,&amp;quot;group&amp;quot;:&amp;quot;&amp;quot;},{&amp;quot;textBlock&amp;quot;:[],&amp;quot;props&amp;quot;:{&amp;quot;zindex&amp;quot;:23},&amp;quot;dataAttributes&amp;quot;:[],&amp;quot;points&amp;quot;:[{&amp;quot;x&amp;quot;:822,&amp;quot;y&amp;quot;:163}],&amp;quot;linkerType&amp;quot;:&amp;quot;broken&amp;quot;,&amp;quot;lineStyle&amp;quot;:{&amp;quot;lineWidth&amp;quot;:1.5},&amp;quot;name&amp;quot;:&amp;quot;linker&amp;quot;,&amp;quot;from&amp;quot;:{&amp;quot;x&amp;quot;:731.5,&amp;quot;y&amp;quot;:163,&amp;quot;angle&amp;quot;:3.1415926535897936,&amp;quot;id&amp;quot;:&amp;quot;LqVDTgLiPc202010&amp;quot;},&amp;quot;to&amp;quot;:{&amp;quot;x&amp;quot;:822,&amp;quot;y&amp;quot;:205.5,&amp;quot;angle&amp;quot;:1.5707963267948966,&amp;quot;id&amp;quot;:&amp;quot;moEkFNcLdU238911&amp;quot;},&amp;quot;id&amp;quot;:&amp;quot;nvuWexJByi164125&amp;quot;,&amp;quot;text&amp;quot;:&amp;quot;&amp;quot;,&amp;quot;locked&amp;quot;:false,&amp;quot;group&amp;quot;:&amp;quot;&amp;quot;}]}&quot; style=&quot;caret-color: rgb(0, 0, 0); color: rgb(0, 0, 0); font-style: normal; font-variant-caps: normal; font-weight: 400; letter-spacing: normal; orphans: auto; text-align: start; text-indent: 0px; text-transform: none; white-space: normal; widows: auto; word-spacing: 0px; -webkit-text-stroke-width: 0px; text-decoration: none;&quot;&gt;&lt;/div&gt;" link="&lt;div data-t=&quot;flow&quot; data-processon-v=&quot;{&amp;quot;list&amp;quot;:[{&amp;quot;parent&amp;quot;:&amp;quot;&amp;quot;,&amp;quot;link&amp;quot;:&amp;quot;&amp;quot;,&amp;quot;shapeStyle&amp;quot;:{&amp;quot;alpha&amp;quot;:1},&amp;quot;textBlock&amp;quot;:[{&amp;quot;position&amp;quot;:{&amp;quot;w&amp;quot;:&amp;quot;w-20&amp;quot;,&amp;quot;x&amp;quot;:10,&amp;quot;h&amp;quot;:&amp;quot;h&amp;quot;,&amp;quot;y&amp;quot;:0},&amp;quot;text&amp;quot;:&amp;quot;用户提问&amp;quot;}],&amp;quot;anchors&amp;quot;:[{&amp;quot;x&amp;quot;:&amp;quot;w/2&amp;quot;,&amp;quot;y&amp;quot;:&amp;quot;0&amp;quot;},{&amp;quot;x&amp;quot;:&amp;quot;w/2&amp;quot;,&amp;quot;y&amp;quot;:&amp;quot;h&amp;quot;},{&amp;quot;x&amp;quot;:&amp;quot;0&amp;quot;,&amp;quot;y&amp;quot;:&amp;quot;h/2&amp;quot;},{&amp;quot;x&amp;quot;:&amp;quot;w&amp;quot;,&amp;quot;y&amp;quot;:&amp;quot;h/2&amp;quot;}],&amp;quot;title&amp;quot;:&amp;quot;矩形&amp;quot;,&amp;quot;fontStyle&amp;quot;:{},&amp;quot;dataAttributes&amp;quot;:[{&amp;quot;name&amp;quot;:&amp;quot;序号&amp;quot;,&amp;quot;id&amp;quot;:&amp;quot;YqpraooUQZ961339&amp;quot;,&amp;quot;type&amp;quot;:&amp;quot;number&amp;quot;,&amp;quot;category&amp;quot;:&amp;quot;default&amp;quot;,&amp;quot;value&amp;quot;:&amp;quot;&amp;quot;},{&amp;quot;name&amp;quot;:&amp;quot;名称&amp;quot;,&amp;quot;id&amp;quot;:&amp;quot;EWhVuLIeIK669457&amp;quot;,&amp;quot;type&amp;quot;:&amp;quot;string&amp;quot;,&amp;quot;category&amp;quot;:&amp;quot;default&amp;quot;,&amp;quot;value&amp;quot;:&amp;quot;&amp;quot;},{&amp;quot;name&amp;quot;:&amp;quot;所有者&amp;quot;,&amp;quot;id&amp;quot;:&amp;quot;ukTLGcJFzb799015&amp;quot;,&amp;quot;type&amp;quot;:&amp;quot;string&amp;quot;,&amp;quot;category&amp;quot;:&amp;quot;default&amp;quot;,&amp;quot;value&amp;quot;:&amp;quot;&amp;quot;},{&amp;quot;name&amp;quot;:&amp;quot;连接&amp;quot;,&amp;quot;id&amp;quot;:&amp;quot;gHmaUMOaUR894307&amp;quot;,&amp;quot;type&amp;quot;:&amp;quot;link&amp;quot;,&amp;quot;category&amp;quot;:&amp;quot;default&amp;quot;,&amp;quot;value&amp;quot;:&amp;quot;&amp;quot;},{&amp;quot;name&amp;quot;:&amp;quot;便笺&amp;quot;,&amp;quot;id&amp;quot;:&amp;quot;eADPlrVpKT239658&amp;quot;,&amp;quot;type&amp;quot;:&amp;quot;string&amp;quot;,&amp;quot;category&amp;quot;:&amp;quot;default&amp;quot;,&amp;quot;value&amp;quot;:&amp;quot;&amp;quot;}],&amp;quot;props&amp;quot;:{&amp;quot;zindex&amp;quot;:1,&amp;quot;w&amp;quot;:96,&amp;quot;x&amp;quot;:222,&amp;quot;h&amp;quot;:54,&amp;quot;y&amp;quot;:481,&amp;quot;angle&amp;quot;:0},&amp;quot;path&amp;quot;:[{&amp;quot;actions&amp;quot;:[{&amp;quot;x&amp;quot;:&amp;quot;0&amp;quot;,&amp;quot;action&amp;quot;:&amp;quot;move&amp;quot;,&amp;quot;y&amp;quot;:&amp;quot;0&amp;quot;},{&amp;quot;x&amp;quot;:&amp;quot;w&amp;quot;,&amp;quot;action&amp;quot;:&amp;quot;line&amp;quot;,&amp;quot;y&amp;quot;:&amp;quot;0&amp;quot;},{&amp;quot;x&amp;quot;:&amp;quot;w&amp;quot;,&amp;quot;action&amp;quot;:&amp;quot;line&amp;quot;,&amp;quot;y&amp;quot;:&amp;quot;h&amp;quot;},{&amp;quot;x&amp;quot;:&amp;quot;0&amp;quot;,&amp;quot;action&amp;quot;:&amp;quot;line&amp;quot;,&amp;quot;y&amp;quot;:&amp;quot;h&amp;quot;},{&amp;quot;action&amp;quot;:&amp;quot;close&amp;quot;}]}],&amp;quot;lineStyle&amp;quot;:{&amp;quot;lineWidth&amp;quot;:1.5},&amp;quot;children&amp;quot;:[],&amp;quot;resizeDir&amp;quot;:[&amp;quot;tl&amp;quot;,&amp;quot;tr&amp;quot;,&amp;quot;br&amp;quot;,&amp;quot;bl&amp;quot;,&amp;quot;l&amp;quot;,&amp;quot;t&amp;quot;,&amp;quot;r&amp;quot;,&amp;quot;b&amp;quot;],&amp;quot;name&amp;quot;:&amp;quot;rectangle&amp;quot;,&amp;quot;fillStyle&amp;quot;:{},&amp;quot;theme&amp;quot;:{},&amp;quot;id&amp;quot;:&amp;quot;EIrSDMlcTN372382&amp;quot;,&amp;quot;attribute&amp;quot;:{&amp;quot;container&amp;quot;:false,&amp;quot;rotatable&amp;quot;:true,&amp;quot;visible&amp;quot;:true,&amp;quot;fixedLink&amp;quot;:false,&amp;quot;collapsable&amp;quot;:false,&amp;quot;collapsed&amp;quot;:false,&amp;quot;linkable&amp;quot;:true,&amp;quot;markerOffset&amp;quot;:5},&amp;quot;category&amp;quot;:&amp;quot;basic&amp;quot;,&amp;quot;locked&amp;quot;:false,&amp;quot;group&amp;quot;:&amp;quot;&amp;quot;},{&amp;quot;textBlock&amp;quot;:[],&amp;quot;props&amp;quot;:{&amp;quot;zindex&amp;quot;:2},&amp;quot;dataAttributes&amp;quot;:[],&amp;quot;points&amp;quot;:[{&amp;quot;x&amp;quot;:341,&amp;quot;y&amp;quot;:508},{&amp;quot;x&amp;quot;:341,&amp;quot;y&amp;quot;:508}],&amp;quot;linkerType&amp;quot;:&amp;quot;broken&amp;quot;,&amp;quot;lineStyle&amp;quot;:{&amp;quot;lineWidth&amp;quot;:1.5},&amp;quot;name&amp;quot;:&amp;quot;linker&amp;quot;,&amp;quot;from&amp;quot;:{&amp;quot;x&amp;quot;:318,&amp;quot;y&amp;quot;:508,&amp;quot;angle&amp;quot;:3.1415926535897936,&amp;quot;id&amp;quot;:&amp;quot;EIrSDMlcTN372382&amp;quot;},&amp;quot;to&amp;quot;:{&amp;quot;x&amp;quot;:364,&amp;quot;y&amp;quot;:508,&amp;quot;angle&amp;quot;:0,&amp;quot;id&amp;quot;:&amp;quot;CzVwXZwMYd181285&amp;quot;},&amp;quot;id&amp;quot;:&amp;quot;pMlZludYIG100572&amp;quot;,&amp;quot;text&amp;quot;:&amp;quot;&amp;quot;,&amp;quot;locked&amp;quot;:false,&amp;quot;group&amp;quot;:&amp;quot;&amp;quot;},{&amp;quot;parent&amp;quot;:&amp;quot;&amp;quot;,&amp;quot;link&amp;quot;:&amp;quot;&amp;quot;,&amp;quot;shapeStyle&amp;quot;:{&amp;quot;alpha&amp;quot;:1},&amp;quot;textBlock&amp;quot;:[{&amp;quot;position&amp;quot;:{&amp;quot;w&amp;quot;:&amp;quot;w-20&amp;quot;,&amp;quot;x&amp;quot;:&amp;quot;10&amp;quot;,&amp;quot;h&amp;quot;:&amp;quot;h*0.75&amp;quot;,&amp;quot;y&amp;quot;:&amp;quot;h*0.13&amp;quot;},&amp;quot;text&amp;quot;:&amp;quot;判断用户提问是否属于金融方面&amp;quot;}],&amp;quot;anchors&amp;quot;:[{&amp;quot;x&amp;quot;:&amp;quot;0&amp;quot;,&amp;quot;y&amp;quot;:&amp;quot;h/2&amp;quot;},{&amp;quot;x&amp;quot;:&amp;quot;w/2&amp;quot;,&amp;quot;y&amp;quot;:&amp;quot;0&amp;quot;},{&amp;quot;x&amp;quot;:&amp;quot;w&amp;quot;,&amp;quot;y&amp;quot;:&amp;quot;h/2&amp;quot;},{&amp;quot;x&amp;quot;:&amp;quot;w/2&amp;quot;,&amp;quot;y&amp;quot;:&amp;quot;h&amp;quot;}],&amp;quot;title&amp;quot;:&amp;quot;菱形&amp;quot;,&amp;quot;fontStyle&amp;quot;:{},&amp;quot;dataAttributes&amp;quot;:[{&amp;quot;name&amp;quot;:&amp;quot;序号&amp;quot;,&amp;quot;id&amp;quot;:&amp;quot;GyLxvgPXPm180467&amp;quot;,&amp;quot;type&amp;quot;:&amp;quot;number&amp;quot;,&amp;quot;category&amp;quot;:&amp;quot;default&amp;quot;,&amp;quot;value&amp;quot;:&amp;quot;&amp;quot;},{&amp;quot;name&amp;quot;:&amp;quot;名称&amp;quot;,&amp;quot;id&amp;quot;:&amp;quot;AhsvVuNufe735655&amp;quot;,&amp;quot;type&amp;quot;:&amp;quot;string&amp;quot;,&amp;quot;category&amp;quot;:&amp;quot;default&amp;quot;,&amp;quot;value&amp;quot;:&amp;quot;&amp;quot;},{&amp;quot;name&amp;quot;:&amp;quot;所有者&amp;quot;,&amp;quot;id&amp;quot;:&amp;quot;LEgwyiqOfk171851&amp;quot;,&amp;quot;type&amp;quot;:&amp;quot;string&amp;quot;,&amp;quot;category&amp;quot;:&amp;quot;default&amp;quot;,&amp;quot;value&amp;quot;:&amp;quot;&amp;quot;},{&amp;quot;name&amp;quot;:&amp;quot;连接&amp;quot;,&amp;quot;id&amp;quot;:&amp;quot;YyilRXnDTs345873&amp;quot;,&amp;quot;type&amp;quot;:&amp;quot;link&amp;quot;,&amp;quot;category&amp;quot;:&amp;quot;default&amp;quot;,&amp;quot;value&amp;quot;:&amp;quot;&amp;quot;},{&amp;quot;name&amp;quot;:&amp;quot;便笺&amp;quot;,&amp;quot;id&amp;quot;:&amp;quot;htKRcxQxbx086223&amp;quot;,&amp;quot;type&amp;quot;:&amp;quot;string&amp;quot;,&amp;quot;category&amp;quot;:&amp;quot;default&amp;quot;,&amp;quot;value&amp;quot;:&amp;quot;&amp;quot;}],&amp;quot;props&amp;quot;:{&amp;quot;zindex&amp;quot;:3,&amp;quot;w&amp;quot;:168,&amp;quot;x&amp;quot;:364,&amp;quot;h&amp;quot;:122.5,&amp;quot;y&amp;quot;:446.75,&amp;quot;angle&amp;quot;:0},&amp;quot;path&amp;quot;:[{&amp;quot;actions&amp;quot;:[{&amp;quot;x&amp;quot;:&amp;quot;0&amp;quot;,&amp;quot;action&amp;quot;:&amp;quot;move&amp;quot;,&amp;quot;y&amp;quot;:&amp;quot;h/2&amp;quot;},{&amp;quot;x&amp;quot;:&amp;quot;w/2&amp;quot;,&amp;quot;action&amp;quot;:&amp;quot;line&amp;quot;,&amp;quot;y&amp;quot;:&amp;quot;0&amp;quot;},{&amp;quot;x&amp;quot;:&amp;quot;w&amp;quot;,&amp;quot;action&amp;quot;:&amp;quot;line&amp;quot;,&amp;quot;y&amp;quot;:&amp;quot;h/2&amp;quot;},{&amp;quot;x&amp;quot;:&amp;quot;w/2&amp;quot;,&amp;quot;action&amp;quot;:&amp;quot;line&amp;quot;,&amp;quot;y&amp;quot;:&amp;quot;h&amp;quot;},{&amp;quot;action&amp;quot;:&amp;quot;close&amp;quot;}]}],&amp;quot;lineStyle&amp;quot;:{&amp;quot;lineWidth&amp;quot;:1.5},&amp;quot;children&amp;quot;:[],&amp;quot;resizeDir&amp;quot;:[&amp;quot;tl&amp;quot;,&amp;quot;tr&amp;quot;,&amp;quot;br&amp;quot;,&amp;quot;bl&amp;quot;,&amp;quot;l&amp;quot;,&amp;quot;t&amp;quot;,&amp;quot;r&amp;quot;,&amp;quot;b&amp;quot;],&amp;quot;name&amp;quot;:&amp;quot;diamond&amp;quot;,&amp;quot;fillStyle&amp;quot;:{},&amp;quot;theme&amp;quot;:{},&amp;quot;id&amp;quot;:&amp;quot;CzVwXZwMYd181285&amp;quot;,&amp;quot;attribute&amp;quot;:{&amp;quot;container&amp;quot;:false,&amp;quot;rotatable&amp;quot;:true,&amp;quot;visible&amp;quot;:true,&amp;quot;fixedLink&amp;quot;:false,&amp;quot;collapsable&amp;quot;:false,&amp;quot;collapsed&amp;quot;:false,&amp;quot;linkable&amp;quot;:true,&amp;quot;markerOffset&amp;quot;:5},&amp;quot;category&amp;quot;:&amp;quot;basic&amp;quot;,&amp;quot;locked&amp;quot;:false,&amp;quot;group&amp;quot;:&amp;quot;&amp;quot;},{&amp;quot;parent&amp;quot;:&amp;quot;&amp;quot;,&amp;quot;link&amp;quot;:&amp;quot;&amp;quot;,&amp;quot;shapeStyle&amp;quot;:{&amp;quot;alpha&amp;quot;:1},&amp;quot;textBlock&amp;quot;:[{&amp;quot;position&amp;quot;:{&amp;quot;w&amp;quot;:&amp;quot;w-20&amp;quot;,&amp;quot;x&amp;quot;:&amp;quot;10&amp;quot;,&amp;quot;h&amp;quot;:&amp;quot;h-20&amp;quot;,&amp;quot;y&amp;quot;:&amp;quot;10&amp;quot;},&amp;quot;text&amp;quot;:&amp;quot;大模型（deepseek）&amp;quot;}],&amp;quot;anchors&amp;quot;:[{&amp;quot;x&amp;quot;:&amp;quot;w/2&amp;quot;,&amp;quot;y&amp;quot;:&amp;quot;0&amp;quot;},{&amp;quot;x&amp;quot;:&amp;quot;w/2&amp;quot;,&amp;quot;y&amp;quot;:&amp;quot;h&amp;quot;},{&amp;quot;x&amp;quot;:&amp;quot;0&amp;quot;,&amp;quot;y&amp;quot;:&amp;quot;h/2&amp;quot;},{&amp;quot;x&amp;quot;:&amp;quot;w&amp;quot;,&amp;quot;y&amp;quot;:&amp;quot;h/2&amp;quot;}],&amp;quot;title&amp;quot;:&amp;quot;八边形&amp;quot;,&amp;quot;fontStyle&amp;quot;:{},&amp;quot;dataAttributes&amp;quot;:[{&amp;quot;name&amp;quot;:&amp;quot;序号&amp;quot;,&amp;quot;id&amp;quot;:&amp;quot;wWDFfBgxYE850070&amp;quot;,&amp;quot;type&amp;quot;:&amp;quot;number&amp;quot;,&amp;quot;category&amp;quot;:&amp;quot;default&amp;quot;,&amp;quot;value&amp;quot;:&amp;quot;&amp;quot;},{&amp;quot;name&amp;quot;:&amp;quot;名称&amp;quot;,&amp;quot;id&amp;quot;:&amp;quot;cnKhJyZqtP090843&amp;quot;,&amp;quot;type&amp;quot;:&amp;quot;string&amp;quot;,&amp;quot;category&amp;quot;:&amp;quot;default&amp;quot;,&amp;quot;value&amp;quot;:&amp;quot;&amp;quot;},{&amp;quot;name&amp;quot;:&amp;quot;所有者&amp;quot;,&amp;quot;id&amp;quot;:&amp;quot;iTwBpcjOSf611650&amp;quot;,&amp;quot;type&amp;quot;:&amp;quot;string&amp;quot;,&amp;quot;category&amp;quot;:&amp;quot;default&amp;quot;,&amp;quot;value&amp;quot;:&amp;quot;&amp;quot;},{&amp;quot;name&amp;quot;:&amp;quot;连接&amp;quot;,&amp;quot;id&amp;quot;:&amp;quot;YSATAJHzdJ072436&amp;quot;,&amp;quot;type&amp;quot;:&amp;quot;link&amp;quot;,&amp;quot;category&amp;quot;:&amp;quot;default&amp;quot;,&amp;quot;value&amp;quot;:&amp;quot;&amp;quot;},{&amp;quot;name&amp;quot;:&amp;quot;便笺&amp;quot;,&amp;quot;id&amp;quot;:&amp;quot;fnGVmowWEY199716&amp;quot;,&amp;quot;type&amp;quot;:&amp;quot;string&amp;quot;,&amp;quot;category&amp;quot;:&amp;quot;default&amp;quot;,&amp;quot;value&amp;quot;:&amp;quot;&amp;quot;}],&amp;quot;props&amp;quot;:{&amp;quot;zindex&amp;quot;:4,&amp;quot;w&amp;quot;:110,&amp;quot;x&amp;quot;:632.5,&amp;quot;h&amp;quot;:68,&amp;quot;y&amp;quot;:597,&amp;quot;angle&amp;quot;:0},&amp;quot;path&amp;quot;:[{&amp;quot;actions&amp;quot;:[{&amp;quot;x&amp;quot;:&amp;quot;Math.min(w,h)*0.29&amp;quot;,&amp;quot;action&amp;quot;:&amp;quot;move&amp;quot;,&amp;quot;y&amp;quot;:&amp;quot;0&amp;quot;},{&amp;quot;x&amp;quot;:&amp;quot;w-Math.min(w,h)*0.29&amp;quot;,&amp;quot;action&amp;quot;:&amp;quot;line&amp;quot;,&amp;quot;y&amp;quot;:&amp;quot;0&amp;quot;},{&amp;quot;x&amp;quot;:&amp;quot;w&amp;quot;,&amp;quot;action&amp;quot;:&amp;quot;line&amp;quot;,&amp;quot;y&amp;quot;:&amp;quot;h*0.29&amp;quot;},{&amp;quot;x&amp;quot;:&amp;quot;w&amp;quot;,&amp;quot;action&amp;quot;:&amp;quot;line&amp;quot;,&amp;quot;y&amp;quot;:&amp;quot;h*0.71&amp;quot;},{&amp;quot;x&amp;quot;:&amp;quot;w-Math.min(w,h)*0.29&amp;quot;,&amp;quot;action&amp;quot;:&amp;quot;line&amp;quot;,&amp;quot;y&amp;quot;:&amp;quot;h&amp;quot;},{&amp;quot;x&amp;quot;:&amp;quot;Math.min(w,h)*0.29&amp;quot;,&amp;quot;action&amp;quot;:&amp;quot;line&amp;quot;,&amp;quot;y&amp;quot;:&amp;quot;h&amp;quot;},{&amp;quot;x&amp;quot;:&amp;quot;0&amp;quot;,&amp;quot;action&amp;quot;:&amp;quot;line&amp;quot;,&amp;quot;y&amp;quot;:&amp;quot;h*0.71&amp;quot;},{&amp;quot;x&amp;quot;:&amp;quot;0&amp;quot;,&amp;quot;action&amp;quot;:&amp;quot;line&amp;quot;,&amp;quot;y&amp;quot;:&amp;quot;h*0.29&amp;quot;},{&amp;quot;action&amp;quot;:&amp;quot;close&amp;quot;}]}],&amp;quot;lineStyle&amp;quot;:{&amp;quot;lineWidth&amp;quot;:1.5},&amp;quot;children&amp;quot;:[],&amp;quot;resizeDir&amp;quot;:[&amp;quot;tl&amp;quot;,&amp;quot;tr&amp;quot;,&amp;quot;br&amp;quot;,&amp;quot;bl&amp;quot;,&amp;quot;l&amp;quot;,&amp;quot;t&amp;quot;,&amp;quot;r&amp;quot;,&amp;quot;b&amp;quot;],&amp;quot;name&amp;quot;:&amp;quot;octagon&amp;quot;,&amp;quot;fillStyle&amp;quot;:{},&amp;quot;theme&amp;quot;:{},&amp;quot;id&amp;quot;:&amp;quot;XCjjEeQEmT496668&amp;quot;,&amp;quot;attribute&amp;quot;:{&amp;quot;container&amp;quot;:false,&amp;quot;rotatable&amp;quot;:true,&amp;quot;visible&amp;quot;:true,&amp;quot;fixedLink&amp;quot;:false,&amp;quot;collapsable&amp;quot;:false,&amp;quot;collapsed&amp;quot;:false,&amp;quot;linkable&amp;quot;:true,&amp;quot;markerOffset&amp;quot;:5},&amp;quot;category&amp;quot;:&amp;quot;basic&amp;quot;,&amp;quot;locked&amp;quot;:false,&amp;quot;group&amp;quot;:&amp;quot;&amp;quot;},{&amp;quot;textBlock&amp;quot;:[],&amp;quot;props&amp;quot;:{&amp;quot;zindex&amp;quot;:5},&amp;quot;dataAttributes&amp;quot;:[],&amp;quot;points&amp;quot;:[{&amp;quot;x&amp;quot;:448,&amp;quot;y&amp;quot;:631}],&amp;quot;linkerType&amp;quot;:&amp;quot;broken&amp;quot;,&amp;quot;lineStyle&amp;quot;:{&amp;quot;lineWidth&amp;quot;:1.5},&amp;quot;name&amp;quot;:&amp;quot;linker&amp;quot;,&amp;quot;from&amp;quot;:{&amp;quot;x&amp;quot;:448,&amp;quot;y&amp;quot;:569.25,&amp;quot;angle&amp;quot;:4.71238898038469,&amp;quot;id&amp;quot;:&amp;quot;CzVwXZwMYd181285&amp;quot;},&amp;quot;to&amp;quot;:{&amp;quot;x&amp;quot;:632.5,&amp;quot;y&amp;quot;:631,&amp;quot;angle&amp;quot;:0,&amp;quot;id&amp;quot;:&amp;quot;XCjjEeQEmT496668&amp;quot;},&amp;quot;id&amp;quot;:&amp;quot;hVDNfOJtCN119423&amp;quot;,&amp;quot;text&amp;quot;:&amp;quot;&amp;quot;,&amp;quot;locked&amp;quot;:false,&amp;quot;group&amp;quot;:&amp;quot;&amp;quot;},{&amp;quot;textBlock&amp;quot;:[{&amp;quot;text&amp;quot;:&amp;quot;否&amp;quot;,&amp;quot;location&amp;quot;:0.5}],&amp;quot;props&amp;quot;:{&amp;quot;zindex&amp;quot;:6},&amp;quot;dataAttributes&amp;quot;:[],&amp;quot;points&amp;quot;:[{&amp;quot;x&amp;quot;:576,&amp;quot;y&amp;quot;:508},{&amp;quot;x&amp;quot;:576,&amp;quot;y&amp;quot;:508}],&amp;quot;linkerType&amp;quot;:&amp;quot;broken&amp;quot;,&amp;quot;lineStyle&amp;quot;:{&amp;quot;lineWidth&amp;quot;:1.5},&amp;quot;name&amp;quot;:&amp;quot;linker&amp;quot;,&amp;quot;from&amp;quot;:{&amp;quot;x&amp;quot;:532,&amp;quot;y&amp;quot;:508,&amp;quot;angle&amp;quot;:3.1415926535897936,&amp;quot;id&amp;quot;:&amp;quot;CzVwXZwMYd181285&amp;quot;},&amp;quot;textPos&amp;quot;:{&amp;quot;t&amp;quot;:20,&amp;quot;x&amp;quot;:591,&amp;quot;y&amp;quot;:289},&amp;quot;to&amp;quot;:{&amp;quot;x&amp;quot;:620,&amp;quot;y&amp;quot;:508,&amp;quot;angle&amp;quot;:0,&amp;quot;id&amp;quot;:&amp;quot;HuQzZFdPqZ196575&amp;quot;},&amp;quot;id&amp;quot;:&amp;quot;IRpHAfrGxO275720&amp;quot;,&amp;quot;text&amp;quot;:&amp;quot;否&amp;quot;,&amp;quot;locked&amp;quot;:false,&amp;quot;group&amp;quot;:&amp;quot;&amp;quot;},{&amp;quot;textBlock&amp;quot;:[{&amp;quot;text&amp;quot;:&amp;quot;是&amp;quot;,&amp;quot;location&amp;quot;:0.5912129894937918}],&amp;quot;props&amp;quot;:{&amp;quot;zindex&amp;quot;:7},&amp;quot;dataAttributes&amp;quot;:[],&amp;quot;points&amp;quot;:[{&amp;quot;x&amp;quot;:448,&amp;quot;y&amp;quot;:357,&amp;quot;fixed&amp;quot;:true}],&amp;quot;linkerType&amp;quot;:&amp;quot;broken&amp;quot;,&amp;quot;lineStyle&amp;quot;:{&amp;quot;lineWidth&amp;quot;:1.5},&amp;quot;name&amp;quot;:&amp;quot;linker&amp;quot;,&amp;quot;from&amp;quot;:{&amp;quot;x&amp;quot;:448,&amp;quot;y&amp;quot;:446.75,&amp;quot;angle&amp;quot;:1.5707963267948966,&amp;quot;id&amp;quot;:&amp;quot;CzVwXZwMYd181285&amp;quot;},&amp;quot;textPos&amp;quot;:{&amp;quot;t&amp;quot;:31,&amp;quot;x&amp;quot;:509.2,&amp;quot;y&amp;quot;:138},&amp;quot;to&amp;quot;:{&amp;quot;x&amp;quot;:616,&amp;quot;y&amp;quot;:357,&amp;quot;angle&amp;quot;:0,&amp;quot;id&amp;quot;:&amp;quot;puZtoSxKfk606950&amp;quot;},&amp;quot;id&amp;quot;:&amp;quot;LOiPZKRezY249493&amp;quot;,&amp;quot;text&amp;quot;:&amp;quot;是&amp;quot;,&amp;quot;locked&amp;quot;:false,&amp;quot;group&amp;quot;:&amp;quot;&amp;quot;},{&amp;quot;parent&amp;quot;:&amp;quot;&amp;quot;,&amp;quot;link&amp;quot;:&amp;quot;&amp;quot;,&amp;quot;shapeStyle&amp;quot;:{&amp;quot;alpha&amp;quot;:1},&amp;quot;textBlock&amp;quot;:[{&amp;quot;position&amp;quot;:{&amp;quot;w&amp;quot;:&amp;quot;w-20&amp;quot;,&amp;quot;x&amp;quot;:10,&amp;quot;h&amp;quot;:&amp;quot;h&amp;quot;,&amp;quot;y&amp;quot;:0},&amp;quot;text&amp;quot;:&amp;quot;将用户问题直接发给大模型&amp;quot;}],&amp;quot;anchors&amp;quot;:[{&amp;quot;x&amp;quot;:&amp;quot;w/2&amp;quot;,&amp;quot;y&amp;quot;:&amp;quot;0&amp;quot;},{&amp;quot;x&amp;quot;:&amp;quot;w/2&amp;quot;,&amp;quot;y&amp;quot;:&amp;quot;h&amp;quot;},{&amp;quot;x&amp;quot;:&amp;quot;0&amp;quot;,&amp;quot;y&amp;quot;:&amp;quot;h/2&amp;quot;},{&amp;quot;x&amp;quot;:&amp;quot;w&amp;quot;,&amp;quot;y&amp;quot;:&amp;quot;h/2&amp;quot;}],&amp;quot;title&amp;quot;:&amp;quot;矩形&amp;quot;,&amp;quot;fontStyle&amp;quot;:{},&amp;quot;dataAttributes&amp;quot;:[{&amp;quot;name&amp;quot;:&amp;quot;序号&amp;quot;,&amp;quot;id&amp;quot;:&amp;quot;DuAWMgVzKQ009525&amp;quot;,&amp;quot;type&amp;quot;:&amp;quot;number&amp;quot;,&amp;quot;category&amp;quot;:&amp;quot;default&amp;quot;,&amp;quot;value&amp;quot;:&amp;quot;&amp;quot;},{&amp;quot;name&amp;quot;:&amp;quot;名称&amp;quot;,&amp;quot;id&amp;quot;:&amp;quot;tusJKJreBH308820&amp;quot;,&amp;quot;type&amp;quot;:&amp;quot;string&amp;quot;,&amp;quot;category&amp;quot;:&amp;quot;default&amp;quot;,&amp;quot;value&amp;quot;:&amp;quot;&amp;quot;},{&amp;quot;name&amp;quot;:&amp;quot;所有者&amp;quot;,&amp;quot;id&amp;quot;:&amp;quot;dymGhefhxj761975&amp;quot;,&amp;quot;type&amp;quot;:&amp;quot;string&amp;quot;,&amp;quot;category&amp;quot;:&amp;quot;default&amp;quot;,&amp;quot;value&amp;quot;:&amp;quot;&amp;quot;},{&amp;quot;name&amp;quot;:&amp;quot;连接&amp;quot;,&amp;quot;id&amp;quot;:&amp;quot;isnrsARQhV554905&amp;quot;,&amp;quot;type&amp;quot;:&amp;quot;link&amp;quot;,&amp;quot;category&amp;quot;:&amp;quot;default&amp;quot;,&amp;quot;value&amp;quot;:&amp;quot;&amp;quot;},{&amp;quot;name&amp;quot;:&amp;quot;便笺&amp;quot;,&amp;quot;id&amp;quot;:&amp;quot;SOgpNLJcUn726732&amp;quot;,&amp;quot;type&amp;quot;:&amp;quot;string&amp;quot;,&amp;quot;category&amp;quot;:&amp;quot;default&amp;quot;,&amp;quot;value&amp;quot;:&amp;quot;&amp;quot;}],&amp;quot;props&amp;quot;:{&amp;quot;zindex&amp;quot;:8,&amp;quot;w&amp;quot;:135,&amp;quot;x&amp;quot;:620,&amp;quot;h&amp;quot;:85,&amp;quot;y&amp;quot;:465.5,&amp;quot;angle&amp;quot;:0},&amp;quot;path&amp;quot;:[{&amp;quot;actions&amp;quot;:[{&amp;quot;x&amp;quot;:&amp;quot;0&amp;quot;,&amp;quot;action&amp;quot;:&amp;quot;move&amp;quot;,&amp;quot;y&amp;quot;:&amp;quot;0&amp;quot;},{&amp;quot;x&amp;quot;:&amp;quot;w&amp;quot;,&amp;quot;action&amp;quot;:&amp;quot;line&amp;quot;,&amp;quot;y&amp;quot;:&amp;quot;0&amp;quot;},{&amp;quot;x&amp;quot;:&amp;quot;w&amp;quot;,&amp;quot;action&amp;quot;:&amp;quot;line&amp;quot;,&amp;quot;y&amp;quot;:&amp;quot;h&amp;quot;},{&amp;quot;x&amp;quot;:&amp;quot;0&amp;quot;,&amp;quot;action&amp;quot;:&amp;quot;line&amp;quot;,&amp;quot;y&amp;quot;:&amp;quot;h&amp;quot;},{&amp;quot;action&amp;quot;:&amp;quot;close&amp;quot;}]}],&amp;quot;lineStyle&amp;quot;:{&amp;quot;lineWidth&amp;quot;:1.5},&amp;quot;children&amp;quot;:[],&amp;quot;resizeDir&amp;quot;:[&amp;quot;tl&amp;quot;,&amp;quot;tr&amp;quot;,&amp;quot;br&amp;quot;,&amp;quot;bl&amp;quot;,&amp;quot;l&amp;quot;,&amp;quot;t&amp;quot;,&amp;quot;r&amp;quot;,&amp;quot;b&amp;quot;],&amp;quot;name&amp;quot;:&amp;quot;rectangle&amp;quot;,&amp;quot;fillStyle&amp;quot;:{},&amp;quot;theme&amp;quot;:{},&amp;quot;id&amp;quot;:&amp;quot;HuQzZFdPqZ196575&amp;quot;,&amp;quot;attribute&amp;quot;:{&amp;quot;container&amp;quot;:false,&amp;quot;rotatable&amp;quot;:true,&amp;quot;visible&amp;quot;:true,&amp;quot;fixedLink&amp;quot;:false,&amp;quot;collapsable&amp;quot;:false,&amp;quot;collapsed&amp;quot;:false,&amp;quot;linkable&amp;quot;:true,&amp;quot;markerOffset&amp;quot;:5},&amp;quot;category&amp;quot;:&amp;quot;basic&amp;quot;,&amp;quot;locked&amp;quot;:false,&amp;quot;group&amp;quot;:&amp;quot;&amp;quot;},{&amp;quot;textBlock&amp;quot;:[],&amp;quot;props&amp;quot;:{&amp;quot;zindex&amp;quot;:9},&amp;quot;dataAttributes&amp;quot;:[],&amp;quot;points&amp;quot;:[{&amp;quot;x&amp;quot;:687.5,&amp;quot;y&amp;quot;:573.75},{&amp;quot;x&amp;quot;:687.5,&amp;quot;y&amp;quot;:573.75}],&amp;quot;linkerType&amp;quot;:&amp;quot;broken&amp;quot;,&amp;quot;lineStyle&amp;quot;:{&amp;quot;lineWidth&amp;quot;:1.5},&amp;quot;name&amp;quot;:&amp;quot;linker&amp;quot;,&amp;quot;from&amp;quot;:{&amp;quot;x&amp;quot;:687.5,&amp;quot;y&amp;quot;:550.5,&amp;quot;angle&amp;quot;:4.71238898038469,&amp;quot;id&amp;quot;:&amp;quot;HuQzZFdPqZ196575&amp;quot;},&amp;quot;to&amp;quot;:{&amp;quot;x&amp;quot;:687.5,&amp;quot;y&amp;quot;:597,&amp;quot;angle&amp;quot;:1.570796326794897,&amp;quot;id&amp;quot;:&amp;quot;XCjjEeQEmT496668&amp;quot;},&amp;quot;id&amp;quot;:&amp;quot;rVHtcfyYjG441417&amp;quot;,&amp;quot;text&amp;quot;:&amp;quot;&amp;quot;,&amp;quot;locked&amp;quot;:false,&amp;quot;group&amp;quot;:&amp;quot;&amp;quot;},{&amp;quot;textBlock&amp;quot;:[],&amp;quot;props&amp;quot;:{&amp;quot;zindex&amp;quot;:10},&amp;quot;dataAttributes&amp;quot;:[],&amp;quot;points&amp;quot;:[{&amp;quot;x&amp;quot;:839,&amp;quot;y&amp;quot;:508},{&amp;quot;x&amp;quot;:839,&amp;quot;y&amp;quot;:508}],&amp;quot;linkerType&amp;quot;:&amp;quot;broken&amp;quot;,&amp;quot;lineStyle&amp;quot;:{&amp;quot;lineWidth&amp;quot;:1.5},&amp;quot;name&amp;quot;:&amp;quot;linker&amp;quot;,&amp;quot;from&amp;quot;:{&amp;quot;x&amp;quot;:755,&amp;quot;y&amp;quot;:508,&amp;quot;angle&amp;quot;:3.1415926535897936,&amp;quot;id&amp;quot;:&amp;quot;HuQzZFdPqZ196575&amp;quot;},&amp;quot;to&amp;quot;:{&amp;quot;x&amp;quot;:923,&amp;quot;y&amp;quot;:508,&amp;quot;angle&amp;quot;:0,&amp;quot;id&amp;quot;:&amp;quot;CAZxCGrHzR752180&amp;quot;},&amp;quot;id&amp;quot;:&amp;quot;miSTFCMyqz294208&amp;quot;,&amp;quot;text&amp;quot;:&amp;quot;&amp;quot;,&amp;quot;locked&amp;quot;:false,&amp;quot;group&amp;quot;:&amp;quot;&amp;quot;},{&amp;quot;parent&amp;quot;:&amp;quot;&amp;quot;,&amp;quot;link&amp;quot;:&amp;quot;&amp;quot;,&amp;quot;shapeStyle&amp;quot;:{&amp;quot;alpha&amp;quot;:1},&amp;quot;textBlock&amp;quot;:[{&amp;quot;position&amp;quot;:{&amp;quot;w&amp;quot;:&amp;quot;w-20&amp;quot;,&amp;quot;x&amp;quot;:10,&amp;quot;h&amp;quot;:&amp;quot;h&amp;quot;,&amp;quot;y&amp;quot;:0},&amp;quot;text&amp;quot;:&amp;quot;模型返回内容给用户&amp;quot;}],&amp;quot;anchors&amp;quot;:[{&amp;quot;x&amp;quot;:&amp;quot;w/2&amp;quot;,&amp;quot;y&amp;quot;:&amp;quot;0&amp;quot;},{&amp;quot;x&amp;quot;:&amp;quot;w/2&amp;quot;,&amp;quot;y&amp;quot;:&amp;quot;h&amp;quot;},{&amp;quot;x&amp;quot;:&amp;quot;0&amp;quot;,&amp;quot;y&amp;quot;:&amp;quot;h/2&amp;quot;},{&amp;quot;x&amp;quot;:&amp;quot;w&amp;quot;,&amp;quot;y&amp;quot;:&amp;quot;h/2&amp;quot;}],&amp;quot;title&amp;quot;:&amp;quot;矩形&amp;quot;,&amp;quot;fontStyle&amp;quot;:{},&amp;quot;dataAttributes&amp;quot;:[{&amp;quot;name&amp;quot;:&amp;quot;序号&amp;quot;,&amp;quot;id&amp;quot;:&amp;quot;JhoGgUZocb637938&amp;quot;,&amp;quot;type&amp;quot;:&amp;quot;number&amp;quot;,&amp;quot;category&amp;quot;:&amp;quot;default&amp;quot;,&amp;quot;value&amp;quot;:&amp;quot;&amp;quot;},{&amp;quot;name&amp;quot;:&amp;quot;名称&amp;quot;,&amp;quot;id&amp;quot;:&amp;quot;tFvcNPisNO122799&amp;quot;,&amp;quot;type&amp;quot;:&amp;quot;string&amp;quot;,&amp;quot;category&amp;quot;:&amp;quot;default&amp;quot;,&amp;quot;value&amp;quot;:&amp;quot;&amp;quot;},{&amp;quot;name&amp;quot;:&amp;quot;所有者&amp;quot;,&amp;quot;id&amp;quot;:&amp;quot;BQdqdGWxEi572660&amp;quot;,&amp;quot;type&amp;quot;:&amp;quot;string&amp;quot;,&amp;quot;category&amp;quot;:&amp;quot;default&amp;quot;,&amp;quot;value&amp;quot;:&amp;quot;&amp;quot;},{&amp;quot;name&amp;quot;:&amp;quot;连接&amp;quot;,&amp;quot;id&amp;quot;:&amp;quot;WiTSQnCjKZ483462&amp;quot;,&amp;quot;type&amp;quot;:&amp;quot;link&amp;quot;,&amp;quot;category&amp;quot;:&amp;quot;default&amp;quot;,&amp;quot;value&amp;quot;:&amp;quot;&amp;quot;},{&amp;quot;name&amp;quot;:&amp;quot;便笺&amp;quot;,&amp;quot;id&amp;quot;:&amp;quot;mJEaZlcSKT891777&amp;quot;,&amp;quot;type&amp;quot;:&amp;quot;string&amp;quot;,&amp;quot;category&amp;quot;:&amp;quot;default&amp;quot;,&amp;quot;value&amp;quot;:&amp;quot;&amp;quot;}],&amp;quot;props&amp;quot;:{&amp;quot;zindex&amp;quot;:11,&amp;quot;w&amp;quot;:96,&amp;quot;x&amp;quot;:923,&amp;quot;h&amp;quot;:54,&amp;quot;y&amp;quot;:481,&amp;quot;angle&amp;quot;:0},&amp;quot;path&amp;quot;:[{&amp;quot;actions&amp;quot;:[{&amp;quot;x&amp;quot;:&amp;quot;0&amp;quot;,&amp;quot;action&amp;quot;:&amp;quot;move&amp;quot;,&amp;quot;y&amp;quot;:&amp;quot;0&amp;quot;},{&amp;quot;x&amp;quot;:&amp;quot;w&amp;quot;,&amp;quot;action&amp;quot;:&amp;quot;line&amp;quot;,&amp;quot;y&amp;quot;:&amp;quot;0&amp;quot;},{&amp;quot;x&amp;quot;:&amp;quot;w&amp;quot;,&amp;quot;action&amp;quot;:&amp;quot;line&amp;quot;,&amp;quot;y&amp;quot;:&amp;quot;h&amp;quot;},{&amp;quot;x&amp;quot;:&amp;quot;0&amp;quot;,&amp;quot;action&amp;quot;:&amp;quot;line&amp;quot;,&amp;quot;y&amp;quot;:&amp;quot;h&amp;quot;},{&amp;quot;action&amp;quot;:&amp;quot;close&amp;quot;}]}],&amp;quot;lineStyle&amp;quot;:{&amp;quot;lineWidth&amp;quot;:1.5},&amp;quot;children&amp;quot;:[],&amp;quot;resizeDir&amp;quot;:[&amp;quot;tl&amp;quot;,&amp;quot;tr&amp;quot;,&amp;quot;br&amp;quot;,&amp;quot;bl&amp;quot;,&amp;quot;l&amp;quot;,&amp;quot;t&amp;quot;,&amp;quot;r&amp;quot;,&amp;quot;b&amp;quot;],&amp;quot;name&amp;quot;:&amp;quot;rectangle&amp;quot;,&amp;quot;fillStyle&amp;quot;:{},&amp;quot;theme&amp;quot;:{},&amp;quot;id&amp;quot;:&amp;quot;CAZxCGrHzR752180&amp;quot;,&amp;quot;attribute&amp;quot;:{&amp;quot;container&amp;quot;:false,&amp;quot;rotatable&amp;quot;:true,&amp;quot;visible&amp;quot;:true,&amp;quot;fixedLink&amp;quot;:false,&amp;quot;collapsable&amp;quot;:false,&amp;quot;collapsed&amp;quot;:false,&amp;quot;linkable&amp;quot;:true,&amp;quot;markerOffset&amp;quot;:5},&amp;quot;category&amp;quot;:&amp;quot;basic&amp;quot;,&amp;quot;locked&amp;quot;:false,&amp;quot;group&amp;quot;:&amp;quot;&amp;quot;},{&amp;quot;parent&amp;quot;:&amp;quot;&amp;quot;,&amp;quot;link&amp;quot;:&amp;quot;&amp;quot;,&amp;quot;shapeStyle&amp;quot;:{&amp;quot;alpha&amp;quot;:1},&amp;quot;textBlock&amp;quot;:[{&amp;quot;position&amp;quot;:{&amp;quot;w&amp;quot;:&amp;quot;w-20&amp;quot;,&amp;quot;x&amp;quot;:10,&amp;quot;h&amp;quot;:&amp;quot;h&amp;quot;,&amp;quot;y&amp;quot;:0},&amp;quot;text&amp;quot;:&amp;quot;调用embedding模型去检索知识库（混合检索）&amp;quot;}],&amp;quot;anchors&amp;quot;:[{&amp;quot;x&amp;quot;:&amp;quot;w/2&amp;quot;,&amp;quot;y&amp;quot;:&amp;quot;0&amp;quot;},{&amp;quot;x&amp;quot;:&amp;quot;w/2&amp;quot;,&amp;quot;y&amp;quot;:&amp;quot;h&amp;quot;},{&amp;quot;x&amp;quot;:&amp;quot;0&amp;quot;,&amp;quot;y&amp;quot;:&amp;quot;h/2&amp;quot;},{&amp;quot;x&amp;quot;:&amp;quot;w&amp;quot;,&amp;quot;y&amp;quot;:&amp;quot;h/2&amp;quot;}],&amp;quot;title&amp;quot;:&amp;quot;矩形&amp;quot;,&amp;quot;fontStyle&amp;quot;:{},&amp;quot;dataAttributes&amp;quot;:[{&amp;quot;name&amp;quot;:&amp;quot;序号&amp;quot;,&amp;quot;id&amp;quot;:&amp;quot;OAGjPTHsqo317055&amp;quot;,&amp;quot;type&amp;quot;:&amp;quot;number&amp;quot;,&amp;quot;category&amp;quot;:&amp;quot;default&amp;quot;,&amp;quot;value&amp;quot;:&amp;quot;&amp;quot;},{&amp;quot;name&amp;quot;:&amp;quot;名称&amp;quot;,&amp;quot;id&amp;quot;:&amp;quot;WHjnHrALcy925704&amp;quot;,&amp;quot;type&amp;quot;:&amp;quot;string&amp;quot;,&amp;quot;category&amp;quot;:&amp;quot;default&amp;quot;,&amp;quot;value&amp;quot;:&amp;quot;&amp;quot;},{&amp;quot;name&amp;quot;:&amp;quot;所有者&amp;quot;,&amp;quot;id&amp;quot;:&amp;quot;NJUqUxXLJP691185&amp;quot;,&amp;quot;type&amp;quot;:&amp;quot;string&amp;quot;,&amp;quot;category&amp;quot;:&amp;quot;default&amp;quot;,&amp;quot;value&amp;quot;:&amp;quot;&amp;quot;},{&amp;quot;name&amp;quot;:&amp;quot;连接&amp;quot;,&amp;quot;id&amp;quot;:&amp;quot;yfTOnsAshu765169&amp;quot;,&amp;quot;type&amp;quot;:&amp;quot;link&amp;quot;,&amp;quot;category&amp;quot;:&amp;quot;default&amp;quot;,&amp;quot;value&amp;quot;:&amp;quot;&amp;quot;},{&amp;quot;name&amp;quot;:&amp;quot;便笺&amp;quot;,&amp;quot;id&amp;quot;:&amp;quot;SsUlYgzMGN562017&amp;quot;,&amp;quot;type&amp;quot;:&amp;quot;string&amp;quot;,&amp;quot;category&amp;quot;:&amp;quot;default&amp;quot;,&amp;quot;value&amp;quot;:&amp;quot;&amp;quot;}],&amp;quot;props&amp;quot;:{&amp;quot;zindex&amp;quot;:12,&amp;quot;w&amp;quot;:135,&amp;quot;x&amp;quot;:616,&amp;quot;h&amp;quot;:80,&amp;quot;y&amp;quot;:317,&amp;quot;angle&amp;quot;:0},&amp;quot;path&amp;quot;:[{&amp;quot;actions&amp;quot;:[{&amp;quot;x&amp;quot;:&amp;quot;0&amp;quot;,&amp;quot;action&amp;quot;:&amp;quot;move&amp;quot;,&amp;quot;y&amp;quot;:&amp;quot;0&amp;quot;},{&amp;quot;x&amp;quot;:&amp;quot;w&amp;quot;,&amp;quot;action&amp;quot;:&amp;quot;line&amp;quot;,&amp;quot;y&amp;quot;:&amp;quot;0&amp;quot;},{&amp;quot;x&amp;quot;:&amp;quot;w&amp;quot;,&amp;quot;action&amp;quot;:&amp;quot;line&amp;quot;,&amp;quot;y&amp;quot;:&amp;quot;h&amp;quot;},{&amp;quot;x&amp;quot;:&amp;quot;0&amp;quot;,&amp;quot;action&amp;quot;:&amp;quot;line&amp;quot;,&amp;quot;y&amp;quot;:&amp;quot;h&amp;quot;},{&amp;quot;action&amp;quot;:&amp;quot;close&amp;quot;}]}],&amp;quot;lineStyle&amp;quot;:{&amp;quot;lineWidth&amp;quot;:1.5},&amp;quot;children&amp;quot;:[],&amp;quot;resizeDir&amp;quot;:[&amp;quot;tl&amp;quot;,&amp;quot;tr&amp;quot;,&amp;quot;br&amp;quot;,&amp;quot;bl&amp;quot;,&amp;quot;l&amp;quot;,&amp;quot;t&amp;quot;,&amp;quot;r&amp;quot;,&amp;quot;b&amp;quot;],&amp;quot;name&amp;quot;:&amp;quot;rectangle&amp;quot;,&amp;quot;fillStyle&amp;quot;:{},&amp;quot;theme&amp;quot;:{},&amp;quot;id&amp;quot;:&amp;quot;puZtoSxKfk606950&amp;quot;,&amp;quot;attribute&amp;quot;:{&amp;quot;container&amp;quot;:false,&amp;quot;rotatable&amp;quot;:true,&amp;quot;visible&amp;quot;:true,&amp;quot;fixedLink&amp;quot;:false,&amp;quot;collapsable&amp;quot;:false,&amp;quot;collapsed&amp;quot;:false,&amp;quot;linkable&amp;quot;:true,&amp;quot;markerOffset&amp;quot;:5},&amp;quot;category&amp;quot;:&amp;quot;basic&amp;quot;,&amp;quot;locked&amp;quot;:false,&amp;quot;group&amp;quot;:&amp;quot;&amp;quot;},{&amp;quot;parent&amp;quot;:&amp;quot;&amp;quot;,&amp;quot;link&amp;quot;:&amp;quot;&amp;quot;,&amp;quot;shapeStyle&amp;quot;:{&amp;quot;alpha&amp;quot;:1},&amp;quot;textBlock&amp;quot;:[{&amp;quot;position&amp;quot;:{&amp;quot;w&amp;quot;:&amp;quot;w-20&amp;quot;,&amp;quot;x&amp;quot;:&amp;quot;10&amp;quot;,&amp;quot;h&amp;quot;:&amp;quot;h-20&amp;quot;,&amp;quot;y&amp;quot;:&amp;quot;10&amp;quot;},&amp;quot;text&amp;quot;:&amp;quot;embedding模型&amp;quot;}],&amp;quot;anchors&amp;quot;:[{&amp;quot;x&amp;quot;:&amp;quot;w/2&amp;quot;,&amp;quot;y&amp;quot;:&amp;quot;0&amp;quot;},{&amp;quot;x&amp;quot;:&amp;quot;w/2&amp;quot;,&amp;quot;y&amp;quot;:&amp;quot;h&amp;quot;},{&amp;quot;x&amp;quot;:&amp;quot;0&amp;quot;,&amp;quot;y&amp;quot;:&amp;quot;h/2&amp;quot;},{&amp;quot;x&amp;quot;:&amp;quot;w&amp;quot;,&amp;quot;y&amp;quot;:&amp;quot;h/2&amp;quot;}],&amp;quot;title&amp;quot;:&amp;quot;八边形&amp;quot;,&amp;quot;fontStyle&amp;quot;:{},&amp;quot;dataAttributes&amp;quot;:[{&amp;quot;name&amp;quot;:&amp;quot;序号&amp;quot;,&amp;quot;id&amp;quot;:&amp;quot;iYaYUyOMBv274101&amp;quot;,&amp;quot;type&amp;quot;:&amp;quot;number&amp;quot;,&amp;quot;category&amp;quot;:&amp;quot;default&amp;quot;,&amp;quot;value&amp;quot;:&amp;quot;&amp;quot;},{&amp;quot;name&amp;quot;:&amp;quot;名称&amp;quot;,&amp;quot;id&amp;quot;:&amp;quot;loGsGlnJgy588960&amp;quot;,&amp;quot;type&amp;quot;:&amp;quot;string&amp;quot;,&amp;quot;category&amp;quot;:&amp;quot;default&amp;quot;,&amp;quot;value&amp;quot;:&amp;quot;&amp;quot;},{&amp;quot;name&amp;quot;:&amp;quot;所有者&amp;quot;,&amp;quot;id&amp;quot;:&amp;quot;eLsKVjbKxB286939&amp;quot;,&amp;quot;type&amp;quot;:&amp;quot;string&amp;quot;,&amp;quot;category&amp;quot;:&amp;quot;default&amp;quot;,&amp;quot;value&amp;quot;:&amp;quot;&amp;quot;},{&amp;quot;name&amp;quot;:&amp;quot;连接&amp;quot;,&amp;quot;id&amp;quot;:&amp;quot;vbcRDTriqo942459&amp;quot;,&amp;quot;type&amp;quot;:&amp;quot;link&amp;quot;,&amp;quot;category&amp;quot;:&amp;quot;default&amp;quot;,&amp;quot;value&amp;quot;:&amp;quot;&amp;quot;},{&amp;quot;name&amp;quot;:&amp;quot;便笺&amp;quot;,&amp;quot;id&amp;quot;:&amp;quot;LVFHlQDFhT649371&amp;quot;,&amp;quot;type&amp;quot;:&amp;quot;string&amp;quot;,&amp;quot;category&amp;quot;:&amp;quot;default&amp;quot;,&amp;quot;value&amp;quot;:&amp;quot;&amp;quot;}],&amp;quot;props&amp;quot;:{&amp;quot;zindex&amp;quot;:13,&amp;quot;w&amp;quot;:121.5,&amp;quot;x&amp;quot;:469.5,&amp;quot;h&amp;quot;:79,&amp;quot;y&amp;quot;:206,&amp;quot;angle&amp;quot;:0},&amp;quot;path&amp;quot;:[{&amp;quot;actions&amp;quot;:[{&amp;quot;x&amp;quot;:&amp;quot;Math.min(w,h)*0.29&amp;quot;,&amp;quot;action&amp;quot;:&amp;quot;move&amp;quot;,&amp;quot;y&amp;quot;:&amp;quot;0&amp;quot;},{&amp;quot;x&amp;quot;:&amp;quot;w-Math.min(w,h)*0.29&amp;quot;,&amp;quot;action&amp;quot;:&amp;quot;line&amp;quot;,&amp;quot;y&amp;quot;:&amp;quot;0&amp;quot;},{&amp;quot;x&amp;quot;:&amp;quot;w&amp;quot;,&amp;quot;action&amp;quot;:&amp;quot;line&amp;quot;,&amp;quot;y&amp;quot;:&amp;quot;h*0.29&amp;quot;},{&amp;quot;x&amp;quot;:&amp;quot;w&amp;quot;,&amp;quot;action&amp;quot;:&amp;quot;line&amp;quot;,&amp;quot;y&amp;quot;:&amp;quot;h*0.71&amp;quot;},{&amp;quot;x&amp;quot;:&amp;quot;w-Math.min(w,h)*0.29&amp;quot;,&amp;quot;action&amp;quot;:&amp;quot;line&amp;quot;,&amp;quot;y&amp;quot;:&amp;quot;h&amp;quot;},{&amp;quot;x&amp;quot;:&amp;quot;Math.min(w,h)*0.29&amp;quot;,&amp;quot;action&amp;quot;:&amp;quot;line&amp;quot;,&amp;quot;y&amp;quot;:&amp;quot;h&amp;quot;},{&amp;quot;x&amp;quot;:&amp;quot;0&amp;quot;,&amp;quot;action&amp;quot;:&amp;quot;line&amp;quot;,&amp;quot;y&amp;quot;:&amp;quot;h*0.71&amp;quot;},{&amp;quot;x&amp;quot;:&amp;quot;0&amp;quot;,&amp;quot;action&amp;quot;:&amp;quot;line&amp;quot;,&amp;quot;y&amp;quot;:&amp;quot;h*0.29&amp;quot;},{&amp;quot;action&amp;quot;:&amp;quot;close&amp;quot;}]}],&amp;quot;lineStyle&amp;quot;:{&amp;quot;lineWidth&amp;quot;:1.5},&amp;quot;children&amp;quot;:[],&amp;quot;resizeDir&amp;quot;:[&amp;quot;tl&amp;quot;,&amp;quot;tr&amp;quot;,&amp;quot;br&amp;quot;,&amp;quot;bl&amp;quot;,&amp;quot;l&amp;quot;,&amp;quot;t&amp;quot;,&amp;quot;r&amp;quot;,&amp;quot;b&amp;quot;],&amp;quot;name&amp;quot;:&amp;quot;octagon&amp;quot;,&amp;quot;fillStyle&amp;quot;:{},&amp;quot;theme&amp;quot;:{},&amp;quot;id&amp;quot;:&amp;quot;MXdzUICrNB032429&amp;quot;,&amp;quot;attribute&amp;quot;:{&amp;quot;container&amp;quot;:false,&amp;quot;rotatable&amp;quot;:true,&amp;quot;visible&amp;quot;:true,&amp;quot;fixedLink&amp;quot;:false,&amp;quot;collapsable&amp;quot;:false,&amp;quot;collapsed&amp;quot;:false,&amp;quot;linkable&amp;quot;:true,&amp;quot;markerOffset&amp;quot;:5},&amp;quot;category&amp;quot;:&amp;quot;basic&amp;quot;,&amp;quot;locked&amp;quot;:false,&amp;quot;group&amp;quot;:&amp;quot;&amp;quot;},{&amp;quot;textBlock&amp;quot;:[],&amp;quot;props&amp;quot;:{&amp;quot;zindex&amp;quot;:14},&amp;quot;dataAttributes&amp;quot;:[],&amp;quot;points&amp;quot;:[{&amp;quot;x&amp;quot;:683.5,&amp;quot;y&amp;quot;:245.5}],&amp;quot;linkerType&amp;quot;:&amp;quot;broken&amp;quot;,&amp;quot;lineStyle&amp;quot;:{&amp;quot;lineWidth&amp;quot;:1.5},&amp;quot;name&amp;quot;:&amp;quot;linker&amp;quot;,&amp;quot;from&amp;quot;:{&amp;quot;x&amp;quot;:683.5,&amp;quot;y&amp;quot;:317,&amp;quot;angle&amp;quot;:1.570796326794897,&amp;quot;id&amp;quot;:&amp;quot;puZtoSxKfk606950&amp;quot;},&amp;quot;to&amp;quot;:{&amp;quot;x&amp;quot;:591,&amp;quot;y&amp;quot;:245.5,&amp;quot;angle&amp;quot;:3.1415926535897936,&amp;quot;id&amp;quot;:&amp;quot;MXdzUICrNB032429&amp;quot;},&amp;quot;id&amp;quot;:&amp;quot;XFGxpeuIfg249862&amp;quot;,&amp;quot;text&amp;quot;:&amp;quot;&amp;quot;,&amp;quot;locked&amp;quot;:false,&amp;quot;group&amp;quot;:&amp;quot;&amp;quot;},{&amp;quot;parent&amp;quot;:&amp;quot;&amp;quot;,&amp;quot;link&amp;quot;:&amp;quot;&amp;quot;,&amp;quot;shapeStyle&amp;quot;:{&amp;quot;alpha&amp;quot;:1},&amp;quot;textBlock&amp;quot;:[{&amp;quot;position&amp;quot;:{&amp;quot;w&amp;quot;:&amp;quot;w&amp;quot;,&amp;quot;x&amp;quot;:&amp;quot;0&amp;quot;,&amp;quot;h&amp;quot;:&amp;quot;h*0.8&amp;quot;,&amp;quot;y&amp;quot;:&amp;quot;0&amp;quot;},&amp;quot;text&amp;quot;:&amp;quot;东北知识库&amp;quot;}],&amp;quot;anchors&amp;quot;:[{&amp;quot;x&amp;quot;:&amp;quot;w/2&amp;quot;,&amp;quot;y&amp;quot;:&amp;quot;0&amp;quot;},{&amp;quot;x&amp;quot;:&amp;quot;w/2&amp;quot;,&amp;quot;y&amp;quot;:&amp;quot;h&amp;quot;},{&amp;quot;x&amp;quot;:&amp;quot;0&amp;quot;,&amp;quot;y&amp;quot;:&amp;quot;h/2&amp;quot;},{&amp;quot;x&amp;quot;:&amp;quot;w&amp;quot;,&amp;quot;y&amp;quot;:&amp;quot;h/2&amp;quot;}],&amp;quot;title&amp;quot;:&amp;quot;数据库&amp;quot;,&amp;quot;fontStyle&amp;quot;:{},&amp;quot;dataAttributes&amp;quot;:[{&amp;quot;name&amp;quot;:&amp;quot;序号&amp;quot;,&amp;quot;id&amp;quot;:&amp;quot;HOgIJgcBOS261199&amp;quot;,&amp;quot;type&amp;quot;:&amp;quot;number&amp;quot;,&amp;quot;category&amp;quot;:&amp;quot;default&amp;quot;,&amp;quot;value&amp;quot;:&amp;quot;&amp;quot;},{&amp;quot;name&amp;quot;:&amp;quot;名称&amp;quot;,&amp;quot;id&amp;quot;:&amp;quot;msqadPDWMq573754&amp;quot;,&amp;quot;type&amp;quot;:&amp;quot;string&amp;quot;,&amp;quot;category&amp;quot;:&amp;quot;default&amp;quot;,&amp;quot;value&amp;quot;:&amp;quot;&amp;quot;},{&amp;quot;name&amp;quot;:&amp;quot;所有者&amp;quot;,&amp;quot;id&amp;quot;:&amp;quot;ggeGtGoNaj210936&amp;quot;,&amp;quot;type&amp;quot;:&amp;quot;string&amp;quot;,&amp;quot;category&amp;quot;:&amp;quot;default&amp;quot;,&amp;quot;value&amp;quot;:&amp;quot;&amp;quot;},{&amp;quot;name&amp;quot;:&amp;quot;连接&amp;quot;,&amp;quot;id&amp;quot;:&amp;quot;ZeDnXntZEL318362&amp;quot;,&amp;quot;type&amp;quot;:&amp;quot;link&amp;quot;,&amp;quot;category&amp;quot;:&amp;quot;default&amp;quot;,&amp;quot;value&amp;quot;:&amp;quot;&amp;quot;},{&amp;quot;name&amp;quot;:&amp;quot;便笺&amp;quot;,&amp;quot;id&amp;quot;:&amp;quot;FRuEqxCUWI917044&amp;quot;,&amp;quot;type&amp;quot;:&amp;quot;string&amp;quot;,&amp;quot;category&amp;quot;:&amp;quot;default&amp;quot;,&amp;quot;value&amp;quot;:&amp;quot;&amp;quot;},{&amp;quot;name&amp;quot;:&amp;quot;成本&amp;quot;,&amp;quot;id&amp;quot;:&amp;quot;CKkUcixkpS746056&amp;quot;,&amp;quot;type&amp;quot;:&amp;quot;number&amp;quot;,&amp;quot;category&amp;quot;:&amp;quot;default&amp;quot;,&amp;quot;value&amp;quot;:&amp;quot;&amp;quot;},{&amp;quot;name&amp;quot;:&amp;quot;时间&amp;quot;,&amp;quot;id&amp;quot;:&amp;quot;pcjCpOVNEo082090&amp;quot;,&amp;quot;type&amp;quot;:&amp;quot;number&amp;quot;,&amp;quot;category&amp;quot;:&amp;quot;default&amp;quot;,&amp;quot;value&amp;quot;:&amp;quot;&amp;quot;},{&amp;quot;name&amp;quot;:&amp;quot;部门&amp;quot;,&amp;quot;id&amp;quot;:&amp;quot;xPAtdJaedz810809&amp;quot;,&amp;quot;type&amp;quot;:&amp;quot;string&amp;quot;,&amp;quot;category&amp;quot;:&amp;quot;default&amp;quot;,&amp;quot;value&amp;quot;:&amp;quot;&amp;quot;},{&amp;quot;name&amp;quot;:&amp;quot;输入&amp;quot;,&amp;quot;id&amp;quot;:&amp;quot;AYGRTrSRQQ991914&amp;quot;,&amp;quot;type&amp;quot;:&amp;quot;string&amp;quot;,&amp;quot;category&amp;quot;:&amp;quot;default&amp;quot;,&amp;quot;value&amp;quot;:&amp;quot;&amp;quot;},{&amp;quot;name&amp;quot;:&amp;quot;输出&amp;quot;,&amp;quot;id&amp;quot;:&amp;quot;BnqNBSxGwy010394&amp;quot;,&amp;quot;type&amp;quot;:&amp;quot;string&amp;quot;,&amp;quot;category&amp;quot;:&amp;quot;default&amp;quot;,&amp;quot;value&amp;quot;:&amp;quot;&amp;quot;},{&amp;quot;name&amp;quot;:&amp;quot;风险&amp;quot;,&amp;quot;id&amp;quot;:&amp;quot;IdQzXMTxsZ503325&amp;quot;,&amp;quot;type&amp;quot;:&amp;quot;string&amp;quot;,&amp;quot;category&amp;quot;:&amp;quot;default&amp;quot;,&amp;quot;value&amp;quot;:&amp;quot;&amp;quot;},{&amp;quot;name&amp;quot;:&amp;quot;备注&amp;quot;,&amp;quot;id&amp;quot;:&amp;quot;attFokwNtI182918&amp;quot;,&amp;quot;type&amp;quot;:&amp;quot;string&amp;quot;,&amp;quot;category&amp;quot;:&amp;quot;default&amp;quot;,&amp;quot;value&amp;quot;:&amp;quot;&amp;quot;}],&amp;quot;props&amp;quot;:{&amp;quot;zindex&amp;quot;:15,&amp;quot;w&amp;quot;:70,&amp;quot;x&amp;quot;:787,&amp;quot;h&amp;quot;:80,&amp;quot;y&amp;quot;:205.5,&amp;quot;angle&amp;quot;:0},&amp;quot;path&amp;quot;:[{&amp;quot;actions&amp;quot;:[{&amp;quot;x&amp;quot;:&amp;quot;0&amp;quot;,&amp;quot;action&amp;quot;:&amp;quot;move&amp;quot;,&amp;quot;y&amp;quot;:&amp;quot;Math.min(w,h)/6&amp;quot;},{&amp;quot;x&amp;quot;:&amp;quot;0&amp;quot;,&amp;quot;action&amp;quot;:&amp;quot;line&amp;quot;,&amp;quot;y&amp;quot;:&amp;quot;h-Math.min(w,h)/6&amp;quot;},{&amp;quot;y1&amp;quot;:&amp;quot;h+Math.min(w,h)/22&amp;quot;,&amp;quot;x&amp;quot;:&amp;quot;w&amp;quot;,&amp;quot;action&amp;quot;:&amp;quot;curve&amp;quot;,&amp;quot;x1&amp;quot;:&amp;quot;0&amp;quot;,&amp;quot;y2&amp;quot;:&amp;quot;h+Math.min(w,h)/22&amp;quot;,&amp;quot;y&amp;quot;:&amp;quot;h-Math.min(w,h)/6&amp;quot;,&amp;quot;x2&amp;quot;:&amp;quot;w&amp;quot;},{&amp;quot;x&amp;quot;:&amp;quot;w&amp;quot;,&amp;quot;action&amp;quot;:&amp;quot;line&amp;quot;,&amp;quot;y&amp;quot;:&amp;quot;Math.min(w,h)/6&amp;quot;},{&amp;quot;y1&amp;quot;:&amp;quot;-Math.min(w,h)/22&amp;quot;,&amp;quot;x&amp;quot;:&amp;quot;0&amp;quot;,&amp;quot;action&amp;quot;:&amp;quot;curve&amp;quot;,&amp;quot;x1&amp;quot;:&amp;quot;w&amp;quot;,&amp;quot;y2&amp;quot;:&amp;quot;-Math.min(w,h)/22&amp;quot;,&amp;quot;y&amp;quot;:&amp;quot;Math.min(w,h)/6&amp;quot;,&amp;quot;x2&amp;quot;:&amp;quot;0&amp;quot;},{&amp;quot;action&amp;quot;:&amp;quot;close&amp;quot;},{&amp;quot;x&amp;quot;:&amp;quot;0&amp;quot;,&amp;quot;action&amp;quot;:&amp;quot;move&amp;quot;,&amp;quot;y&amp;quot;:&amp;quot;Math.min(w,h)/6&amp;quot;},{&amp;quot;y1&amp;quot;:&amp;quot;Math.min(w,h)/8*3&amp;quot;,&amp;quot;x&amp;quot;:&amp;quot;w&amp;quot;,&amp;quot;action&amp;quot;:&amp;quot;curve&amp;quot;,&amp;quot;x1&amp;quot;:&amp;quot;0&amp;quot;,&amp;quot;y2&amp;quot;:&amp;quot;Math.min(w,h)/8*3&amp;quot;,&amp;quot;y&amp;quot;:&amp;quot;Math.min(w,h)/6&amp;quot;,&amp;quot;x2&amp;quot;:&amp;quot;w&amp;quot;},{&amp;quot;y1&amp;quot;:&amp;quot;Math.min(w,h)/8*3&amp;quot;,&amp;quot;x&amp;quot;:&amp;quot;0&amp;quot;,&amp;quot;action&amp;quot;:&amp;quot;curve&amp;quot;,&amp;quot;x1&amp;quot;:&amp;quot;w&amp;quot;,&amp;quot;y2&amp;quot;:&amp;quot;Math.min(w,h)/8*3&amp;quot;,&amp;quot;y&amp;quot;:&amp;quot;Math.min(w,h)/6&amp;quot;,&amp;quot;x2&amp;quot;:&amp;quot;0&amp;quot;}]}],&amp;quot;lineStyle&amp;quot;:{&amp;quot;lineWidth&amp;quot;:1.5},&amp;quot;children&amp;quot;:[],&amp;quot;resizeDir&amp;quot;:[&amp;quot;tl&amp;quot;,&amp;quot;tr&amp;quot;,&amp;quot;br&amp;quot;,&amp;quot;bl&amp;quot;,&amp;quot;l&amp;quot;,&amp;quot;t&amp;quot;,&amp;quot;r&amp;quot;,&amp;quot;b&amp;quot;],&amp;quot;name&amp;quot;:&amp;quot;horizontalDirectData&amp;quot;,&amp;quot;fillStyle&amp;quot;:{},&amp;quot;theme&amp;quot;:{},&amp;quot;id&amp;quot;:&amp;quot;moEkFNcLdU238911&amp;quot;,&amp;quot;attribute&amp;quot;:{&amp;quot;container&amp;quot;:false,&amp;quot;rotatable&amp;quot;:true,&amp;quot;visible&amp;quot;:true,&amp;quot;fixedLink&amp;quot;:false,&amp;quot;collapsable&amp;quot;:false,&amp;quot;collapsed&amp;quot;:false,&amp;quot;linkable&amp;quot;:true,&amp;quot;markerOffset&amp;quot;:5},&amp;quot;category&amp;quot;:&amp;quot;flow&amp;quot;,&amp;quot;locked&amp;quot;:false,&amp;quot;group&amp;quot;:&amp;quot;&amp;quot;},{&amp;quot;textBlock&amp;quot;:[],&amp;quot;props&amp;quot;:{&amp;quot;zindex&amp;quot;:16},&amp;quot;dataAttributes&amp;quot;:[],&amp;quot;points&amp;quot;:[{&amp;quot;x&amp;quot;:683.5,&amp;quot;y&amp;quot;:245.5}],&amp;quot;linkerType&amp;quot;:&amp;quot;broken&amp;quot;,&amp;quot;lineStyle&amp;quot;:{&amp;quot;lineWidth&amp;quot;:1.5},&amp;quot;name&amp;quot;:&amp;quot;linker&amp;quot;,&amp;quot;from&amp;quot;:{&amp;quot;x&amp;quot;:683.5,&amp;quot;y&amp;quot;:317,&amp;quot;angle&amp;quot;:1.570796326794897,&amp;quot;id&amp;quot;:&amp;quot;puZtoSxKfk606950&amp;quot;},&amp;quot;to&amp;quot;:{&amp;quot;x&amp;quot;:787,&amp;quot;y&amp;quot;:245.5,&amp;quot;angle&amp;quot;:0,&amp;quot;id&amp;quot;:&amp;quot;moEkFNcLdU238911&amp;quot;},&amp;quot;id&amp;quot;:&amp;quot;mQYtjiPMos739629&amp;quot;,&amp;quot;text&amp;quot;:&amp;quot;&amp;quot;,&amp;quot;locked&amp;quot;:false,&amp;quot;group&amp;quot;:&amp;quot;&amp;quot;},{&amp;quot;parent&amp;quot;:&amp;quot;&amp;quot;,&amp;quot;link&amp;quot;:&amp;quot;&amp;quot;,&amp;quot;shapeStyle&amp;quot;:{&amp;quot;alpha&amp;quot;:1},&amp;quot;textBlock&amp;quot;:[{&amp;quot;position&amp;quot;:{&amp;quot;w&amp;quot;:&amp;quot;w-20&amp;quot;,&amp;quot;x&amp;quot;:10,&amp;quot;h&amp;quot;:&amp;quot;h&amp;quot;,&amp;quot;y&amp;quot;:0},&amp;quot;text&amp;quot;:&amp;quot;用户提问+知识库引用 发给大模型&amp;quot;}],&amp;quot;anchors&amp;quot;:[{&amp;quot;x&amp;quot;:&amp;quot;w/2&amp;quot;,&amp;quot;y&amp;quot;:&amp;quot;0&amp;quot;},{&amp;quot;x&amp;quot;:&amp;quot;w/2&amp;quot;,&amp;quot;y&amp;quot;:&amp;quot;h&amp;quot;},{&amp;quot;x&amp;quot;:&amp;quot;0&amp;quot;,&amp;quot;y&amp;quot;:&amp;quot;h/2&amp;quot;},{&amp;quot;x&amp;quot;:&amp;quot;w&amp;quot;,&amp;quot;y&amp;quot;:&amp;quot;h/2&amp;quot;}],&amp;quot;title&amp;quot;:&amp;quot;矩形&amp;quot;,&amp;quot;fontStyle&amp;quot;:{},&amp;quot;dataAttributes&amp;quot;:[{&amp;quot;name&amp;quot;:&amp;quot;序号&amp;quot;,&amp;quot;id&amp;quot;:&amp;quot;eqJzrDvcMB954842&amp;quot;,&amp;quot;type&amp;quot;:&amp;quot;number&amp;quot;,&amp;quot;category&amp;quot;:&amp;quot;default&amp;quot;,&amp;quot;value&amp;quot;:&amp;quot;&amp;quot;},{&amp;quot;name&amp;quot;:&amp;quot;名称&amp;quot;,&amp;quot;id&amp;quot;:&amp;quot;UyxXisVDzr104166&amp;quot;,&amp;quot;type&amp;quot;:&amp;quot;string&amp;quot;,&amp;quot;category&amp;quot;:&amp;quot;default&amp;quot;,&amp;quot;value&amp;quot;:&amp;quot;&amp;quot;},{&amp;quot;name&amp;quot;:&amp;quot;所有者&amp;quot;,&amp;quot;id&amp;quot;:&amp;quot;gVZKHgjkPO661582&amp;quot;,&amp;quot;type&amp;quot;:&amp;quot;string&amp;quot;,&amp;quot;category&amp;quot;:&amp;quot;default&amp;quot;,&amp;quot;value&amp;quot;:&amp;quot;&amp;quot;},{&amp;quot;name&amp;quot;:&amp;quot;连接&amp;quot;,&amp;quot;id&amp;quot;:&amp;quot;ndYjrhcObz990020&amp;quot;,&amp;quot;type&amp;quot;:&amp;quot;link&amp;quot;,&amp;quot;category&amp;quot;:&amp;quot;default&amp;quot;,&amp;quot;value&amp;quot;:&amp;quot;&amp;quot;},{&amp;quot;name&amp;quot;:&amp;quot;便笺&amp;quot;,&amp;quot;id&amp;quot;:&amp;quot;jSnpmZLULY131124&amp;quot;,&amp;quot;type&amp;quot;:&amp;quot;string&amp;quot;,&amp;quot;category&amp;quot;:&amp;quot;default&amp;quot;,&amp;quot;value&amp;quot;:&amp;quot;&amp;quot;}],&amp;quot;props&amp;quot;:{&amp;quot;zindex&amp;quot;:17,&amp;quot;w&amp;quot;:121,&amp;quot;x&amp;quot;:806,&amp;quot;h&amp;quot;:80,&amp;quot;y&amp;quot;:317,&amp;quot;angle&amp;quot;:0},&amp;quot;path&amp;quot;:[{&amp;quot;actions&amp;quot;:[{&amp;quot;x&amp;quot;:&amp;quot;0&amp;quot;,&amp;quot;action&amp;quot;:&amp;quot;move&amp;quot;,&amp;quot;y&amp;quot;:&amp;quot;0&amp;quot;},{&amp;quot;x&amp;quot;:&amp;quot;w&amp;quot;,&amp;quot;action&amp;quot;:&amp;quot;line&amp;quot;,&amp;quot;y&amp;quot;:&amp;quot;0&amp;quot;},{&amp;quot;x&amp;quot;:&amp;quot;w&amp;quot;,&amp;quot;action&amp;quot;:&amp;quot;line&amp;quot;,&amp;quot;y&amp;quot;:&amp;quot;h&amp;quot;},{&amp;quot;x&amp;quot;:&amp;quot;0&amp;quot;,&amp;quot;action&amp;quot;:&amp;quot;line&amp;quot;,&amp;quot;y&amp;quot;:&amp;quot;h&amp;quot;},{&amp;quot;action&amp;quot;:&amp;quot;close&amp;quot;}]}],&amp;quot;lineStyle&amp;quot;:{&amp;quot;lineWidth&amp;quot;:1.5},&amp;quot;children&amp;quot;:[],&amp;quot;resizeDir&amp;quot;:[&amp;quot;tl&amp;quot;,&amp;quot;tr&amp;quot;,&amp;quot;br&amp;quot;,&amp;quot;bl&amp;quot;,&amp;quot;l&amp;quot;,&amp;quot;t&amp;quot;,&amp;quot;r&amp;quot;,&amp;quot;b&amp;quot;],&amp;quot;name&amp;quot;:&amp;quot;rectangle&amp;quot;,&amp;quot;fillStyle&amp;quot;:{},&amp;quot;theme&amp;quot;:{},&amp;quot;id&amp;quot;:&amp;quot;JFhcoeYlHs530838&amp;quot;,&amp;quot;attribute&amp;quot;:{&amp;quot;container&amp;quot;:false,&amp;quot;rotatable&amp;quot;:true,&amp;quot;visible&amp;quot;:true,&amp;quot;fixedLink&amp;quot;:false,&amp;quot;collapsable&amp;quot;:false,&amp;quot;collapsed&amp;quot;:false,&amp;quot;linkable&amp;quot;:true,&amp;quot;markerOffset&amp;quot;:5},&amp;quot;category&amp;quot;:&amp;quot;basic&amp;quot;,&amp;quot;locked&amp;quot;:false,&amp;quot;group&amp;quot;:&amp;quot;&amp;quot;},{&amp;quot;textBlock&amp;quot;:[],&amp;quot;props&amp;quot;:{&amp;quot;zindex&amp;quot;:18},&amp;quot;dataAttributes&amp;quot;:[],&amp;quot;points&amp;quot;:[{&amp;quot;x&amp;quot;:778.5,&amp;quot;y&amp;quot;:357},{&amp;quot;x&amp;quot;:778.5,&amp;quot;y&amp;quot;:357}],&amp;quot;linkerType&amp;quot;:&amp;quot;broken&amp;quot;,&amp;quot;lineStyle&amp;quot;:{&amp;quot;lineWidth&amp;quot;:1.5},&amp;quot;name&amp;quot;:&amp;quot;linker&amp;quot;,&amp;quot;from&amp;quot;:{&amp;quot;x&amp;quot;:751,&amp;quot;y&amp;quot;:357,&amp;quot;angle&amp;quot;:3.1415926535897936,&amp;quot;id&amp;quot;:&amp;quot;puZtoSxKfk606950&amp;quot;},&amp;quot;to&amp;quot;:{&amp;quot;x&amp;quot;:806,&amp;quot;y&amp;quot;:357,&amp;quot;angle&amp;quot;:0,&amp;quot;id&amp;quot;:&amp;quot;JFhcoeYlHs530838&amp;quot;},&amp;quot;id&amp;quot;:&amp;quot;xZtOnFqtFr030961&amp;quot;,&amp;quot;text&amp;quot;:&amp;quot;&amp;quot;,&amp;quot;locked&amp;quot;:false,&amp;quot;group&amp;quot;:&amp;quot;&amp;quot;},{&amp;quot;textBlock&amp;quot;:[],&amp;quot;props&amp;quot;:{&amp;quot;zindex&amp;quot;:19},&amp;quot;dataAttributes&amp;quot;:[],&amp;quot;points&amp;quot;:[{&amp;quot;x&amp;quot;:971,&amp;quot;y&amp;quot;:357}],&amp;quot;linkerType&amp;quot;:&amp;quot;broken&amp;quot;,&amp;quot;lineStyle&amp;quot;:{&amp;quot;lineWidth&amp;quot;:1.5},&amp;quot;name&amp;quot;:&amp;quot;linker&amp;quot;,&amp;quot;from&amp;quot;:{&amp;quot;x&amp;quot;:927,&amp;quot;y&amp;quot;:357,&amp;quot;angle&amp;quot;:3.1415926535897936,&amp;quot;id&amp;quot;:&amp;quot;JFhcoeYlHs530838&amp;quot;},&amp;quot;to&amp;quot;:{&amp;quot;x&amp;quot;:971,&amp;quot;y&amp;quot;:481,&amp;quot;angle&amp;quot;:1.570796326794897,&amp;quot;id&amp;quot;:&amp;quot;CAZxCGrHzR752180&amp;quot;},&amp;quot;id&amp;quot;:&amp;quot;qJeenmQWkR711026&amp;quot;,&amp;quot;text&amp;quot;:&amp;quot;&amp;quot;,&amp;quot;locked&amp;quot;:false,&amp;quot;group&amp;quot;:&amp;quot;&amp;quot;},{&amp;quot;textBlock&amp;quot;:[],&amp;quot;props&amp;quot;:{&amp;quot;zindex&amp;quot;:20},&amp;quot;dataAttributes&amp;quot;:[],&amp;quot;points&amp;quot;:[{&amp;quot;x&amp;quot;:866.5,&amp;quot;y&amp;quot;:631}],&amp;quot;linkerType&amp;quot;:&amp;quot;broken&amp;quot;,&amp;quot;lineStyle&amp;quot;:{&amp;quot;lineWidth&amp;quot;:1.5},&amp;quot;name&amp;quot;:&amp;quot;linker&amp;quot;,&amp;quot;from&amp;quot;:{&amp;quot;x&amp;quot;:866.5,&amp;quot;y&amp;quot;:397,&amp;quot;angle&amp;quot;:4.71238898038469,&amp;quot;id&amp;quot;:&amp;quot;JFhcoeYlHs530838&amp;quot;},&amp;quot;to&amp;quot;:{&amp;quot;x&amp;quot;:742.5,&amp;quot;y&amp;quot;:631,&amp;quot;angle&amp;quot;:3.1415926535897936,&amp;quot;id&amp;quot;:&amp;quot;XCjjEeQEmT496668&amp;quot;},&amp;quot;id&amp;quot;:&amp;quot;pcJvTxVYub776554&amp;quot;,&amp;quot;text&amp;quot;:&amp;quot;&amp;quot;,&amp;quot;locked&amp;quot;:false,&amp;quot;group&amp;quot;:&amp;quot;&amp;quot;},{&amp;quot;parent&amp;quot;:&amp;quot;&amp;quot;,&amp;quot;link&amp;quot;:&amp;quot;&amp;quot;,&amp;quot;shapeStyle&amp;quot;:{&amp;quot;alpha&amp;quot;:1},&amp;quot;textBlock&amp;quot;:[{&amp;quot;position&amp;quot;:{&amp;quot;w&amp;quot;:&amp;quot;w-20&amp;quot;,&amp;quot;x&amp;quot;:10,&amp;quot;h&amp;quot;:&amp;quot;h&amp;quot;,&amp;quot;y&amp;quot;:0},&amp;quot;text&amp;quot;:&amp;quot;文档&amp;quot;}],&amp;quot;anchors&amp;quot;:[{&amp;quot;x&amp;quot;:&amp;quot;w/2&amp;quot;,&amp;quot;y&amp;quot;:&amp;quot;0&amp;quot;},{&amp;quot;x&amp;quot;:&amp;quot;w/2&amp;quot;,&amp;quot;y&amp;quot;:&amp;quot;h&amp;quot;},{&amp;quot;x&amp;quot;:&amp;quot;0&amp;quot;,&amp;quot;y&amp;quot;:&amp;quot;h/2&amp;quot;},{&amp;quot;x&amp;quot;:&amp;quot;w&amp;quot;,&amp;quot;y&amp;quot;:&amp;quot;h/2&amp;quot;}],&amp;quot;title&amp;quot;:&amp;quot;矩形&amp;quot;,&amp;quot;fontStyle&amp;quot;:{},&amp;quot;dataAttributes&amp;quot;:[{&amp;quot;name&amp;quot;:&amp;quot;序号&amp;quot;,&amp;quot;id&amp;quot;:&amp;quot;TXCHBOzwXt674703&amp;quot;,&amp;quot;type&amp;quot;:&amp;quot;number&amp;quot;,&amp;quot;category&amp;quot;:&amp;quot;default&amp;quot;,&amp;quot;value&amp;quot;:&amp;quot;&amp;quot;},{&amp;quot;name&amp;quot;:&amp;quot;名称&amp;quot;,&amp;quot;id&amp;quot;:&amp;quot;vlQQRUkXul857430&amp;quot;,&amp;quot;type&amp;quot;:&amp;quot;string&amp;quot;,&amp;quot;category&amp;quot;:&amp;quot;default&amp;quot;,&amp;quot;value&amp;quot;:&amp;quot;&amp;quot;},{&amp;quot;name&amp;quot;:&amp;quot;所有者&amp;quot;,&amp;quot;id&amp;quot;:&amp;quot;AJrAjBKYZS800712&amp;quot;,&amp;quot;type&amp;quot;:&amp;quot;string&amp;quot;,&amp;quot;category&amp;quot;:&amp;quot;default&amp;quot;,&amp;quot;value&amp;quot;:&amp;quot;&amp;quot;},{&amp;quot;name&amp;quot;:&amp;quot;连接&amp;quot;,&amp;quot;id&amp;quot;:&amp;quot;VUropYTVMu510585&amp;quot;,&amp;quot;type&amp;quot;:&amp;quot;link&amp;quot;,&amp;quot;category&amp;quot;:&amp;quot;default&amp;quot;,&amp;quot;value&amp;quot;:&amp;quot;&amp;quot;},{&amp;quot;name&amp;quot;:&amp;quot;便笺&amp;quot;,&amp;quot;id&amp;quot;:&amp;quot;oevvNDEXJC336025&amp;quot;,&amp;quot;type&amp;quot;:&amp;quot;string&amp;quot;,&amp;quot;category&amp;quot;:&amp;quot;default&amp;quot;,&amp;quot;value&amp;quot;:&amp;quot;&amp;quot;}],&amp;quot;props&amp;quot;:{&amp;quot;zindex&amp;quot;:21,&amp;quot;w&amp;quot;:96,&amp;quot;x&amp;quot;:635.5,&amp;quot;h&amp;quot;:54,&amp;quot;y&amp;quot;:136,&amp;quot;angle&amp;quot;:0},&amp;quot;path&amp;quot;:[{&amp;quot;actions&amp;quot;:[{&amp;quot;x&amp;quot;:&amp;quot;0&amp;quot;,&amp;quot;action&amp;quot;:&amp;quot;move&amp;quot;,&amp;quot;y&amp;quot;:&amp;quot;0&amp;quot;},{&amp;quot;x&amp;quot;:&amp;quot;w&amp;quot;,&amp;quot;action&amp;quot;:&amp;quot;line&amp;quot;,&amp;quot;y&amp;quot;:&amp;quot;0&amp;quot;},{&amp;quot;x&amp;quot;:&amp;quot;w&amp;quot;,&amp;quot;action&amp;quot;:&amp;quot;line&amp;quot;,&amp;quot;y&amp;quot;:&amp;quot;h&amp;quot;},{&amp;quot;x&amp;quot;:&amp;quot;0&amp;quot;,&amp;quot;action&amp;quot;:&amp;quot;line&amp;quot;,&amp;quot;y&amp;quot;:&amp;quot;h&amp;quot;},{&amp;quot;action&amp;quot;:&amp;quot;close&amp;quot;}]}],&amp;quot;lineStyle&amp;quot;:{&amp;quot;lineWidth&amp;quot;:1.5},&amp;quot;children&amp;quot;:[],&amp;quot;resizeDir&amp;quot;:[&amp;quot;tl&amp;quot;,&amp;quot;tr&amp;quot;,&amp;quot;br&amp;quot;,&amp;quot;bl&amp;quot;,&amp;quot;l&amp;quot;,&amp;quot;t&amp;quot;,&amp;quot;r&amp;quot;,&amp;quot;b&amp;quot;],&amp;quot;name&amp;quot;:&amp;quot;rectangle&amp;quot;,&amp;quot;fillStyle&amp;quot;:{},&amp;quot;theme&amp;quot;:{},&amp;quot;id&amp;quot;:&amp;quot;LqVDTgLiPc202010&amp;quot;,&amp;quot;attribute&amp;quot;:{&amp;quot;container&amp;quot;:false,&amp;quot;rotatable&amp;quot;:true,&amp;quot;visible&amp;quot;:true,&amp;quot;fixedLink&amp;quot;:false,&amp;quot;collapsable&amp;quot;:false,&amp;quot;collapsed&amp;quot;:false,&amp;quot;linkable&amp;quot;:true,&amp;quot;markerOffset&amp;quot;:5},&amp;quot;category&amp;quot;:&amp;quot;basic&amp;quot;,&amp;quot;locked&amp;quot;:false,&amp;quot;group&amp;quot;:&amp;quot;&amp;quot;},{&amp;quot;textBlock&amp;quot;:[],&amp;quot;props&amp;quot;:{&amp;quot;zindex&amp;quot;:22},&amp;quot;dataAttributes&amp;quot;:[],&amp;quot;points&amp;quot;:[{&amp;quot;x&amp;quot;:530.25,&amp;quot;y&amp;quot;:163}],&amp;quot;linkerType&amp;quot;:&amp;quot;broken&amp;quot;,&amp;quot;lineStyle&amp;quot;:{&amp;quot;lineWidth&amp;quot;:1.5},&amp;quot;name&amp;quot;:&amp;quot;linker&amp;quot;,&amp;quot;from&amp;quot;:{&amp;quot;x&amp;quot;:635.5,&amp;quot;y&amp;quot;:163,&amp;quot;angle&amp;quot;:0,&amp;quot;id&amp;quot;:&amp;quot;LqVDTgLiPc202010&amp;quot;},&amp;quot;to&amp;quot;:{&amp;quot;x&amp;quot;:530.25,&amp;quot;y&amp;quot;:206,&amp;quot;angle&amp;quot;:1.570796326794897,&amp;quot;id&amp;quot;:&amp;quot;MXdzUICrNB032429&amp;quot;},&amp;quot;id&amp;quot;:&amp;quot;NTHuaqCDzZ383399&amp;quot;,&amp;quot;text&amp;quot;:&amp;quot;&amp;quot;,&amp;quot;locked&amp;quot;:false,&amp;quot;group&amp;quot;:&amp;quot;&amp;quot;},{&amp;quot;textBlock&amp;quot;:[],&amp;quot;props&amp;quot;:{&amp;quot;zindex&amp;quot;:23},&amp;quot;dataAttributes&amp;quot;:[],&amp;quot;points&amp;quot;:[{&amp;quot;x&amp;quot;:822,&amp;quot;y&amp;quot;:163}],&amp;quot;linkerType&amp;quot;:&amp;quot;broken&amp;quot;,&amp;quot;lineStyle&amp;quot;:{&amp;quot;lineWidth&amp;quot;:1.5},&amp;quot;name&amp;quot;:&amp;quot;linker&amp;quot;,&amp;quot;from&amp;quot;:{&amp;quot;x&amp;quot;:731.5,&amp;quot;y&amp;quot;:163,&amp;quot;angle&amp;quot;:3.1415926535897936,&amp;quot;id&amp;quot;:&amp;quot;LqVDTgLiPc202010&amp;quot;},&amp;quot;to&amp;quot;:{&amp;quot;x&amp;quot;:822,&amp;quot;y&amp;quot;:205.5,&amp;quot;angle&amp;quot;:1.5707963267948966,&amp;quot;id&amp;quot;:&amp;quot;moEkFNcLdU238911&amp;quot;},&amp;quot;id&amp;quot;:&amp;quot;nvuWexJByi164125&amp;quot;,&amp;quot;text&amp;quot;:&amp;quot;&amp;quot;,&amp;quot;locked&amp;quot;:false,&amp;quot;group&amp;quot;:&amp;quot;&amp;quot;}]}&quot; style=&quot;caret-color: rgb(0, 0, 0); color: rgb(0, 0, 0); font-style: normal; font-variant-caps: normal; font-weight: 400; letter-spacing: normal; orphans: auto; text-align: start; text-indent: 0px; text-transform: none; white-space: normal; widows: auto; word-spacing: 0px; -webkit-text-stroke-width: 0px; text-decoration: none;&quot;&gt;&lt;/div&gt;" id="0MTYDVpqmOvpyB6dmzOl-1">
          <mxCell style="text;whiteSpace=wrap;html=1;" vertex="1" parent="1">
            <mxGeometry x="340" y="220" width="30" height="20" as="geometry" />
          </mxCell>
        </UserObject>
        <mxCell id="0MTYDVpqmOvpyB6dmzOl-2" value="&lt;span style=&quot;caret-color: rgb(50, 50, 50); color: rgb(50, 50, 50); font-family: &amp;quot;Microsoft YaHei&amp;quot;, 微软雅黑, Arial; font-size: 13px; background-color: rgba(255, 255, 255, 0.01);&quot;&gt;用户提问&lt;/span&gt;" style="rounded=0;whiteSpace=wrap;html=1;" vertex="1" parent="1">
          <mxGeometry x="140" y="260" width="120" height="60" as="geometry" />
        </mxCell>
        <mxCell id="0MTYDVpqmOvpyB6dmzOl-11" value="" style="edgeStyle=orthogonalEdgeStyle;rounded=0;orthogonalLoop=1;jettySize=auto;html=1;" edge="1" parent="1" source="0MTYDVpqmOvpyB6dmzOl-3" target="0MTYDVpqmOvpyB6dmzOl-4">
          <mxGeometry relative="1" as="geometry" />
        </mxCell>
        <mxCell id="0MTYDVpqmOvpyB6dmzOl-30" value="否" style="edgeLabel;html=1;align=center;verticalAlign=middle;resizable=0;points=[];" vertex="1" connectable="0" parent="0MTYDVpqmOvpyB6dmzOl-11">
          <mxGeometry x="-0.2667" relative="1" as="geometry">
            <mxPoint as="offset" />
          </mxGeometry>
        </mxCell>
        <mxCell id="0MTYDVpqmOvpyB6dmzOl-25" style="edgeStyle=orthogonalEdgeStyle;rounded=0;orthogonalLoop=1;jettySize=auto;html=1;entryX=0;entryY=0.5;entryDx=0;entryDy=0;exitX=0.5;exitY=1;exitDx=0;exitDy=0;" edge="1" parent="1" source="0MTYDVpqmOvpyB6dmzOl-3" target="0MTYDVpqmOvpyB6dmzOl-5">
          <mxGeometry relative="1" as="geometry">
            <Array as="points">
              <mxPoint x="365" y="400" />
            </Array>
          </mxGeometry>
        </mxCell>
        <mxCell id="0MTYDVpqmOvpyB6dmzOl-27" style="edgeStyle=orthogonalEdgeStyle;rounded=0;orthogonalLoop=1;jettySize=auto;html=1;entryX=0;entryY=0.5;entryDx=0;entryDy=0;" edge="1" parent="1" source="0MTYDVpqmOvpyB6dmzOl-3" target="0MTYDVpqmOvpyB6dmzOl-7">
          <mxGeometry relative="1" as="geometry">
            <Array as="points">
              <mxPoint x="365" y="180" />
            </Array>
          </mxGeometry>
        </mxCell>
        <mxCell id="0MTYDVpqmOvpyB6dmzOl-28" value="是" style="edgeLabel;html=1;align=center;verticalAlign=middle;resizable=0;points=[];" vertex="1" connectable="0" parent="0MTYDVpqmOvpyB6dmzOl-27">
          <mxGeometry x="0.4051" y="1" relative="1" as="geometry">
            <mxPoint as="offset" />
          </mxGeometry>
        </mxCell>
        <mxCell id="0MTYDVpqmOvpyB6dmzOl-3" value="&lt;meta charset=&quot;utf-8&quot;&gt;&lt;span style=&quot;caret-color: rgb(50, 50, 50); color: rgb(50, 50, 50); font-family: &amp;quot;Microsoft YaHei&amp;quot;, 微软雅黑, Arial; font-size: 13px; font-style: normal; font-variant-caps: normal; font-weight: 400; letter-spacing: normal; orphans: auto; text-align: center; text-indent: 0px; text-transform: none; white-space: normal; widows: auto; word-spacing: 0px; -webkit-text-stroke-width: 0px; background-color: rgba(255, 255, 255, 0.01); text-decoration: none; display: inline !important; float: none;&quot;&gt;判断用户提问是否属于金融方面&lt;/span&gt;" style="rhombus;whiteSpace=wrap;html=1;" vertex="1" parent="1">
          <mxGeometry x="290" y="240" width="150" height="100" as="geometry" />
        </mxCell>
        <mxCell id="0MTYDVpqmOvpyB6dmzOl-12" value="" style="edgeStyle=orthogonalEdgeStyle;rounded=0;orthogonalLoop=1;jettySize=auto;html=1;" edge="1" parent="1" source="0MTYDVpqmOvpyB6dmzOl-4" target="0MTYDVpqmOvpyB6dmzOl-6">
          <mxGeometry relative="1" as="geometry" />
        </mxCell>
        <mxCell id="0MTYDVpqmOvpyB6dmzOl-16" value="" style="edgeStyle=orthogonalEdgeStyle;rounded=0;orthogonalLoop=1;jettySize=auto;html=1;" edge="1" parent="1" source="0MTYDVpqmOvpyB6dmzOl-4" target="0MTYDVpqmOvpyB6dmzOl-5">
          <mxGeometry relative="1" as="geometry" />
        </mxCell>
        <mxCell id="0MTYDVpqmOvpyB6dmzOl-4" value="&lt;span style=&quot;caret-color: rgb(50, 50, 50); color: rgb(50, 50, 50); font-family: &amp;quot;Microsoft YaHei&amp;quot;, 微软雅黑, Arial; font-size: 13px; background-color: rgba(255, 255, 255, 0.01);&quot;&gt;将用户问题直接发给大模型&lt;/span&gt;" style="rounded=0;whiteSpace=wrap;html=1;" vertex="1" parent="1">
          <mxGeometry x="500" y="260" width="120" height="60" as="geometry" />
        </mxCell>
        <mxCell id="0MTYDVpqmOvpyB6dmzOl-5" value="&lt;span style=&quot;caret-color: rgb(50, 50, 50); color: rgb(50, 50, 50); font-family: &amp;quot;Microsoft YaHei&amp;quot;, 微软雅黑, Arial; font-size: 13px; background-color: rgba(255, 255, 255, 0.01);&quot;&gt;大模型（deepseek）&lt;/span&gt;" style="shape=hexagon;perimeter=hexagonPerimeter2;whiteSpace=wrap;html=1;fixedSize=1;" vertex="1" parent="1">
          <mxGeometry x="500" y="360" width="120" height="80" as="geometry" />
        </mxCell>
        <mxCell id="0MTYDVpqmOvpyB6dmzOl-6" value="&lt;span style=&quot;caret-color: rgb(50, 50, 50); color: rgb(50, 50, 50); font-family: &amp;quot;Microsoft YaHei&amp;quot;, 微软雅黑, Arial; font-size: 13px; background-color: rgba(255, 255, 255, 0.01);&quot;&gt;模型返回内容给用户&lt;/span&gt;" style="rounded=0;whiteSpace=wrap;html=1;" vertex="1" parent="1">
          <mxGeometry x="790" y="260" width="120" height="60" as="geometry" />
        </mxCell>
        <mxCell id="0MTYDVpqmOvpyB6dmzOl-15" value="" style="edgeStyle=orthogonalEdgeStyle;rounded=0;orthogonalLoop=1;jettySize=auto;html=1;" edge="1" parent="1" source="0MTYDVpqmOvpyB6dmzOl-7" target="0MTYDVpqmOvpyB6dmzOl-8">
          <mxGeometry relative="1" as="geometry" />
        </mxCell>
        <mxCell id="0MTYDVpqmOvpyB6dmzOl-23" style="edgeStyle=orthogonalEdgeStyle;rounded=0;orthogonalLoop=1;jettySize=auto;html=1;entryX=1;entryY=0.5;entryDx=0;entryDy=0;" edge="1" parent="1" source="0MTYDVpqmOvpyB6dmzOl-7" target="0MTYDVpqmOvpyB6dmzOl-18">
          <mxGeometry relative="1" as="geometry">
            <Array as="points">
              <mxPoint x="560" y="90" />
            </Array>
          </mxGeometry>
        </mxCell>
        <mxCell id="0MTYDVpqmOvpyB6dmzOl-7" value="&lt;span style=&quot;caret-color: rgb(50, 50, 50); color: rgb(50, 50, 50); font-family: &amp;quot;Microsoft YaHei&amp;quot;, 微软雅黑, Arial; font-size: 13px; background-color: rgba(255, 255, 255, 0.01);&quot;&gt;调用embedding模型去检索知识库（混合检索）&lt;/span&gt;" style="rounded=0;whiteSpace=wrap;html=1;" vertex="1" parent="1">
          <mxGeometry x="500" y="150" width="120" height="60" as="geometry" />
        </mxCell>
        <mxCell id="0MTYDVpqmOvpyB6dmzOl-17" value="" style="edgeStyle=orthogonalEdgeStyle;rounded=0;orthogonalLoop=1;jettySize=auto;html=1;exitX=0.5;exitY=1;exitDx=0;exitDy=0;entryX=1;entryY=0.5;entryDx=0;entryDy=0;" edge="1" parent="1" source="0MTYDVpqmOvpyB6dmzOl-8" target="0MTYDVpqmOvpyB6dmzOl-5">
          <mxGeometry relative="1" as="geometry">
            <mxPoint x="720" y="240" as="sourcePoint" />
            <mxPoint x="620" y="480" as="targetPoint" />
            <Array as="points">
              <mxPoint x="720" y="400" />
            </Array>
          </mxGeometry>
        </mxCell>
        <mxCell id="0MTYDVpqmOvpyB6dmzOl-26" style="edgeStyle=orthogonalEdgeStyle;rounded=0;orthogonalLoop=1;jettySize=auto;html=1;entryX=0.5;entryY=0;entryDx=0;entryDy=0;" edge="1" parent="1" source="0MTYDVpqmOvpyB6dmzOl-8" target="0MTYDVpqmOvpyB6dmzOl-6">
          <mxGeometry relative="1" as="geometry" />
        </mxCell>
        <mxCell id="0MTYDVpqmOvpyB6dmzOl-8" value="&lt;span style=&quot;caret-color: rgb(50, 50, 50); color: rgb(50, 50, 50); font-family: &amp;quot;Microsoft YaHei&amp;quot;, 微软雅黑, Arial; font-size: 13px; background-color: rgba(255, 255, 255, 0.01);&quot;&gt;用户提问+知识库引用 发给大模型&lt;/span&gt;" style="rounded=0;whiteSpace=wrap;html=1;" vertex="1" parent="1">
          <mxGeometry x="660" y="150" width="120" height="60" as="geometry" />
        </mxCell>
        <mxCell id="0MTYDVpqmOvpyB6dmzOl-9" value="" style="endArrow=classic;html=1;rounded=0;entryX=0;entryY=0.5;entryDx=0;entryDy=0;exitX=1;exitY=0.5;exitDx=0;exitDy=0;" edge="1" parent="1" source="0MTYDVpqmOvpyB6dmzOl-2" target="0MTYDVpqmOvpyB6dmzOl-3">
          <mxGeometry width="50" height="50" relative="1" as="geometry">
            <mxPoint x="220" y="380" as="sourcePoint" />
            <mxPoint x="280" y="330" as="targetPoint" />
          </mxGeometry>
        </mxCell>
        <mxCell id="0MTYDVpqmOvpyB6dmzOl-18" value="&lt;span style=&quot;caret-color: rgb(50, 50, 50); color: rgb(50, 50, 50); font-family: &amp;quot;Microsoft YaHei&amp;quot;, 微软雅黑, Arial; font-size: 13px; background-color: rgba(255, 255, 255, 0.01);&quot;&gt;embedding模型&lt;/span&gt;" style="shape=hexagon;perimeter=hexagonPerimeter2;whiteSpace=wrap;html=1;fixedSize=1;" vertex="1" parent="1">
          <mxGeometry x="390" y="50" width="120" height="80" as="geometry" />
        </mxCell>
        <mxCell id="0MTYDVpqmOvpyB6dmzOl-19" value="&lt;span style=&quot;caret-color: rgb(50, 50, 50); color: rgb(50, 50, 50); font-family: &amp;quot;Microsoft YaHei&amp;quot;, 微软雅黑, Arial; font-size: 13px; background-color: rgba(255, 255, 255, 0.01);&quot;&gt;东北知识库&lt;/span&gt;" style="shape=cylinder3;whiteSpace=wrap;html=1;boundedLbl=1;backgroundOutline=1;size=15;" vertex="1" parent="1">
          <mxGeometry x="630" y="50" width="60" height="80" as="geometry" />
        </mxCell>
        <mxCell id="0MTYDVpqmOvpyB6dmzOl-22" style="edgeStyle=orthogonalEdgeStyle;rounded=0;orthogonalLoop=1;jettySize=auto;html=1;entryX=0.5;entryY=0;entryDx=0;entryDy=0;" edge="1" parent="1" source="0MTYDVpqmOvpyB6dmzOl-20" target="0MTYDVpqmOvpyB6dmzOl-18">
          <mxGeometry relative="1" as="geometry">
            <Array as="points">
              <mxPoint x="450" y="-20" />
            </Array>
          </mxGeometry>
        </mxCell>
        <mxCell id="0MTYDVpqmOvpyB6dmzOl-20" value="&lt;span style=&quot;caret-color: rgb(50, 50, 50); color: rgb(50, 50, 50); font-family: &amp;quot;Microsoft YaHei&amp;quot;, 微软雅黑, Arial; font-size: 13px; background-color: rgba(255, 255, 255, 0.01);&quot;&gt;文档&lt;/span&gt;" style="rounded=0;whiteSpace=wrap;html=1;" vertex="1" parent="1">
          <mxGeometry x="500" y="-50" width="120" height="60" as="geometry" />
        </mxCell>
        <mxCell id="0MTYDVpqmOvpyB6dmzOl-21" style="edgeStyle=orthogonalEdgeStyle;rounded=0;orthogonalLoop=1;jettySize=auto;html=1;entryX=0.5;entryY=0;entryDx=0;entryDy=0;entryPerimeter=0;" edge="1" parent="1" source="0MTYDVpqmOvpyB6dmzOl-20" target="0MTYDVpqmOvpyB6dmzOl-19">
          <mxGeometry relative="1" as="geometry" />
        </mxCell>
        <mxCell id="0MTYDVpqmOvpyB6dmzOl-24" style="edgeStyle=orthogonalEdgeStyle;rounded=0;orthogonalLoop=1;jettySize=auto;html=1;entryX=0;entryY=0.5;entryDx=0;entryDy=0;entryPerimeter=0;" edge="1" parent="1" source="0MTYDVpqmOvpyB6dmzOl-7" target="0MTYDVpqmOvpyB6dmzOl-19">
          <mxGeometry relative="1" as="geometry">
            <Array as="points">
              <mxPoint x="560" y="90" />
            </Array>
          </mxGeometry>
        </mxCell>
      </root>
    </mxGraphModel>
  </diagram>
</mxfile>
